<?xml version="1.0" standalone="no"?>
<!DOCTYPE svg PUBLIC "-//W3C//DTD SVG 20010904//EN"
 "http://www.w3.org/TR/2001/REC-SVG-20010904/DTD/svg10.dtd">
<svg version="1.0" xmlns="http://www.w3.org/2000/svg"
 width="2048.000000pt" height="2047.000000pt" viewBox="0 0 2048.000000 2047.000000"
 preserveAspectRatio="xMidYMid meet">
<metadata>
Created by potrace 1.16, written by Peter Selinger 2001-2019
</metadata>
<g transform="translate(0.000000,2047.000000) scale(0.100000,-0.100000)"
fill="#000000" stroke="none">
<path d="M10 10235 l0 -10235 10230 2 10230 3 0 10220 c0 5621 0 10226 0
10233 0 9 -2053 12 -10230 12 l-10230 0 0 -10235z m11166 7570 c19 -30 13 -90
-22 -213 -44 -152 -83 -316 -95 -402 -22 -154 2 -520 45 -680 26 -97 47 -134
112 -196 41 -40 64 -69 64 -84 0 -35 -38 -93 -78 -120 -61 -41 -133 -112 -153
-151 -34 -67 -42 -167 -30 -349 6 -91 16 -306 21 -477 16 -519 44 -686 165
-988 85 -214 99 -268 93 -375 -5 -71 -14 -107 -55 -215 -138 -362 -224 -837
-181 -1000 l13 -50 52 0 c45 1 72 11 184 69 190 98 250 117 389 123 132 6 216
-11 344 -71 215 -99 459 -332 548 -522 26 -55 30 -74 26 -123 -5 -78 -34 -115
-115 -153 -49 -23 -83 -31 -146 -35 -103 -7 -130 5 -256 116 -115 101 -160
131 -246 166 -85 34 -202 38 -305 11 -93 -24 -255 -106 -326 -165 -202 -165
-314 -465 -284 -758 19 -179 68 -298 167 -404 142 -151 327 -195 523 -124 239
87 550 355 740 640 104 156 156 205 218 205 28 0 31 -4 42 -51 31 -126 -38
-435 -150 -675 -56 -119 -99 -186 -229 -354 -198 -254 -254 -372 -311 -647
-37 -180 -54 -223 -87 -223 -45 0 -77 47 -116 170 -96 305 -230 464 -402 477
-51 5 -63 2 -78 -15 -49 -54 -58 -178 -32 -427 39 -381 40 -788 0 -1390 -17
-256 -19 -274 -50 -505 -14 -96 -32 -274 -40 -395 -9 -121 -22 -263 -30 -315
-37 -251 -53 -565 -60 -1178 -3 -248 -13 -539 -21 -653 -22 -284 -15 -1682 10
-1979 21 -268 33 -353 61 -440 45 -145 42 -240 -7 -240 -113 2 -190 207 -258
690 -43 302 -48 373 -61 861 -13 497 -6 2083 10 2284 6 66 19 176 31 245 11
69 24 208 30 310 5 102 18 275 29 385 11 110 22 281 26 380 3 99 15 333 26
520 47 810 33 1278 -50 1682 -38 183 -74 273 -177 439 -47 77 -120 199 -161
273 -199 358 -201 381 -56 548 176 202 191 285 194 1068 l2 490 -31 109 c-20
68 -36 153 -43 225 -8 89 -19 141 -47 221 -32 93 -36 115 -35 195 1 54 12 140
27 215 63 295 71 1063 15 1445 -36 255 -80 406 -165 577 -85 171 -82 183 96
306 116 81 216 177 226 216 11 46 -13 74 -101 120 -111 58 -123 66 -147 104
-17 28 -19 43 -14 93 18 153 147 443 392 879 150 266 188 310 276 310 29 0 41
-6 54 -25z m-2648 -2720 c133 -27 268 -90 292 -135 8 -16 7 -27 -7 -50 -27
-46 -89 -69 -216 -81 -247 -22 -294 -37 -386 -123 -197 -186 -291 -505 -291
-990 0 -286 25 -540 115 -1171 102 -711 119 -920 120 -1435 0 -238 -4 -403
-13 -475 -32 -275 -98 -494 -186 -626 -24 -36 -98 -117 -164 -180 -190 -180
-254 -262 -372 -479 -34 -63 -82 -142 -107 -175 -24 -33 -60 -92 -79 -131 -38
-80 -48 -91 -92 -104 -42 -12 -57 7 -96 127 -74 221 -174 354 -431 573 -249
211 -325 290 -392 405 -73 125 -128 310 -159 540 -27 197 -25 650 5 930 29
278 78 563 140 820 79 331 94 456 93 785 -1 315 -26 578 -82 858 -73 370 -120
461 -315 609 -131 99 -165 175 -109 242 70 84 325 148 654 166 184 10 203 -15
127 -171 -83 -169 -96 -287 -72 -639 19 -265 17 -661 -5 -1055 -5 -102 -14
-297 -20 -435 -5 -137 -19 -340 -31 -450 -18 -176 -20 -240 -16 -540 9 -558
57 -884 164 -1105 59 -122 125 -189 244 -248 116 -56 183 -72 334 -79 206 -8
318 28 415 134 66 72 103 140 144 264 54 164 68 264 73 527 6 254 -1 357 -52
892 -66 686 -90 1096 -90 1570 0 427 10 541 65 765 97 393 259 612 498 669 76
19 215 19 300 1z m5942 -1429 c30 -13 80 -34 110 -46 102 -43 150 -97 136
-153 -7 -31 -118 -197 -202 -302 -93 -117 -126 -128 -234 -73 -73 36 -205 159
-215 200 -15 58 73 215 185 331 64 65 67 67 115 67 30 0 73 -10 105 -24z
m-695 -931 c121 -54 178 -164 137 -259 -26 -58 -81 -110 -207 -194 -266 -177
-363 -265 -427 -387 -20 -39 -42 -97 -49 -130 -18 -78 -17 -419 1 -620 7 -86
14 -312 15 -530 1 -209 5 -560 10 -780 10 -496 -3 -714 -61 -1028 -43 -235
-101 -417 -209 -662 -173 -392 -360 -702 -515 -855 -84 -83 -169 -132 -198
-114 -21 14 -28 65 -10 79 7 5 18 21 24 35 6 14 47 75 91 136 243 337 409 745
497 1224 59 320 61 633 6 950 -37 216 -81 359 -156 513 -30 60 -54 122 -54
137 0 36 25 117 67 218 81 197 101 304 110 582 5 197 -9 551 -39 974 -22 315
12 434 142 502 56 29 161 25 232 -9 32 -15 70 -30 85 -33 39 -8 87 28 146 106
89 119 133 156 207 171 47 9 95 1 155 -26z m764 -177 c186 -100 192 -127 66
-308 -122 -174 -139 -240 -131 -485 9 -303 32 -562 55 -635 11 -36 44 -99 72
-140 64 -93 98 -165 92 -191 -3 -11 -31 -37 -62 -58 -79 -55 -108 -89 -133
-157 -20 -54 -22 -87 -29 -409 -8 -366 -12 -413 -64 -616 -77 -309 -201 -565
-295 -614 -16 -8 -43 -15 -60 -15 -28 0 -30 2 -30 38 0 20 18 100 40 177 103
358 113 523 70 1090 -25 322 -38 366 -132 456 -60 58 -68 70 -68 103 0 34 10
47 104 146 88 91 107 116 120 161 21 71 20 91 -11 205 -26 95 -27 113 -33 414
-6 294 -8 324 -34 445 -38 178 -29 240 45 315 71 70 195 129 273 130 40 0 66
-9 145 -52z m-4640 -7 c96 -57 281 -202 344 -271 104 -112 119 -178 87 -385
-11 -77 -25 -216 -31 -310 -5 -93 -14 -231 -19 -305 -13 -176 -13 -388 0 -470
16 -98 45 -176 100 -270 60 -101 84 -174 74 -225 -3 -20 -37 -87 -74 -149
-187 -310 -203 -389 -204 -971 0 -397 12 -537 75 -845 77 -374 160 -607 295
-832 68 -112 104 -192 104 -228 0 -12 -10 -25 -25 -32 -20 -9 -33 -6 -79 16
-68 33 -142 113 -236 254 -321 481 -432 1062 -401 2094 6 200 11 514 11 698 1
375 8 486 44 663 69 339 57 657 -30 818 -103 187 -292 225 -400 78 -76 -104
-104 -241 -104 -509 0 -202 14 -368 42 -516 19 -100 22 -153 22 -329 -1 -200
-3 -226 -49 -525 -43 -282 -48 -337 -52 -531 -5 -226 1 -311 38 -494 36 -178
87 -335 156 -475 97 -200 104 -250 33 -250 -94 0 -218 137 -320 353 -142 302
-164 539 -180 1922 -9 806 -16 987 -44 1166 -32 202 -119 291 -240 245 -76
-29 -112 -107 -156 -336 -29 -154 -38 -341 -27 -600 12 -286 2 -799 -18 -970
-31 -265 -83 -461 -152 -578 -47 -80 -235 -289 -279 -309 -31 -15 -35 -15 -54
2 -28 25 -25 63 10 126 145 260 208 520 231 954 20 377 -8 1018 -62 1420 -16
125 -56 304 -95 427 -48 153 -56 273 -22 338 41 80 159 146 279 157 66 6 95
-6 170 -73 59 -52 93 -68 117 -55 9 5 37 30 61 55 79 80 183 96 275 42 23 -14
66 -46 96 -72 58 -49 121 -83 156 -84 33 0 103 40 199 116 125 99 139 105 208
100 45 -3 73 -13 126 -45z"/>
</g>
</svg>
