<?xml version="1.0" encoding="UTF-8"?>
<!DOCTYPE svg PUBLIC "-//W3C//DTD SVG 1.1//EN" "http://www.w3.org/Graphics/SVG/1.1/DTD/svg11.dtd">
<!-- Creator: CorelDRAW -->
<svg xmlns="http://www.w3.org/2000/svg" xml:space="preserve" width="6.10931in" height="6.10931in" version="1.1" style="shape-rendering:geometricPrecision; text-rendering:geometricPrecision; image-rendering:optimizeQuality; fill-rule:evenodd; clip-rule:evenodd"
viewBox="0 0 5632 5632"
 xmlns:xlink="http://www.w3.org/1999/xlink"
 xmlns:xodm="http://www.corel.com/coreldraw/odm/2003">
 <defs>
  <style type="text/css">
   <![CDATA[
    .str0 {stroke:#373435;stroke-width:6.4;stroke-miterlimit:2.61313}
    .fil0 {fill:#2A2A28}
    .fil3 {fill:#898988}
    .fil2 {fill:#E9E9E7}
    .fil1 {fill:#FEFEFE}
   ]]>
  </style>
 </defs>
 <g id="Layer_x0020_1">
  <metadata id="CorelCorpID_0Corel-Layer"/>
  <rect class="fil0 str0" x="3.2" y="3.2" width="5625.59" height="5625.59"/>
  <g id="_2749472778480">
   <polygon class="fil1" points="3078.81,1079.34 3078.81,1076.36 3081.79,1076.36 3081.79,1073.37 3087.77,1073.37 3087.77,1070.39 3093.74,1070.39 3093.74,1067.39 3096.73,1067.39 3096.73,1064.41 3102.7,1064.41 3102.7,1061.43 3105.69,1061.43 3105.69,1058.44 3108.67,1058.44 3108.67,1055.45 3111.66,1055.45 3111.66,1052.47 3114.65,1052.47 3114.65,1049.48 3117.63,1049.48 3117.63,1046.49 3120.62,1046.49 3120.62,1040.52 3123.61,1040.52 3123.61,1034.55 3126.59,1034.55 3126.59,1019.61 3123.61,1019.61 3123.61,1013.64 3120.62,1013.64 3120.62,1010.65 3117.63,1010.65 3117.63,1007.67 3114.65,1007.67 3114.65,1004.68 3111.66,1004.68 3111.66,1001.69 3105.69,1001.69 3105.69,998.71 3102.7,998.71 3102.7,995.72 3099.72,995.72 3099.72,992.74 3096.73,992.74 3096.73,989.75 3093.74,989.75 3093.74,986.76 3090.76,986.76 3090.76,980.79 3087.77,980.79 3087.77,977.8 3084.78,977.8 3084.78,971.83 3081.79,971.83 3081.79,962.87 3078.81,962.87 3078.81,953.92 3075.82,953.92 3075.82,947.94 3072.83,947.94 3072.83,930.02 3069.85,930.02 3069.85,915.09 3066.86,915.09 3066.86,900.16 3063.88,900.16 3063.88,876.26 3060.89,876.26 3060.89,846.4 3057.9,846.4 3057.9,738.89 3060.89,738.89 3060.89,723.95 3063.88,723.95 3063.88,706.03 3066.86,706.03 3066.86,697.07 3069.85,697.07 3069.85,682.14 3072.83,682.14 3072.83,673.18 3075.82,673.18 3075.82,661.23 3078.81,661.23 3078.81,649.29 3081.79,649.29 3081.79,640.33 3084.78,640.33 3084.78,628.38 3087.77,628.38 3087.77,619.42 3090.76,619.42 3090.76,607.47 3093.74,607.47 3093.74,595.53 3096.73,595.53 3096.73,553.72 3093.74,553.72 3093.74,550.73 3090.76,550.73 3090.76,547.74 3066.86,547.74 3066.86,550.73 3057.9,550.73 3057.9,553.72 3054.92,553.72 3054.92,556.71 3051.94,556.71 3051.94,559.69 3045.96,559.69 3045.96,562.68 3042.97,562.68 3042.97,568.65 3039.99,568.65 3039.99,571.64 3037,571.64 3037,574.62 3034.01,574.62 3034.01,580.6 3031.03,580.6 3031.03,583.58 3028.04,583.58 3028.04,589.55 3025.06,589.55 3025.06,595.53 3022.07,595.53 3022.07,598.51 3019.07,598.51 3019.07,604.49 3016.09,604.49 3016.09,610.46 3013.11,610.46 3013.11,613.45 3010.12,613.45 3010.12,619.42 3007.14,619.42 3007.14,625.4 3004.14,625.4 3004.14,631.37 3001.16,631.37 3001.16,634.35 2998.18,634.35 2998.18,640.33 2995.19,640.33 2995.19,646.3 2992.2,646.3 2992.2,652.27 2989.21,652.27 2989.21,658.25 2986.23,658.25 2986.23,661.23 2983.24,661.23 2983.24,667.21 2980.26,667.21 2980.26,673.18 2977.27,673.18 2977.27,679.15 2974.28,679.15 2974.28,682.14 2971.3,682.14 2971.3,688.11 2968.31,688.11 2968.31,694.09 2965.33,694.09 2965.33,700.06 2962.34,700.06 2962.34,706.03 2959.35,706.03 2959.35,712 2956.36,712 2956.36,717.98 2953.38,717.98 2953.38,723.95 2950.39,723.95 2950.39,729.92 2947.4,729.92 2947.4,735.9 2944.42,735.9 2944.42,738.89 2941.43,738.89 2941.43,747.84 2938.44,747.84 2938.44,753.82 2935.46,753.82 2935.46,759.78 2932.47,759.78 2932.47,765.76 2929.48,765.76 2929.48,771.73 2926.5,771.73 2926.5,777.71 2923.51,777.71 2923.51,783.68 2920.52,783.68 2920.52,789.65 2917.54,789.65 2917.54,798.61 2914.55,798.61 2914.55,804.58 2911.57,804.58 2911.57,810.56 2908.58,810.56 2908.58,816.53 2905.59,816.53 2905.59,825.49 2902.61,825.49 2902.61,834.45 2899.62,834.45 2899.62,840.42 2896.63,840.42 2896.63,846.4 2893.65,846.4 2893.65,852.36 2890.66,852.36 2890.66,864.32 2887.68,864.32 2887.68,873.28 2884.69,873.28 2884.69,888.21 2881.7,888.21 2881.7,897.17 2878.71,897.17 2878.71,924.05 2881.7,924.05 2881.7,930.02 2884.69,930.02 2884.69,933.01 2887.68,933.01 2887.68,935.99 2890.66,935.99 2890.66,938.98 2893.65,938.98 2893.65,941.96 2896.63,941.96 2896.63,944.95 2899.62,944.95 2899.62,947.94 2905.59,947.94 2905.59,950.92 2911.57,950.92 2911.57,953.92 2917.54,953.92 2917.54,956.9 2923.51,956.9 2923.51,959.88 2929.48,959.88 2929.48,962.87 2935.46,962.87 2935.46,965.86 2941.43,965.86 2941.43,968.85 2944.42,968.85 2944.42,971.83 2950.39,971.83 2950.39,974.81 2953.38,974.81 2953.38,977.8 2956.36,977.8 2956.36,980.79 2959.35,980.79 2959.35,1001.69 2956.36,1001.69 2956.36,1004.68 2953.38,1004.68 2953.38,1010.65 2950.39,1010.65 2950.39,1013.64 2947.4,1013.64 2947.4,1016.63 2944.42,1016.63 2944.42,1019.61 2941.43,1019.61 2941.43,1022.61 2938.44,1022.61 2938.44,1025.59 2935.46,1025.59 2935.46,1028.57 2932.47,1028.57 2932.47,1031.56 2929.48,1031.56 2929.48,1034.55 2926.5,1034.55 2926.5,1037.53 2920.52,1037.53 2920.52,1040.52 2917.54,1040.52 2917.54,1043.51 2914.55,1043.51 2914.55,1046.49 2911.57,1046.49 2911.57,1049.48 2905.59,1049.48 2905.59,1052.47 2902.61,1052.47 2902.61,1055.45 2896.63,1055.45 2896.63,1058.44 2893.65,1058.44 2893.65,1061.43 2890.66,1061.43 2890.66,1064.41 2884.69,1064.41 2884.69,1067.39 2881.7,1067.39 2881.7,1070.39 2875.73,1070.39 2875.73,1073.37 2872.74,1073.37 2872.74,1076.36 2866.77,1076.36 2866.77,1079.34 2863.78,1079.34 2863.78,1082.32 2860.8,1082.32 2860.8,1085.32 2857.81,1085.32 2857.81,1088.31 2854.83,1088.31 2854.83,1091.29 2851.83,1091.29 2851.83,1094.28 2848.85,1094.28 2848.85,1097.26 2845.86,1097.26 2845.86,1124.14 2848.85,1124.14 2848.85,1130.12 2851.83,1130.12 2851.83,1136.08 2854.83,1136.08 2854.83,1142.06 2857.81,1142.06 2857.81,1145.05 2860.8,1145.05 2860.8,1154.01 2863.78,1154.01 2863.78,1156.99 2866.77,1156.99 2866.77,1162.97 2869.76,1162.97 2869.76,1171.92 2872.74,1171.92 2872.74,1177.9 2875.73,1177.9 2875.73,1183.88 2878.71,1183.88 2878.71,1189.84 2881.7,1189.84 2881.7,1201.79 2884.69,1201.79 2884.69,1210.75 2887.68,1210.75 2887.68,1219.71 2890.66,1219.71 2890.66,1228.67 2893.65,1228.67 2893.65,1237.63 2896.63,1237.63 2896.63,1252.57 2899.62,1252.57 2899.62,1264.51 2902.61,1264.51 2902.61,1279.44 2905.59,1279.44 2905.59,1291.39 2908.58,1291.39 2908.58,1312.29 2911.57,1312.29 2911.57,1336.18 2914.55,1336.18 2914.55,1360.08 2917.54,1360.08 2917.54,1395.91 2920.52,1395.91 2920.52,1422.79 2923.51,1422.79 2923.51,1613.92 2920.52,1613.92 2920.52,1670.67 2917.54,1670.67 2917.54,1712.49 2914.55,1712.49 2914.55,1727.42 2911.57,1727.42 2911.57,1742.35 2908.58,1742.35 2908.58,1760.27 2905.59,1760.27 2905.59,1775.2 2902.61,1775.2 2902.61,1796.1 2899.62,1796.1 2899.62,1855.84 2902.61,1855.84 2902.61,1861.81 2905.59,1861.81 2905.59,1873.75 2908.58,1873.75 2908.58,1879.73 2911.57,1879.73 2911.57,1885.7 2914.55,1885.7 2914.55,1894.66 2917.54,1894.66 2917.54,1906.6 2920.52,1906.6 2920.52,1933.48 2923.51,1933.48 2923.51,1957.38 2926.5,1957.38 2926.5,1981.27 2929.48,1981.27 2929.48,1996.2 2932.47,1996.2 2932.47,2005.16 2935.46,2005.16 2935.46,2017.11 2938.44,2017.11 2938.44,2029.05 2941.43,2029.05 2941.43,2038.01 2944.42,2038.01 2944.42,2052.95 2947.4,2052.95 2947.4,2088.78 2944.42,2088.78 2944.42,2351.6 2941.43,2351.6 2941.43,2387.43 2938.44,2387.43 2938.44,2411.33 2935.46,2411.33 2935.46,2423.27 2932.47,2423.27 2932.47,2435.21 2929.48,2435.21 2929.48,2447.17 2926.5,2447.17 2926.5,2459.11 2923.51,2459.11 2923.51,2465.08 2920.52,2465.08 2920.52,2471.05 2917.54,2471.05 2917.54,2474.04 2914.55,2474.04 2914.55,2480.02 2911.57,2480.02 2911.57,2483.01 2908.58,2483.01 2908.58,2488.97 2905.59,2488.97 2905.59,2491.96 2902.61,2491.96 2902.61,2494.95 2899.62,2494.95 2899.62,2497.94 2896.63,2497.94 2896.63,2500.92 2893.65,2500.92 2893.65,2506.89 2887.68,2506.89 2887.68,2512.87 2884.69,2512.87 2884.69,2515.85 2881.7,2515.85 2881.7,2518.84 2878.71,2518.84 2878.71,2521.83 2875.73,2521.83 2875.73,2524.81 2872.74,2524.81 2872.74,2527.8 2869.76,2527.8 2869.76,2530.78 2866.77,2530.78 2866.77,2536.77 2863.78,2536.77 2863.78,2542.73 2860.8,2542.73 2860.8,2545.72 2857.81,2545.72 2857.81,2587.53 2860.8,2587.53 2860.8,2593.5 2863.78,2593.5 2863.78,2602.46 2866.77,2602.46 2866.77,2608.44 2869.76,2608.44 2869.76,2614.41 2872.74,2614.41 2872.74,2620.38 2875.73,2620.38 2875.73,2626.36 2878.71,2626.36 2878.71,2632.33 2881.7,2632.33 2881.7,2638.3 2884.69,2638.3 2884.69,2641.29 2887.68,2641.29 2887.68,2647.26 2890.66,2647.26 2890.66,2653.23 2893.65,2653.23 2893.65,2659.21 2896.63,2659.21 2896.63,2665.17 2899.62,2665.17 2899.62,2671.16 2902.61,2671.16 2902.61,2674.14 2905.59,2674.14 2905.59,2680.11 2908.58,2680.11 2908.58,2686.08 2911.57,2686.08 2911.57,2692.06 2914.55,2692.06 2914.55,2698.03 2917.54,2698.03 2917.54,2701.01 2920.52,2701.01 2920.52,2706.99 2923.51,2706.99 2923.51,2712.97 2926.5,2712.97 2926.5,2715.95 2929.48,2715.95 2929.48,2721.92 2932.47,2721.92 2932.47,2727.9 2935.46,2727.9 2935.46,2730.88 2938.44,2730.88 2938.44,2736.85 2941.43,2736.85 2941.43,2742.83 2944.42,2742.83 2944.42,2745.81 2947.4,2745.81 2947.4,2748.8 2950.39,2748.8 2950.39,2754.77 2953.38,2754.77 2953.38,2760.75 2956.36,2760.75 2956.36,2763.73 2959.35,2763.73 2959.35,2769.71 2962.34,2769.71 2962.34,2775.68 2965.33,2775.68 2965.33,2778.67 2968.31,2778.67 2968.31,2784.64 2971.3,2784.64 2971.3,2790.61 2974.28,2790.61 2974.28,2796.59 2977.27,2796.59 2977.27,2802.56 2980.26,2802.56 2980.26,2808.53 2983.24,2808.53 2983.24,2817.49 2986.23,2817.49 2986.23,2823.46 2989.21,2823.46 2989.21,2829.44 2992.2,2829.44 2992.2,2841.39 2995.19,2841.39 2995.19,2847.36 2998.18,2847.36 2998.18,2865.27 3001.16,2865.27 3001.16,2874.24 3004.14,2874.24 3004.14,2889.17 3007.14,2889.17 3007.14,2907.09 3010.12,2907.09 3010.12,2922.02 3013.11,2922.02 3013.11,2936.95 3016.09,2936.95 3016.09,2972.79 3019.07,2972.79 3019.07,2984.74 3022.07,2984.74 3022.07,3020.57 3025.06,3020.57 3025.06,3068.36 3028.04,3068.36 3028.04,3259.49 3025.06,3259.49 3025.06,3331.17 3022.07,3331.17 3022.07,3352.08 3019.07,3352.08 3019.07,3438.69 3016.09,3438.69 3016.09,3477.51 3013.11,3477.51 3013.11,3534.25 3010.12,3534.25 3010.12,3620.87 3007.14,3620.87 3007.14,3653.71 3004.14,3653.71 3004.14,3671.63 3001.16,3671.63 3001.16,3710.46 2998.18,3710.46 2998.18,3749.28 2995.19,3749.28 2995.19,3820.96 2992.2,3820.96 2992.2,3832.91 2989.21,3832.91 2989.21,3859.78 2986.23,3859.78 2986.23,3874.71 2983.24,3874.71 2983.24,3892.63 2980.26,3892.63 2980.26,3916.53 2977.27,3916.53 2977.27,3964.3 2974.28,3964.3 2974.28,4203.23 2971.3,4203.23 2971.3,4585.5 2974.28,4585.5 2974.28,4657.18 2977.27,4657.18 2977.27,4761.71 2980.26,4761.71 2980.26,4800.53 2983.24,4800.53 2983.24,4818.45 2986.23,4818.45 2986.23,4848.31 2989.21,4848.31 2989.21,4866.23 2992.2,4866.23 2992.2,4890.13 2995.19,4890.13 2995.19,4905.06 2998.18,4905.06 2998.18,4931.94 3001.16,4931.94 3001.16,4949.86 3004.14,4949.86 3004.14,4958.82 3007.14,4958.82 3007.14,4973.75 3010.12,4973.75 3010.12,4982.71 3013.11,4982.71 3013.11,4997.64 3016.09,4997.64 3016.09,5018.54 3019.07,5018.54 3019.07,5024.52 3022.07,5024.52 3022.07,5030.49 3025.06,5030.49 3025.06,5039.45 3028.04,5039.45 3028.04,5045.42 3031.03,5045.42 3031.03,5051.4 3034.01,5051.4 3034.01,5057.37 3037,5057.37 3037,5063.34 3039.99,5063.34 3039.99,5066.33 3042.97,5066.33 3042.97,5069.32 3045.96,5069.32 3045.96,5072.3 3048.94,5072.3 3048.94,5075.29 3051.94,5075.29 3051.94,5078.28 3054.92,5078.28 3054.92,5081.26 3060.89,5081.26 3060.89,5084.25 3072.83,5084.25 3072.83,5081.26 3078.81,5081.26 3078.81,5075.29 3081.79,5075.29 3081.79,5048.41 3078.81,5048.41 3078.81,5039.45 3075.82,5039.45 3075.82,5021.53 3072.83,5021.53 3072.83,5009.58 3069.85,5009.58 3069.85,5003.61 3066.86,5003.61 3066.86,4991.67 3063.88,4991.67 3063.88,4979.72 3060.89,4979.72 3060.89,4958.82 3057.9,4958.82 3057.9,4911.03 3054.92,4911.03 3054.92,4896.1 3051.94,4896.1 3051.94,4848.31 3048.94,4848.31 3048.94,4767.68 3045.96,4767.68 3045.96,4313.73 3048.94,4313.73 3048.94,4286.85 3051.94,4286.85 3051.94,4251.01 3054.92,4251.01 3054.92,3994.17 3057.9,3994.17 3057.9,3928.47 3060.89,3928.47 3060.89,3859.78 3063.88,3859.78 3063.88,3812 3066.86,3812 3066.86,3785.12 3069.85,3785.12 3069.85,3761.23 3072.83,3761.23 3072.83,3749.28 3075.82,3749.28 3075.82,3710.46 3078.81,3710.46 3078.81,3689.55 3081.79,3689.55 3081.79,3653.71 3084.78,3653.71 3084.78,3605.93 3087.77,3605.93 3087.77,3576.07 3090.76,3576.07 3090.76,3546.2 3093.74,3546.2 3093.74,3534.25 3096.73,3534.25 3096.73,3510.36 3099.72,3510.36 3099.72,3486.47 3102.7,3486.47 3102.7,3453.62 3105.69,3453.62 3105.69,3414.79 3108.67,3414.79 3108.67,3367.01 3111.66,3367.01 3111.66,3328.18 3114.65,3328.18 3114.65,3247.55 3117.63,3247.55 3117.63,3056.41 3114.65,3056.41 3114.65,3020.57 3111.66,3020.57 3111.66,2972.79 3108.67,2972.79 3108.67,2945.91 3105.69,2945.91 3105.69,2865.27 3108.67,2865.27 3108.67,2850.34 3111.66,2850.34 3111.66,2844.37 3114.65,2844.37 3114.65,2841.39 3117.63,2841.39 3117.63,2838.39 3120.62,2838.39 3120.62,2835.41 3123.61,2835.41 3123.61,2832.42 3156.46,2832.42 3156.46,2835.41 3162.43,2835.41 3162.43,2838.39 3171.39,2838.39 3171.39,2841.39 3180.35,2841.39 3180.35,2844.37 3183.34,2844.37 3183.34,2847.36 3189.31,2847.36 3189.31,2850.34 3192.3,2850.34 3192.3,2853.33 3195.29,2853.33 3195.29,2856.32 3201.26,2856.32 3201.26,2859.31 3204.24,2859.31 3204.24,2862.29 3207.23,2862.29 3207.23,2865.27 3210.22,2865.27 3210.22,2871.25 3213.21,2871.25 3213.21,2874.24 3216.19,2874.24 3216.19,2877.22 3219.17,2877.22 3219.17,2880.2 3222.17,2880.2 3222.17,2886.18 3225.15,2886.18 3225.15,2889.17 3228.14,2889.17 3228.14,2895.14 3231.12,2895.14 3231.12,2901.11 3234.1,2901.11 3234.1,2907.09 3237.1,2907.09 3237.1,2910.07 3240.08,2910.07 3240.08,2916.05 3243.07,2916.05 3243.07,2925 3246.05,2925 3246.05,2930.98 3249.04,2930.98 3249.04,2936.95 3252.03,2936.95 3252.03,2945.91 3255.02,2945.91 3255.02,2954.87 3258,2954.87 3258,2960.84 3260.99,2960.84 3260.99,2972.79 3263.97,2972.79 3263.97,2978.76 3266.96,2978.76 3266.96,2990.71 3269.95,2990.71 3269.95,3002.65 3272.93,3002.65 3272.93,3008.63 3275.92,3008.63 3275.92,3014.6 3278.9,3014.6 3278.9,3017.59 3281.89,3017.59 3281.89,3020.57 3284.88,3020.57 3284.88,3023.56 3293.84,3023.56 3293.84,3026.55 3305.78,3026.55 3305.78,3020.57 3308.77,3020.57 3308.77,3011.62 3311.75,3011.62 3311.75,3008.63 3314.74,3008.63 3314.74,2996.68 3317.73,2996.68 3317.73,2978.76 3320.72,2978.76 3320.72,2969.8 3323.7,2969.8 3323.7,2948.9 3326.69,2948.9 3326.69,2936.95 3329.68,2936.95 3329.68,2922.02 3332.66,2922.02 3332.66,2913.06 3335.65,2913.06 3335.65,2901.11 3338.64,2901.11 3338.64,2895.14 3341.62,2895.14 3341.62,2883.19 3344.61,2883.19 3344.61,2877.22 3347.6,2877.22 3347.6,2871.25 3350.58,2871.25 3350.58,2865.27 3353.57,2865.27 3353.57,2859.31 3356.56,2859.31 3356.56,2853.33 3359.54,2853.33 3359.54,2847.36 3362.53,2847.36 3362.53,2841.39 3365.51,2841.39 3365.51,2835.41 3368.5,2835.41 3368.5,2832.42 3371.49,2832.42 3371.49,2826.45 3374.48,2826.45 3374.48,2820.48 3377.46,2820.48 3377.46,2817.49 3380.44,2817.49 3380.44,2811.52 3383.43,2811.52 3383.43,2808.53 3386.42,2808.53 3386.42,2802.56 3389.41,2802.56 3389.41,2799.57 3392.4,2799.57 3392.4,2793.6 3395.38,2793.6 3395.38,2790.61 3398.37,2790.61 3398.37,2787.63 3401.35,2787.63 3401.35,2781.66 3404.34,2781.66 3404.34,2778.67 3407.33,2778.67 3407.33,2775.68 3410.31,2775.68 3410.31,2772.69 3413.3,2772.69 3413.3,2766.72 3416.28,2766.72 3416.28,2763.73 3419.27,2763.73 3419.27,2760.75 3422.26,2760.75 3422.26,2757.76 3425.25,2757.76 3425.25,2751.79 3428.24,2751.79 3428.24,2748.8 3431.22,2748.8 3431.22,2745.81 3434.2,2745.81 3434.2,2742.83 3437.19,2742.83 3437.19,2736.85 3440.18,2736.85 3440.18,2733.87 3443.17,2733.87 3443.17,2727.9 3446.15,2727.9 3446.15,2724.91 3449.13,2724.91 3449.13,2721.92 3452.13,2721.92 3452.13,2715.95 3455.11,2715.95 3455.11,2712.97 3458.1,2712.97 3458.1,2706.99 3461.08,2706.99 3461.08,2704 3464.07,2704 3464.07,2698.03 3467.06,2698.03 3467.06,2692.06 3470.04,2692.06 3470.04,2689.07 3473.03,2689.07 3473.03,2683.1 3476.01,2683.1 3476.01,2677.13 3479,2677.13 3479,2671.16 3482,2671.16 3482,2665.17 3484.98,2665.17 3484.98,2659.21 3487.96,2659.21 3487.96,2650.24 3490.95,2650.24 3490.95,2644.28 3493.93,2644.28 3493.93,2638.3 3496.93,2638.3 3496.93,2629.34 3499.91,2629.34 3499.91,2623.37 3502.89,2623.37 3502.89,2614.41 3505.88,2614.41 3505.88,2608.44 3508.87,2608.44 3508.87,2596.49 3511.86,2596.49 3511.86,2584.54 3514.84,2584.54 3514.84,2578.57 3517.83,2578.57 3517.83,2560.65 3520.81,2560.65 3520.81,2551.7 3523.8,2551.7 3523.8,2536.77 3526.79,2536.77 3526.79,2518.84 3529.77,2518.84 3529.77,2450.15 3526.79,2450.15 3526.79,2444.18 3505.88,2444.18 3505.88,2447.17 3502.89,2447.17 3502.89,2450.15 3496.93,2450.15 3496.93,2453.14 3490.95,2453.14 3490.95,2456.12 3487.96,2456.12 3487.96,2459.11 3484.98,2459.11 3484.98,2462.1 3482,2462.1 3482,2468.07 3479,2468.07 3479,2471.05 3476.01,2471.05 3476.01,2474.04 3473.03,2474.04 3473.03,2477.03 3470.04,2477.03 3470.04,2483.01 3467.06,2483.01 3467.06,2485.99 3464.07,2485.99 3464.07,2491.96 3461.08,2491.96 3461.08,2494.95 3458.1,2494.95 3458.1,2497.94 3455.11,2497.94 3455.11,2503.9 3452.13,2503.9 3452.13,2506.89 3449.13,2506.89 3449.13,2512.87 3446.15,2512.87 3446.15,2515.85 3443.17,2515.85 3443.17,2521.83 3440.18,2521.83 3440.18,2524.81 3437.19,2524.81 3437.19,2530.78 3434.2,2530.78 3434.2,2533.77 3431.22,2533.77 3431.22,2536.77 3428.24,2536.77 3428.24,2539.74 3425.25,2539.74 3425.25,2545.72 3422.26,2545.72 3422.26,2548.71 3419.27,2548.71 3419.27,2551.7 3416.28,2551.7 3416.28,2554.68 3413.3,2554.68 3413.3,2557.66 3410.31,2557.66 3410.31,2560.65 3407.33,2560.65 3407.33,2566.63 3404.34,2566.63 3404.34,2569.61 3401.35,2569.61 3401.35,2572.6 3398.37,2572.6 3398.37,2575.58 3395.38,2575.58 3395.38,2578.57 3392.4,2578.57 3392.4,2581.56 3389.41,2581.56 3389.41,2584.54 3386.42,2584.54 3386.42,2587.53 3383.43,2587.53 3383.43,2590.52 3380.44,2590.52 3380.44,2593.5 3377.46,2593.5 3377.46,2596.49 3374.48,2596.49 3374.48,2599.48 3371.49,2599.48 3371.49,2602.46 3368.5,2602.46 3368.5,2605.45 3365.51,2605.45 3365.51,2608.44 3362.53,2608.44 3362.53,2611.42 3359.54,2611.42 3359.54,2614.41 3356.56,2614.41 3356.56,2617.4 3353.57,2617.4 3353.57,2620.38 3350.58,2620.38 3350.58,2623.37 3347.6,2623.37 3347.6,2626.36 3341.62,2626.36 3341.62,2629.34 3338.64,2629.34 3338.64,2632.33 3335.65,2632.33 3335.65,2635.31 3332.66,2635.31 3332.66,2638.3 3329.68,2638.3 3329.68,2641.29 3323.7,2641.29 3323.7,2644.28 3320.72,2644.28 3320.72,2647.26 3317.73,2647.26 3317.73,2650.24 3314.74,2650.24 3314.74,2653.23 3308.77,2653.23 3308.77,2656.22 3305.78,2656.22 3305.78,2659.21 3299.81,2659.21 3299.81,2662.19 3296.83,2662.19 3296.83,2665.17 3290.85,2665.17 3290.85,2668.16 3287.86,2668.16 3287.86,2671.16 3281.89,2671.16 3281.89,2674.14 3275.92,2674.14 3275.92,2677.13 3269.95,2677.13 3269.95,2680.11 3266.96,2680.11 3266.96,2683.1 3260.99,2683.1 3260.99,2686.08 3255.02,2686.08 3255.02,2689.07 3249.04,2689.07 3249.04,2692.06 3240.08,2692.06 3240.08,2695.04 3231.12,2695.04 3231.12,2698.03 3222.17,2698.03 3222.17,2701.01 3213.21,2701.01 3213.21,2704 3198.27,2704 3198.27,2706.99 3156.46,2706.99 3156.46,2704 3144.51,2704 3144.51,2701.01 3132.57,2701.01 3132.57,2698.03 3126.59,2698.03 3126.59,2695.04 3120.62,2695.04 3120.62,2692.06 3114.65,2692.06 3114.65,2689.07 3108.67,2689.07 3108.67,2686.08 3102.7,2686.08 3102.7,2683.1 3099.72,2683.1 3099.72,2680.11 3093.74,2680.11 3093.74,2677.13 3090.76,2677.13 3090.76,2674.14 3087.77,2674.14 3087.77,2671.16 3081.79,2671.16 3081.79,2668.16 3078.81,2668.16 3078.81,2665.17 3075.82,2665.17 3075.82,2659.21 3069.85,2659.21 3069.85,2653.23 3066.86,2653.23 3066.86,2650.24 3063.88,2650.24 3063.88,2647.26 3060.89,2647.26 3060.89,2641.29 3057.9,2641.29 3057.9,2638.3 3054.92,2638.3 3054.92,2632.33 3051.94,2632.33 3051.94,2626.36 3048.94,2626.36 3048.94,2623.37 3045.96,2623.37 3045.96,2617.4 3042.97,2617.4 3042.97,2611.42 3039.99,2611.42 3039.99,2602.46 3037,2602.46 3037,2593.5 3034.01,2593.5 3034.01,2581.56 3031.03,2581.56 3031.03,2572.6 3028.04,2572.6 3028.04,2554.68 3025.06,2554.68 3025.06,2536.77 3022.07,2536.77 3022.07,2477.03 3025.06,2477.03 3025.06,2465.08 3028.04,2465.08 3028.04,2450.15 3031.03,2450.15 3031.03,2435.21 3034.01,2435.21 3034.01,2429.25 3037,2429.25 3037,2417.3 3039.99,2417.3 3039.99,2405.35 3042.97,2405.35 3042.97,2402.37 3045.96,2402.37 3045.96,2393.41 3048.94,2393.41 3048.94,2387.43 3051.94,2387.43 3051.94,2381.46 3054.92,2381.46 3054.92,2375.49 3057.9,2375.49 3057.9,2372.5 3060.89,2372.5 3060.89,2366.53 3063.88,2366.53 3063.88,2360.55 3066.86,2360.55 3066.86,2357.57 3069.85,2357.57 3069.85,2354.58 3072.83,2354.58 3072.83,2348.61 3075.82,2348.61 3075.82,2345.62 3078.81,2345.62 3078.81,2342.63 3081.79,2342.63 3081.79,2336.67 3084.78,2336.67 3084.78,2333.67 3087.77,2333.67 3087.77,2330.69 3090.76,2330.69 3090.76,2327.7 3093.74,2327.7 3093.74,2324.72 3096.73,2324.72 3096.73,2321.74 3099.72,2321.74 3099.72,2318.74 3102.7,2318.74 3102.7,2315.76 3105.69,2315.76 3105.69,2312.77 3111.66,2312.77 3111.66,2309.79 3114.65,2309.79 3114.65,2306.8 3117.63,2306.8 3117.63,2303.81 3123.61,2303.81 3123.61,2300.82 3126.59,2300.82 3126.59,2297.84 3132.57,2297.84 3132.57,2294.85 3135.55,2294.85 3135.55,2291.87 3141.53,2291.87 3141.53,2288.88 3147.5,2288.88 3147.5,2285.89 3153.47,2285.89 3153.47,2282.91 3159.45,2282.91 3159.45,2279.92 3165.42,2279.92 3165.42,2276.94 3171.39,2276.94 3171.39,2273.94 3177.37,2273.94 3177.37,2270.96 3183.34,2270.96 3183.34,2267.98 3192.3,2267.98 3192.3,2264.99 3204.24,2264.99 3204.24,2262 3213.21,2262 3213.21,2259.01 3231.12,2259.01 3231.12,2256.03 3269.95,2256.03 3269.95,2259.01 3278.9,2259.01 3278.9,2262 3293.84,2262 3293.84,2264.99 3299.81,2264.99 3299.81,2267.98 3308.77,2267.98 3308.77,2270.96 3314.74,2270.96 3314.74,2273.94 3320.72,2273.94 3320.72,2276.94 3323.7,2276.94 3323.7,2279.92 3329.68,2279.92 3329.68,2282.91 3332.66,2282.91 3332.66,2285.89 3338.64,2285.89 3338.64,2288.88 3341.62,2288.88 3341.62,2291.87 3344.61,2291.87 3344.61,2294.85 3350.58,2294.85 3350.58,2297.84 3353.57,2297.84 3353.57,2300.82 3356.56,2300.82 3356.56,2303.81 3359.54,2303.81 3359.54,2306.8 3362.53,2306.8 3362.53,2309.79 3365.51,2309.79 3365.51,2312.77 3371.49,2312.77 3371.49,2315.76 3374.48,2315.76 3374.48,2318.74 3377.46,2318.74 3377.46,2321.74 3380.44,2321.74 3380.44,2324.72 3383.43,2324.72 3383.43,2327.7 3386.42,2327.7 3386.42,2330.69 3389.41,2330.69 3389.41,2333.67 3395.38,2333.67 3395.38,2336.67 3398.37,2336.67 3398.37,2339.65 3404.34,2339.65 3404.34,2342.63 3407.33,2342.63 3407.33,2345.62 3413.3,2345.62 3413.3,2348.61 3422.26,2348.61 3422.26,2351.6 3461.08,2351.6 3461.08,2348.61 3470.04,2348.61 3470.04,2345.62 3484.98,2345.62 3484.98,2342.63 3490.95,2342.63 3490.95,2339.65 3496.93,2339.65 3496.93,2336.67 3502.89,2336.67 3502.89,2333.67 3505.88,2333.67 3505.88,2330.69 3508.87,2330.69 3508.87,2327.7 3511.86,2327.7 3511.86,2324.72 3514.84,2324.72 3514.84,2321.74 3517.83,2321.74 3517.83,2318.74 3520.81,2318.74 3520.81,2315.76 3523.8,2315.76 3523.8,2309.79 3526.79,2309.79 3526.79,2273.94 3523.8,2273.94 3523.8,2267.98 3520.81,2267.98 3520.81,2259.01 3517.83,2259.01 3517.83,2253.04 3514.84,2253.04 3514.84,2247.07 3511.86,2247.07 3511.86,2241.09 3508.87,2241.09 3508.87,2238.11 3505.88,2238.11 3505.88,2232.14 3502.89,2232.14 3502.89,2229.15 3499.91,2229.15 3499.91,2223.18 3496.93,2223.18 3496.93,2220.19 3493.93,2220.19 3493.93,2217.2 3490.95,2217.2 3490.95,2211.23 3487.96,2211.23 3487.96,2208.24 3484.98,2208.24 3484.98,2205.25 3482,2205.25 3482,2202.27 3479,2202.27 3479,2199.28 3476.01,2199.28 3476.01,2193.31 3473.03,2193.31 3473.03,2190.32 3470.04,2190.32 3470.04,2187.34 3467.06,2187.34 3467.06,2184.35 3464.07,2184.35 3464.07,2181.36 3461.08,2181.36 3461.08,2178.38 3458.1,2178.38 3458.1,2175.39 3455.11,2175.39 3455.11,2172.4 3452.13,2172.4 3452.13,2169.42 3449.13,2169.42 3449.13,2166.43 3446.15,2166.43 3446.15,2163.44 3443.17,2163.44 3443.17,2160.46 3440.18,2160.46 3440.18,2157.47 3437.19,2157.47 3437.19,2154.49 3434.2,2154.49 3434.2,2151.5 3428.24,2151.5 3428.24,2148.51 3425.25,2148.51 3425.25,2145.53 3422.26,2145.53 3422.26,2142.54 3419.27,2142.54 3419.27,2139.55 3413.3,2139.55 3413.3,2136.57 3410.31,2136.57 3410.31,2133.58 3407.33,2133.58 3407.33,2130.59 3401.35,2130.59 3401.35,2127.6 3398.37,2127.6 3398.37,2124.62 3392.4,2124.62 3392.4,2121.64 3389.41,2121.64 3389.41,2118.65 3383.43,2118.65 3383.43,2115.66 3377.46,2115.66 3377.46,2112.67 3374.48,2112.67 3374.48,2109.69 3365.51,2109.69 3365.51,2106.71 3362.53,2106.71 3362.53,2103.71 3353.57,2103.71 3353.57,2100.73 3347.6,2100.73 3347.6,2097.74 3341.62,2097.74 3341.62,2094.76 3332.66,2094.76 3332.66,2091.77 3323.7,2091.77 3323.7,2088.78 3317.73,2088.78 3317.73,2085.8 3305.78,2085.8 3305.78,2082.81 3293.84,2082.81 3293.84,2079.83 3228.14,2079.83 3228.14,2082.81 3216.19,2082.81 3216.19,2085.8 3207.23,2085.8 3207.23,2088.78 3192.3,2088.78 3192.3,2091.77 3186.33,2091.77 3186.33,2094.76 3180.35,2094.76 3180.35,2097.74 3171.39,2097.74 3171.39,2100.73 3165.42,2100.73 3165.42,2103.71 3159.45,2103.71 3159.45,2106.71 3153.47,2106.71 3153.47,2109.69 3147.5,2109.69 3147.5,2112.67 3141.53,2112.67 3141.53,2115.66 3135.55,2115.66 3135.55,2118.65 3132.57,2118.65 3132.57,2121.64 3126.59,2121.64 3126.59,2124.62 3120.62,2124.62 3120.62,2127.6 3114.65,2127.6 3114.65,2130.59 3108.67,2130.59 3108.67,2133.58 3102.7,2133.58 3102.7,2136.57 3090.76,2136.57 3090.76,2139.55 3066.86,2139.55 3066.86,2133.58 3063.88,2133.58 3063.88,2127.6 3060.89,2127.6 3060.89,2112.67 3057.9,2112.67 3057.9,2043.98 3060.89,2043.98 3060.89,2023.08 3063.88,2023.08 3063.88,2005.16 3066.86,2005.16 3066.86,1990.23 3069.85,1990.23 3069.85,1975.29 3072.83,1975.29 3072.83,1966.33 3075.82,1966.33 3075.82,1951.4 3078.81,1951.4 3078.81,1933.48 3081.79,1933.48 3081.79,1921.54 3084.78,1921.54 3084.78,1915.57 3087.77,1915.57 3087.77,1903.62 3090.76,1903.62 3090.76,1894.66 3093.74,1894.66 3093.74,1885.7 3096.73,1885.7 3096.73,1870.77 3099.72,1870.77 3099.72,1861.81 3102.7,1861.81 3102.7,1852.85 3105.69,1852.85 3105.69,1843.88 3108.67,1843.88 3108.67,1837.92 3111.66,1837.92 3111.66,1831.94 3114.65,1831.94 3114.65,1822.98 3117.63,1822.98 3117.63,1814.02 3120.62,1814.02 3120.62,1808.05 3123.61,1808.05 3123.61,1796.1 3126.59,1796.1 3126.59,1790.13 3129.58,1790.13 3129.58,1775.2 3132.57,1775.2 3132.57,1727.42 3129.58,1727.42 3129.58,1712.49 3126.59,1712.49 3126.59,1706.51 3123.61,1706.51 3123.61,1694.57 3120.62,1694.57 3120.62,1685.61 3117.63,1685.61 3117.63,1679.63 3114.65,1679.63 3114.65,1670.67 3111.66,1670.67 3111.66,1664.7 3108.67,1664.7 3108.67,1655.74 3105.69,1655.74 3105.69,1649.77 3102.7,1649.77 3102.7,1643.79 3099.72,1643.79 3099.72,1634.83 3096.73,1634.83 3096.73,1628.86 3093.74,1628.86 3093.74,1616.91 3090.76,1616.91 3090.76,1610.94 3087.77,1610.94 3087.77,1604.97 3084.78,1604.97 3084.78,1593.02 3081.79,1593.02 3081.79,1581.07 3078.81,1581.07 3078.81,1575.11 3075.82,1575.11 3075.82,1557.19 3072.83,1557.19 3072.83,1542.25 3069.85,1542.25 3069.85,1527.32 3066.86,1527.32 3066.86,1515.38 3063.88,1515.38 3063.88,1491.48 3060.89,1491.48 3060.89,1464.6 3057.9,1464.6 3057.9,1383.96 3054.92,1383.96 3054.92,1279.44 3051.94,1279.44 3051.94,1252.57 3048.94,1252.57 3048.94,1201.79 3045.96,1201.79 3045.96,1145.05 3048.94,1145.05 3048.94,1127.13 3051.94,1127.13 3051.94,1115.19 3054.92,1115.19 3054.92,1109.21 3057.9,1109.21 3057.9,1103.24 3060.89,1103.24 3060.89,1097.26 3063.88,1097.26 3063.88,1094.28 3066.86,1094.28 3066.86,1088.31 3069.85,1088.31 3069.85,1085.32 3075.82,1085.32 3075.82,1079.34 "/>
   <polygon class="fil1" points="2230.64,1366.04 2218.7,1366.04 2218.7,1369.03 2206.75,1369.03 2206.75,1372.02 2194.8,1372.02 2194.8,1375.01 2188.83,1375.01 2188.83,1377.99 2182.86,1377.99 2182.86,1380.98 2176.88,1380.98 2176.88,1383.96 2170.91,1383.96 2170.91,1386.95 2164.94,1386.95 2164.94,1389.94 2161.95,1389.94 2161.95,1392.93 2158.97,1392.93 2158.97,1395.91 2152.99,1395.91 2152.99,1398.9 2150,1398.9 2150,1401.88 2147.02,1401.88 2147.02,1404.87 2144.04,1404.87 2144.04,1407.86 2141.05,1407.86 2141.05,1410.84 2138.06,1410.84 2138.06,1413.83 2135.07,1413.83 2135.07,1416.82 2132.09,1416.82 2132.09,1419.8 2129.11,1419.8 2129.11,1425.78 2126.11,1425.78 2126.11,1428.77 2123.13,1428.77 2123.13,1431.75 2120.14,1431.75 2120.14,1437.72 2117.15,1437.72 2117.15,1443.7 2114.17,1443.7 2114.17,1446.68 2111.18,1446.68 2111.18,1452.66 2108.2,1452.66 2108.2,1458.63 2105.21,1458.63 2105.21,1464.6 2102.22,1464.6 2102.22,1470.58 2099.24,1470.58 2099.24,1476.55 2096.24,1476.55 2096.24,1482.53 2093.27,1482.53 2093.27,1491.48 2090.28,1491.48 2090.28,1494.47 2087.29,1494.47 2087.29,1503.43 2084.3,1503.43 2084.3,1512.39 2081.31,1512.39 2081.31,1518.36 2078.33,1518.36 2078.33,1527.32 2075.35,1527.32 2075.35,1536.28 2072.36,1536.28 2072.36,1554.2 2069.37,1554.2 2069.37,1563.16 2066.38,1563.16 2066.38,1575.11 2063.4,1575.11 2063.4,1590.04 2060.41,1590.04 2060.41,1598.99 2057.42,1598.99 2057.42,1613.92 2054.44,1613.92 2054.44,1646.78 2051.45,1646.78 2051.45,1661.71 2048.47,1661.71 2048.47,1706.51 2045.48,1706.51 2045.48,1852.85 2048.47,1852.85 2048.47,1933.48 2051.45,1933.48 2051.45,1996.2 2054.44,1996.2 2054.44,2029.05 2057.42,2029.05 2057.42,2088.78 2060.41,2088.78 2060.41,2136.57 2063.4,2136.57 2063.4,2178.38 2066.38,2178.38 2066.38,2196.3 2069.37,2196.3 2069.37,2238.11 2072.36,2238.11 2072.36,2253.04 2075.35,2253.04 2075.35,2291.87 2078.33,2291.87 2078.33,2324.72 2081.31,2324.72 2081.31,2348.61 2084.3,2348.61 2084.3,2381.46 2087.29,2381.46 2087.29,2435.21 2090.28,2435.21 2090.28,2590.52 2087.29,2590.52 2087.29,2617.4 2084.3,2617.4 2084.3,2626.36 2081.31,2626.36 2081.31,2650.24 2078.33,2650.24 2078.33,2656.22 2075.35,2656.22 2075.35,2674.14 2072.36,2674.14 2072.36,2680.11 2069.37,2680.11 2069.37,2692.06 2066.38,2692.06 2066.38,2701.01 2063.4,2701.01 2063.4,2706.99 2060.41,2706.99 2060.41,2715.95 2057.42,2715.95 2057.42,2721.92 2054.44,2721.92 2054.44,2727.9 2051.45,2727.9 2051.45,2733.87 2048.47,2733.87 2048.47,2736.85 2045.48,2736.85 2045.48,2742.83 2042.49,2742.83 2042.49,2748.8 2039.51,2748.8 2039.51,2751.79 2036.52,2751.79 2036.52,2754.77 2033.54,2754.77 2033.54,2760.75 2030.55,2760.75 2030.55,2763.73 2027.55,2763.73 2027.55,2766.72 2024.57,2766.72 2024.57,2769.71 2021.59,2769.71 2021.59,2772.69 2018.6,2772.69 2018.6,2775.68 2015.62,2775.68 2015.62,2778.67 2012.62,2778.67 2012.62,2781.66 2009.64,2781.66 2009.64,2784.64 2003.67,2784.64 2003.67,2787.63 2000.68,2787.63 2000.68,2790.61 1994.71,2790.61 1994.71,2793.6 1988.74,2793.6 1988.74,2796.59 1982.76,2796.59 1982.76,2799.57 1976.79,2799.57 1976.79,2802.56 1961.86,2802.56 1961.86,2805.55 1946.92,2805.55 1946.92,2808.53 1884.21,2808.53 1884.21,2805.55 1857.33,2805.55 1857.33,2802.56 1842.4,2802.56 1842.4,2799.57 1830.45,2799.57 1830.45,2796.59 1824.48,2796.59 1824.48,2793.6 1815.52,2793.6 1815.52,2790.61 1809.55,2790.61 1809.55,2787.63 1803.57,2787.63 1803.57,2784.64 1797.59,2784.64 1797.59,2781.66 1791.63,2781.66 1791.63,2778.67 1785.65,2778.67 1785.65,2775.68 1782.66,2775.68 1782.66,2772.69 1776.69,2772.69 1776.69,2769.71 1773.71,2769.71 1773.71,2766.72 1767.73,2766.72 1767.73,2763.73 1764.75,2763.73 1764.75,2760.75 1761.76,2760.75 1761.76,2757.76 1758.77,2757.76 1758.77,2754.77 1755.79,2754.77 1755.79,2751.79 1752.8,2751.79 1752.8,2748.8 1749.81,2748.8 1749.81,2745.81 1746.83,2745.81 1746.83,2739.84 1743.84,2739.84 1743.84,2736.85 1740.86,2736.85 1740.86,2733.87 1737.87,2733.87 1737.87,2727.9 1734.88,2727.9 1734.88,2721.92 1731.9,2721.92 1731.9,2718.93 1728.91,2718.93 1728.91,2712.97 1725.92,2712.97 1725.92,2704 1722.93,2704 1722.93,2698.03 1719.95,2698.03 1719.95,2692.06 1716.96,2692.06 1716.96,2680.11 1713.98,2680.11 1713.98,2674.14 1710.99,2674.14 1710.99,2665.17 1708,2665.17 1708,2656.22 1705.01,2656.22 1705.01,2644.28 1702.03,2644.28 1702.03,2626.36 1699.05,2626.36 1699.05,2614.41 1696.06,2614.41 1696.06,2596.49 1693.07,2596.49 1693.07,2572.6 1690.08,2572.6 1690.08,2563.64 1687.1,2563.64 1687.1,2530.78 1684.12,2530.78 1684.12,2494.95 1681.13,2494.95 1681.13,2459.11 1678.14,2459.11 1678.14,2262 1681.13,2262 1681.13,2232.14 1684.12,2232.14 1684.12,2196.3 1687.1,2196.3 1687.1,2160.46 1690.08,2160.46 1690.08,2124.62 1693.07,2124.62 1693.07,2020.09 1696.06,2020.09 1696.06,1990.23 1699.05,1990.23 1699.05,1933.48 1702.03,1933.48 1702.03,1846.88 1705.01,1846.88 1705.01,1694.57 1702.03,1694.57 1702.03,1652.75 1699.05,1652.75 1699.05,1610.94 1696.06,1610.94 1696.06,1527.32 1699.05,1527.32 1699.05,1512.39 1702.03,1512.39 1702.03,1497.46 1705.01,1497.46 1705.01,1485.51 1708,1485.51 1708,1476.55 1710.99,1476.55 1710.99,1467.59 1713.98,1467.59 1713.98,1461.62 1716.96,1461.62 1716.96,1455.64 1719.95,1455.64 1719.95,1449.67 1722.93,1449.67 1722.93,1443.7 1725.92,1443.7 1725.92,1437.72 1728.91,1437.72 1728.91,1431.75 1731.9,1431.75 1731.9,1419.8 1734.88,1419.8 1734.88,1407.86 1731.9,1407.86 1731.9,1401.88 1728.91,1401.88 1728.91,1398.9 1719.95,1398.9 1719.95,1395.91 1681.13,1395.91 1681.13,1398.9 1654.25,1398.9 1654.25,1401.88 1609.45,1401.88 1609.45,1404.87 1597.5,1404.87 1597.5,1407.86 1579.58,1407.86 1579.58,1410.84 1564.65,1410.84 1564.65,1413.83 1552.7,1413.83 1552.7,1416.82 1546.73,1416.82 1546.73,1419.8 1531.8,1419.8 1531.8,1422.79 1525.83,1422.79 1525.83,1425.78 1519.85,1425.78 1519.85,1428.77 1510.9,1428.77 1510.9,1431.75 1507.91,1431.75 1507.91,1434.74 1501.94,1434.74 1501.94,1437.72 1498.95,1437.72 1498.95,1440.71 1492.97,1440.71 1492.97,1443.7 1489.98,1443.7 1489.98,1446.68 1487,1446.68 1487,1452.66 1484.02,1452.66 1484.02,1455.64 1481.03,1455.64 1481.03,1479.53 1484.02,1479.53 1484.02,1482.53 1487,1482.53 1487,1488.5 1489.98,1488.5 1489.98,1491.48 1492.97,1491.48 1492.97,1494.47 1495.96,1494.47 1495.96,1500.44 1498.95,1500.44 1498.95,1503.43 1501.94,1503.43 1501.94,1506.42 1507.91,1506.42 1507.91,1509.4 1510.9,1509.4 1510.9,1512.39 1513.88,1512.39 1513.88,1515.38 1516.87,1515.38 1516.87,1518.36 1522.84,1518.36 1522.84,1521.35 1525.83,1521.35 1525.83,1524.33 1528.81,1524.33 1528.81,1527.32 1534.79,1527.32 1534.79,1530.31 1537.77,1530.31 1537.77,1533.29 1540.76,1533.29 1540.76,1536.28 1546.73,1536.28 1546.73,1539.26 1549.72,1539.26 1549.72,1542.25 1552.7,1542.25 1552.7,1545.24 1555.69,1545.24 1555.69,1548.22 1558.68,1548.22 1558.68,1551.21 1561.66,1551.21 1561.66,1554.2 1564.65,1554.2 1564.65,1560.18 1567.64,1560.18 1567.64,1563.16 1570.62,1563.16 1570.62,1566.14 1573.61,1566.14 1573.61,1572.12 1576.6,1572.12 1576.6,1575.11 1579.58,1575.11 1579.58,1581.07 1582.57,1581.07 1582.57,1587.05 1585.56,1587.05 1585.56,1593.02 1588.54,1593.02 1588.54,1598.99 1591.53,1598.99 1591.53,1610.94 1594.52,1610.94 1594.52,1616.91 1597.5,1616.91 1597.5,1628.86 1600.49,1628.86 1600.49,1637.82 1603.48,1637.82 1603.48,1652.75 1606.46,1652.75 1606.46,1664.7 1609.45,1664.7 1609.45,1676.64 1612.44,1676.64 1612.44,1685.61 1615.42,1685.61 1615.42,1706.51 1618.41,1706.51 1618.41,1718.46 1621.39,1718.46 1621.39,1736.38 1624.38,1736.38 1624.38,1760.27 1627.37,1760.27 1627.37,1778.18 1630.36,1778.18 1630.36,1814.02 1633.34,1814.02 1633.34,1825.97 1636.33,1825.97 1636.33,1861.81 1639.32,1861.81 1639.32,2041 1636.33,2041 1636.33,2076.84 1633.34,2076.84 1633.34,2100.73 1630.36,2100.73 1630.36,2124.62 1627.37,2124.62 1627.37,2136.57 1624.38,2136.57 1624.38,2148.51 1621.39,2148.51 1621.39,2160.46 1618.41,2160.46 1618.41,2172.4 1615.42,2172.4 1615.42,2181.36 1612.44,2181.36 1612.44,2196.3 1609.45,2196.3 1609.45,2208.24 1606.46,2208.24 1606.46,2220.19 1603.48,2220.19 1603.48,2238.11 1600.49,2238.11 1600.49,2250.06 1597.5,2250.06 1597.5,2267.98 1594.52,2267.98 1594.52,2276.94 1591.53,2276.94 1591.53,2297.84 1588.54,2297.84 1588.54,2315.76 1585.56,2315.76 1585.56,2336.67 1582.57,2336.67 1582.57,2348.61 1579.58,2348.61 1579.58,2375.49 1576.6,2375.49 1576.6,2405.35 1573.61,2405.35 1573.61,2426.26 1570.62,2426.26 1570.62,2453.14 1567.64,2453.14 1567.64,2483.01 1564.65,2483.01 1564.65,2545.72 1561.66,2545.72 1561.66,2641.29 1564.65,2641.29 1564.65,2686.08 1567.64,2686.08 1567.64,2709.98 1570.62,2709.98 1570.62,2733.87 1573.61,2733.87 1573.61,2760.75 1576.6,2760.75 1576.6,2769.71 1579.58,2769.71 1579.58,2781.66 1582.57,2781.66 1582.57,2793.6 1585.56,2793.6 1585.56,2805.55 1588.54,2805.55 1588.54,2817.49 1591.53,2817.49 1591.53,2823.46 1594.52,2823.46 1594.52,2835.41 1597.5,2835.41 1597.5,2841.39 1600.49,2841.39 1600.49,2847.36 1603.48,2847.36 1603.48,2853.33 1606.46,2853.33 1606.46,2859.31 1609.45,2859.31 1609.45,2865.27 1612.44,2865.27 1612.44,2871.25 1615.42,2871.25 1615.42,2877.22 1618.41,2877.22 1618.41,2880.2 1621.39,2880.2 1621.39,2886.18 1624.38,2886.18 1624.38,2889.17 1627.37,2889.17 1627.37,2895.14 1630.36,2895.14 1630.36,2898.12 1633.34,2898.12 1633.34,2901.11 1636.33,2901.11 1636.33,2907.09 1639.32,2907.09 1639.32,2910.07 1642.3,2910.07 1642.3,2913.06 1645.29,2913.06 1645.29,2916.05 1648.28,2916.05 1648.28,2919.03 1651.26,2919.03 1651.26,2925 1657.23,2925 1657.23,2930.98 1660.22,2930.98 1660.22,2933.96 1663.2,2933.96 1663.2,2936.95 1669.18,2936.95 1669.18,2942.93 1675.15,2942.93 1675.15,2945.91 1678.14,2945.91 1678.14,2948.9 1681.13,2948.9 1681.13,2951.88 1684.12,2951.88 1684.12,2954.87 1687.1,2954.87 1687.1,2957.86 1690.08,2957.86 1690.08,2960.84 1693.07,2960.84 1693.07,2963.83 1696.06,2963.83 1696.06,2966.81 1702.03,2966.81 1702.03,2969.8 1705.01,2969.8 1705.01,2972.79 1708,2972.79 1708,2975.78 1710.99,2975.78 1710.99,2978.76 1713.98,2978.76 1713.98,2981.75 1716.96,2981.75 1716.96,2984.74 1722.93,2984.74 1722.93,2987.72 1725.92,2987.72 1725.92,2990.71 1728.91,2990.71 1728.91,2993.7 1731.9,2993.7 1731.9,2996.68 1734.88,2996.68 1734.88,2999.67 1740.86,2999.67 1740.86,3002.65 1743.84,3002.65 1743.84,3005.64 1746.83,3005.64 1746.83,3008.63 1749.81,3008.63 1749.81,3011.62 1752.8,3011.62 1752.8,3014.6 1755.79,3014.6 1755.79,3017.59 1758.77,3017.59 1758.77,3020.57 1761.76,3020.57 1761.76,3023.56 1767.73,3023.56 1767.73,3026.55 1770.72,3026.55 1770.72,3029.53 1773.71,3029.53 1773.71,3032.52 1776.69,3032.52 1776.69,3035.51 1779.68,3035.51 1779.68,3038.5 1782.66,3038.5 1782.66,3041.48 1785.65,3041.48 1785.65,3044.47 1788.64,3044.47 1788.64,3047.45 1791.63,3047.45 1791.63,3050.44 1794.61,3050.44 1794.61,3053.43 1797.59,3053.43 1797.59,3056.41 1800.59,3056.41 1800.59,3062.38 1803.57,3062.38 1803.57,3065.37 1806.56,3065.37 1806.56,3068.36 1809.55,3068.36 1809.55,3071.35 1812.53,3071.35 1812.53,3077.32 1815.52,3077.32 1815.52,3080.3 1818.51,3080.3 1818.51,3083.29 1821.49,3083.29 1821.49,3089.27 1824.48,3089.27 1824.48,3092.25 1827.46,3092.25 1827.46,3095.23 1830.45,3095.23 1830.45,3101.21 1833.44,3101.21 1833.44,3104.2 1836.42,3104.2 1836.42,3110.17 1839.41,3110.17 1839.41,3116.14 1842.4,3116.14 1842.4,3122.11 1845.39,3122.11 1845.39,3128.08 1848.37,3128.08 1848.37,3134.06 1851.35,3134.06 1851.35,3140.03 1854.34,3140.03 1854.34,3146.01 1857.33,3146.01 1857.33,3157.95 1860.32,3157.95 1860.32,3169.9 1863.31,3169.9 1863.31,3175.87 1866.29,3175.87 1866.29,3184.83 1869.28,3184.83 1869.28,3190.81 1872.26,3190.81 1872.26,3196.77 1875.25,3196.77 1875.25,3202.75 1878.24,3202.75 1878.24,3205.74 1896.16,3205.74 1896.16,3202.75 1902.13,3202.75 1902.13,3199.76 1905.11,3199.76 1905.11,3196.77 1908.1,3196.77 1908.1,3190.81 1911.09,3190.81 1911.09,3184.83 1914.08,3184.83 1914.08,3178.86 1917.06,3178.86 1917.06,3172.89 1920.04,3172.89 1920.04,3166.91 1923.03,3166.91 1923.03,3160.94 1926.02,3160.94 1926.02,3154.97 1929.01,3154.97 1929.01,3151.98 1931.99,3151.98 1931.99,3146.01 1934.98,3146.01 1934.98,3143.02 1937.96,3143.02 1937.96,3140.03 1940.95,3140.03 1940.95,3134.06 1943.94,3134.06 1943.94,3131.07 1946.92,3131.07 1946.92,3128.08 1949.91,3128.08 1949.91,3122.11 1952.9,3122.11 1952.9,3119.13 1955.88,3119.13 1955.88,3113.15 1958.87,3113.15 1958.87,3107.18 1961.86,3107.18 1961.86,3101.21 1964.84,3101.21 1964.84,3098.22 1967.83,3098.22 1967.83,3092.25 1970.82,3092.25 1970.82,3086.28 1973.8,3086.28 1973.8,3080.3 1976.79,3080.3 1976.79,3074.33 1979.78,3074.33 1979.78,3068.36 1982.76,3068.36 1982.76,3062.38 1985.75,3062.38 1985.75,3056.41 1988.74,3056.41 1988.74,3053.43 1991.72,3053.43 1991.72,3047.45 1994.71,3047.45 1994.71,3041.48 1997.69,3041.48 1997.69,3038.5 2000.68,3038.5 2000.68,3032.52 2003.67,3032.52 2003.67,3029.53 2006.66,3029.53 2006.66,3023.56 2009.64,3023.56 2009.64,3020.57 2012.62,3020.57 2012.62,3014.6 2015.62,3014.6 2015.62,3011.62 2018.6,3011.62 2018.6,3008.63 2021.59,3008.63 2021.59,3005.64 2024.57,3005.64 2024.57,2999.67 2027.55,2999.67 2027.55,2996.68 2030.55,2996.68 2030.55,2993.7 2033.54,2993.7 2033.54,2990.71 2036.52,2990.71 2036.52,2987.72 2039.51,2987.72 2039.51,2981.75 2042.49,2981.75 2042.49,2978.76 2045.48,2978.76 2045.48,2975.78 2048.47,2975.78 2048.47,2972.79 2051.45,2972.79 2051.45,2969.8 2054.44,2969.8 2054.44,2966.81 2057.42,2966.81 2057.42,2963.83 2060.41,2963.83 2060.41,2960.84 2063.4,2960.84 2063.4,2957.86 2066.38,2957.86 2066.38,2954.87 2069.37,2954.87 2069.37,2951.88 2072.36,2951.88 2072.36,2948.9 2075.35,2948.9 2075.35,2945.91 2078.33,2945.91 2078.33,2942.93 2084.3,2942.93 2084.3,2939.94 2087.29,2939.94 2087.29,2936.95 2090.28,2936.95 2090.28,2933.96 2093.27,2933.96 2093.27,2930.98 2096.24,2930.98 2096.24,2927.99 2099.24,2927.99 2099.24,2925 2102.22,2925 2102.22,2922.02 2105.21,2922.02 2105.21,2919.03 2108.2,2919.03 2108.2,2916.05 2111.18,2916.05 2111.18,2913.06 2114.17,2913.06 2114.17,2910.07 2117.15,2910.07 2117.15,2907.09 2120.14,2907.09 2120.14,2904.1 2123.13,2904.1 2123.13,2898.12 2126.11,2898.12 2126.11,2895.14 2129.11,2895.14 2129.11,2892.15 2132.09,2892.15 2132.09,2886.18 2135.07,2886.18 2135.07,2883.19 2138.06,2883.19 2138.06,2877.22 2141.05,2877.22 2141.05,2871.25 2144.04,2871.25 2144.04,2865.27 2147.02,2865.27 2147.02,2862.29 2150,2862.29 2150,2853.33 2152.99,2853.33 2152.99,2847.36 2155.98,2847.36 2155.98,2841.39 2158.97,2841.39 2158.97,2832.42 2161.95,2832.42 2161.95,2826.45 2164.94,2826.45 2164.94,2817.49 2167.93,2817.49 2167.93,2805.55 2170.91,2805.55 2170.91,2793.6 2173.9,2793.6 2173.9,2778.67 2176.88,2778.67 2176.88,2769.71 2179.87,2769.71 2179.87,2754.77 2182.86,2754.77 2182.86,2736.85 2185.84,2736.85 2185.84,2715.95 2188.83,2715.95 2188.83,2674.14 2191.82,2674.14 2191.82,2626.36 2194.8,2626.36 2194.8,2506.89 2191.82,2506.89 2191.82,2417.3 2188.83,2417.3 2188.83,2375.49 2185.84,2375.49 2185.84,2339.65 2182.86,2339.65 2182.86,2303.81 2179.87,2303.81 2179.87,2279.92 2176.88,2279.92 2176.88,2250.06 2173.9,2250.06 2173.9,2244.08 2170.91,2244.08 2170.91,2208.24 2167.93,2208.24 2167.93,2196.3 2164.94,2196.3 2164.94,2178.38 2161.95,2178.38 2161.95,2157.47 2158.97,2157.47 2158.97,2130.59 2155.98,2130.59 2155.98,2118.65 2152.99,2118.65 2152.99,2088.78 2150,2088.78 2150,2067.88 2147.02,2067.88 2147.02,2046.97 2144.04,2046.97 2144.04,2029.05 2141.05,2029.05 2141.05,2011.13 2138.06,2011.13 2138.06,1987.24 2135.07,1987.24 2135.07,1957.38 2132.09,1957.38 2132.09,1933.48 2129.11,1933.48 2129.11,1885.7 2126.11,1885.7 2126.11,1846.88 2123.13,1846.88 2123.13,1718.46 2126.11,1718.46 2126.11,1676.64 2129.11,1676.64 2129.11,1661.71 2132.09,1661.71 2132.09,1637.82 2135.07,1637.82 2135.07,1622.89 2138.06,1622.89 2138.06,1613.92 2141.05,1613.92 2141.05,1604.97 2144.04,1604.97 2144.04,1593.02 2147.02,1593.02 2147.02,1584.06 2150,1584.06 2150,1575.11 2152.99,1575.11 2152.99,1566.14 2155.98,1566.14 2155.98,1557.19 2158.97,1557.19 2158.97,1551.21 2161.95,1551.21 2161.95,1548.22 2164.94,1548.22 2164.94,1539.26 2167.93,1539.26 2167.93,1536.28 2170.91,1536.28 2170.91,1530.31 2173.9,1530.31 2173.9,1524.33 2176.88,1524.33 2176.88,1521.35 2179.87,1521.35 2179.87,1515.38 2182.86,1515.38 2182.86,1512.39 2185.84,1512.39 2185.84,1509.4 2188.83,1509.4 2188.83,1503.43 2191.82,1503.43 2191.82,1500.44 2194.8,1500.44 2194.8,1497.46 2197.79,1497.46 2197.79,1494.47 2200.78,1494.47 2200.78,1491.48 2203.76,1491.48 2203.76,1488.5 2206.75,1488.5 2206.75,1485.51 2209.74,1485.51 2209.74,1482.53 2212.72,1482.53 2212.72,1479.53 2215.71,1479.53 2215.71,1476.55 2218.7,1476.55 2218.7,1473.56 2221.68,1473.56 2221.68,1470.58 2227.65,1470.58 2227.65,1467.59 2230.64,1467.59 2230.64,1464.6 2236.62,1464.6 2236.62,1461.62 2242.58,1461.62 2242.58,1458.63 2248.56,1458.63 2248.56,1455.64 2257.51,1455.64 2257.51,1452.66 2278.43,1452.66 2278.43,1449.67 2320.24,1449.67 2320.24,1446.68 2338.16,1446.68 2338.16,1443.7 2362.05,1443.7 2362.05,1440.71 2371.01,1440.71 2371.01,1437.72 2374,1437.72 2374,1434.74 2379.97,1434.74 2379.97,1431.75 2382.95,1431.75 2382.95,1428.77 2385.94,1428.77 2385.94,1425.78 2388.93,1425.78 2388.93,1422.79 2391.91,1422.79 2391.91,1407.86 2388.93,1407.86 2388.93,1401.88 2385.94,1401.88 2385.94,1398.9 2379.97,1398.9 2379.97,1395.91 2376.98,1395.91 2376.98,1392.93 2371.01,1392.93 2371.01,1389.94 2365.03,1389.94 2365.03,1386.95 2362.05,1386.95 2362.05,1383.96 2353.09,1383.96 2353.09,1380.98 2347.11,1380.98 2347.11,1377.99 2338.16,1377.99 2338.16,1375.01 2326.21,1375.01 2326.21,1372.02 2320.24,1372.02 2320.24,1369.03 2302.32,1369.03 2302.32,1366.04 2290.38,1366.04 2290.38,1363.06 2230.64,1363.06 "/>
   <polygon class="fil1" points="2657.72,2115.66 2648.75,2115.66 2648.75,2118.65 2645.77,2118.65 2645.77,2121.64 2642.78,2121.64 2642.78,2124.62 2636.81,2124.62 2636.81,2127.6 2633.82,2127.6 2633.82,2130.59 2627.85,2130.59 2627.85,2133.58 2624.86,2133.58 2624.86,2136.57 2621.87,2136.57 2621.87,2139.55 2618.89,2139.55 2618.89,2142.54 2615.9,2142.54 2615.9,2145.53 2609.93,2145.53 2609.93,2148.51 2606.94,2148.51 2606.94,2151.5 2600.97,2151.5 2600.97,2154.49 2597.98,2154.49 2597.98,2157.47 2595,2157.47 2595,2160.46 2592.01,2160.46 2592.01,2163.44 2586.04,2163.44 2586.04,2166.43 2583.05,2166.43 2583.05,2169.42 2577.08,2169.42 2577.08,2172.4 2571.1,2172.4 2571.1,2175.39 2562.14,2175.39 2562.14,2178.38 2547.21,2178.38 2547.21,2175.39 2535.27,2175.39 2535.27,2172.4 2529.29,2172.4 2529.29,2169.42 2526.3,2169.42 2526.3,2166.43 2523.32,2166.43 2523.32,2163.44 2517.34,2163.44 2517.34,2160.46 2514.36,2160.46 2514.36,2157.47 2511.37,2157.47 2511.37,2154.49 2508.39,2154.49 2508.39,2151.5 2505.41,2151.5 2505.41,2148.51 2499.43,2148.51 2499.43,2145.53 2496.44,2145.53 2496.44,2142.54 2493.46,2142.54 2493.46,2139.55 2487.48,2139.55 2487.48,2136.57 2484.49,2136.57 2484.49,2133.58 2481.51,2133.58 2481.51,2130.59 2475.54,2130.59 2475.54,2127.6 2466.58,2127.6 2466.58,2124.62 2457.62,2124.62 2457.62,2121.64 2433.73,2121.64 2433.73,2124.62 2427.76,2124.62 2427.76,2127.6 2415.81,2127.6 2415.81,2130.59 2409.83,2130.59 2409.83,2133.58 2406.85,2133.58 2406.85,2136.57 2403.86,2136.57 2403.86,2139.55 2400.87,2139.55 2400.87,2142.54 2397.89,2142.54 2397.89,2145.53 2394.9,2145.53 2394.9,2148.51 2391.91,2148.51 2391.91,2151.5 2388.93,2151.5 2388.93,2154.49 2385.94,2154.49 2385.94,2157.47 2382.95,2157.47 2382.95,2160.46 2376.98,2160.46 2376.98,2163.44 2368.02,2163.44 2368.02,2160.46 2362.05,2160.46 2362.05,2157.47 2356.07,2157.47 2356.07,2154.49 2353.09,2154.49 2353.09,2151.5 2350.1,2151.5 2350.1,2148.51 2347.11,2148.51 2347.11,2145.53 2344.13,2145.53 2344.13,2142.54 2341.14,2142.54 2341.14,2139.55 2338.16,2139.55 2338.16,2136.57 2335.17,2136.57 2335.17,2133.58 2329.2,2133.58 2329.2,2130.59 2326.21,2130.59 2326.21,2127.6 2320.24,2127.6 2320.24,2124.62 2314.26,2124.62 2314.26,2121.64 2281.41,2121.64 2281.41,2124.62 2275.44,2124.62 2275.44,2127.6 2266.48,2127.6 2266.48,2130.59 2257.51,2130.59 2257.51,2133.58 2248.56,2133.58 2248.56,2136.57 2242.58,2136.57 2242.58,2139.55 2239.6,2139.55 2239.6,2142.54 2233.63,2142.54 2233.63,2145.53 2230.64,2145.53 2230.64,2148.51 2224.67,2148.51 2224.67,2151.5 2221.68,2151.5 2221.68,2154.49 2218.7,2154.49 2218.7,2157.47 2215.71,2157.47 2215.71,2163.44 2212.72,2163.44 2212.72,2166.43 2209.74,2166.43 2209.74,2175.39 2206.75,2175.39 2206.75,2181.36 2203.76,2181.36 2203.76,2226.16 2206.75,2226.16 2206.75,2238.11 2209.74,2238.11 2209.74,2250.06 2212.72,2250.06 2212.72,2262 2215.71,2262 2215.71,2267.98 2218.7,2267.98 2218.7,2279.92 2221.68,2279.92 2221.68,2291.87 2224.67,2291.87 2224.67,2297.84 2227.65,2297.84 2227.65,2306.8 2230.64,2306.8 2230.64,2321.74 2233.63,2321.74 2233.63,2339.65 2236.62,2339.65 2236.62,2348.61 2239.6,2348.61 2239.6,2369.51 2242.58,2369.51 2242.58,2381.46 2245.58,2381.46 2245.58,2402.37 2248.56,2402.37 2248.56,2441.19 2251.55,2441.19 2251.55,2459.11 2254.53,2459.11 2254.53,2494.95 2257.51,2494.95 2257.51,2530.78 2260.51,2530.78 2260.51,2593.5 2263.5,2593.5 2263.5,2641.29 2266.48,2641.29 2266.48,2826.45 2263.5,2826.45 2263.5,2865.27 2260.51,2865.27 2260.51,2898.12 2257.51,2898.12 2257.51,2913.06 2254.53,2913.06 2254.53,2930.98 2251.55,2930.98 2251.55,2951.88 2248.56,2951.88 2248.56,2966.81 2245.58,2966.81 2245.58,2984.74 2242.58,2984.74 2242.58,2996.68 2239.6,2996.68 2239.6,3002.65 2236.62,3002.65 2236.62,3017.59 2233.63,3017.59 2233.63,3026.55 2230.64,3026.55 2230.64,3035.51 2227.65,3035.51 2227.65,3038.5 2224.67,3038.5 2224.67,3050.44 2221.68,3050.44 2221.68,3056.41 2218.7,3056.41 2218.7,3062.38 2215.71,3062.38 2215.71,3068.36 2212.72,3068.36 2212.72,3077.32 2209.74,3077.32 2209.74,3083.29 2206.75,3083.29 2206.75,3089.27 2203.76,3089.27 2203.76,3092.25 2200.78,3092.25 2200.78,3098.22 2197.79,3098.22 2197.79,3104.2 2194.8,3104.2 2194.8,3110.17 2191.82,3110.17 2191.82,3116.14 2188.83,3116.14 2188.83,3122.11 2185.84,3122.11 2185.84,3140.03 2188.83,3140.03 2188.83,3143.02 2191.82,3143.02 2191.82,3146.01 2194.8,3146.01 2194.8,3148.99 2203.76,3148.99 2203.76,3146.01 2209.74,3146.01 2209.74,3143.02 2215.71,3143.02 2215.71,3140.03 2218.7,3140.03 2218.7,3137.05 2221.68,3137.05 2221.68,3134.06 2224.67,3134.06 2224.67,3131.07 2227.65,3131.07 2227.65,3128.08 2230.64,3128.08 2230.64,3125.1 2233.63,3125.1 2233.63,3122.11 2236.62,3122.11 2236.62,3119.13 2239.6,3119.13 2239.6,3116.14 2242.58,3116.14 2242.58,3110.17 2245.58,3110.17 2245.58,3107.18 2248.56,3107.18 2248.56,3104.2 2251.55,3104.2 2251.55,3101.21 2254.53,3101.21 2254.53,3098.22 2257.51,3098.22 2257.51,3095.23 2260.51,3095.23 2260.51,3092.25 2263.5,3092.25 2263.5,3089.27 2266.48,3089.27 2266.48,3083.29 2269.47,3083.29 2269.47,3080.3 2272.45,3080.3 2272.45,3077.32 2275.44,3077.32 2275.44,3074.33 2278.43,3074.33 2278.43,3071.35 2281.41,3071.35 2281.41,3065.37 2284.4,3065.37 2284.4,3062.38 2287.38,3062.38 2287.38,3056.41 2290.38,3056.41 2290.38,3053.43 2293.36,3053.43 2293.36,3047.45 2296.34,3047.45 2296.34,3041.48 2299.33,3041.48 2299.33,3035.51 2302.32,3035.51 2302.32,3026.55 2305.31,3026.55 2305.31,3020.57 2308.29,3020.57 2308.29,3008.63 2311.27,3008.63 2311.27,2999.67 2314.26,2999.67 2314.26,2990.71 2317.25,2990.71 2317.25,2984.74 2320.24,2984.74 2320.24,2966.81 2323.22,2966.81 2323.22,2954.87 2326.21,2954.87 2326.21,2942.93 2329.2,2942.93 2329.2,2919.03 2332.18,2919.03 2332.18,2904.1 2335.17,2904.1 2335.17,2883.19 2338.16,2883.19 2338.16,2853.33 2341.14,2853.33 2341.14,2793.6 2344.13,2793.6 2344.13,2635.31 2341.14,2635.31 2341.14,2459.11 2344.13,2459.11 2344.13,2435.21 2347.11,2435.21 2347.11,2417.3 2350.1,2417.3 2350.1,2402.37 2353.09,2402.37 2353.09,2387.43 2356.07,2387.43 2356.07,2372.5 2359.07,2372.5 2359.07,2363.54 2362.05,2363.54 2362.05,2354.58 2365.03,2354.58 2365.03,2345.62 2368.02,2345.62 2368.02,2336.67 2371.01,2336.67 2371.01,2330.69 2374,2330.69 2374,2327.7 2376.98,2327.7 2376.98,2321.74 2379.97,2321.74 2379.97,2318.74 2382.95,2318.74 2382.95,2315.76 2385.94,2315.76 2385.94,2312.77 2391.91,2312.77 2391.91,2309.79 2403.86,2309.79 2403.86,2306.8 2427.76,2306.8 2427.76,2309.79 2433.73,2309.79 2433.73,2312.77 2436.71,2312.77 2436.71,2315.76 2442.69,2315.76 2442.69,2318.74 2445.67,2318.74 2445.67,2324.72 2448.66,2324.72 2448.66,2327.7 2451.65,2327.7 2451.65,2333.67 2454.63,2333.67 2454.63,2336.67 2457.62,2336.67 2457.62,2345.62 2460.61,2345.62 2460.61,2354.58 2463.59,2354.58 2463.59,2363.54 2466.58,2363.54 2466.58,2381.46 2469.56,2381.46 2469.56,2402.37 2472.55,2402.37 2472.55,2435.21 2475.54,2435.21 2475.54,2483.01 2478.52,2483.01 2478.52,2554.68 2481.51,2554.68 2481.51,2889.17 2484.49,2889.17 2484.49,2990.71 2487.48,2990.71 2487.48,3068.36 2490.47,3068.36 2490.47,3116.14 2493.46,3116.14 2493.46,3143.02 2496.44,3143.02 2496.44,3160.94 2499.43,3160.94 2499.43,3193.79 2502.41,3193.79 2502.41,3214.7 2505.41,3214.7 2505.41,3223.66 2508.39,3223.66 2508.39,3235.6 2511.37,3235.6 2511.37,3247.55 2514.36,3247.55 2514.36,3259.49 2517.34,3259.49 2517.34,3265.47 2520.34,3265.47 2520.34,3277.41 2523.32,3277.41 2523.32,3283.39 2526.3,3283.39 2526.3,3289.36 2529.29,3289.36 2529.29,3295.33 2532.28,3295.33 2532.28,3301.3 2535.27,3301.3 2535.27,3310.26 2538.25,3310.26 2538.25,3316.24 2541.24,3316.24 2541.24,3322.21 2544.22,3322.21 2544.22,3328.18 2547.21,3328.18 2547.21,3334.16 2550.2,3334.16 2550.2,3337.14 2553.18,3337.14 2553.18,3343.12 2556.17,3343.12 2556.17,3346.1 2559.16,3346.1 2559.16,3352.08 2562.14,3352.08 2562.14,3358.05 2565.13,3358.05 2565.13,3361.04 2568.12,3361.04 2568.12,3367.01 2571.1,3367.01 2571.1,3370 2574.09,3370 2574.09,3372.98 2577.08,3372.98 2577.08,3375.97 2580.06,3375.97 2580.06,3381.94 2583.05,3381.94 2583.05,3384.93 2586.04,3384.93 2586.04,3387.91 2589.03,3387.91 2589.03,3390.9 2592.01,3390.9 2592.01,3393.89 2595,3393.89 2595,3396.87 2600.97,3396.87 2600.97,3399.86 2603.96,3399.86 2603.96,3402.85 2609.93,3402.85 2609.93,3405.84 2612.92,3405.84 2612.92,3408.82 2621.87,3408.82 2621.87,3411.8 2642.78,3411.8 2642.78,3378.96 2639.79,3378.96 2639.79,3372.98 2636.81,3372.98 2636.81,3367.01 2633.82,3367.01 2633.82,3361.04 2630.84,3361.04 2630.84,3355.06 2627.85,3355.06 2627.85,3349.09 2624.86,3349.09 2624.86,3343.12 2621.87,3343.12 2621.87,3337.14 2618.89,3337.14 2618.89,3331.17 2615.9,3331.17 2615.9,3325.2 2612.92,3325.2 2612.92,3319.22 2609.93,3319.22 2609.93,3313.25 2606.94,3313.25 2606.94,3304.29 2603.96,3304.29 2603.96,3298.32 2600.97,3298.32 2600.97,3289.36 2597.98,3289.36 2597.98,3280.4 2595,3280.4 2595,3274.43 2592.01,3274.43 2592.01,3259.49 2589.03,3259.49 2589.03,3253.52 2586.04,3253.52 2586.04,3238.59 2583.05,3238.59 2583.05,3226.64 2580.06,3226.64 2580.06,3214.7 2577.08,3214.7 2577.08,3205.74 2574.09,3205.74 2574.09,3190.81 2571.1,3190.81 2571.1,3175.87 2568.12,3175.87 2568.12,3157.95 2565.13,3157.95 2565.13,3134.06 2562.14,3134.06 2562.14,2996.68 2565.13,2996.68 2565.13,2972.79 2568.12,2972.79 2568.12,2942.93 2571.1,2942.93 2571.1,2925 2574.09,2925 2574.09,2913.06 2577.08,2913.06 2577.08,2895.14 2580.06,2895.14 2580.06,2865.27 2583.05,2865.27 2583.05,2847.36 2586.04,2847.36 2586.04,2826.45 2589.03,2826.45 2589.03,2793.6 2592.01,2793.6 2592.01,2769.71 2595,2769.71 2595,2683.1 2592.01,2683.1 2592.01,2659.21 2589.03,2659.21 2589.03,2644.28 2586.04,2644.28 2586.04,2626.36 2583.05,2626.36 2583.05,2605.45 2580.06,2605.45 2580.06,2584.54 2577.08,2584.54 2577.08,2569.61 2574.09,2569.61 2574.09,2405.35 2577.08,2405.35 2577.08,2393.41 2580.06,2393.41 2580.06,2381.46 2583.05,2381.46 2583.05,2369.51 2586.04,2369.51 2586.04,2360.55 2589.03,2360.55 2589.03,2351.6 2592.01,2351.6 2592.01,2345.62 2595,2345.62 2595,2339.65 2597.98,2339.65 2597.98,2333.67 2600.97,2333.67 2600.97,2330.69 2603.96,2330.69 2603.96,2327.7 2606.94,2327.7 2606.94,2321.74 2609.93,2321.74 2609.93,2318.74 2612.92,2318.74 2612.92,2315.76 2615.9,2315.76 2615.9,2312.77 2621.87,2312.77 2621.87,2309.79 2624.86,2309.79 2624.86,2306.8 2630.84,2306.8 2630.84,2303.81 2639.79,2303.81 2639.79,2300.82 2672.65,2300.82 2672.65,2303.81 2678.62,2303.81 2678.62,2306.8 2684.59,2306.8 2684.59,2309.79 2690.57,2309.79 2690.57,2312.77 2693.55,2312.77 2693.55,2315.76 2696.54,2315.76 2696.54,2318.74 2702.51,2318.74 2702.51,2321.74 2705.5,2321.74 2705.5,2324.72 2708.48,2324.72 2708.48,2330.69 2711.47,2330.69 2711.47,2333.67 2714.45,2333.67 2714.45,2336.67 2717.44,2336.67 2717.44,2342.63 2720.43,2342.63 2720.43,2345.62 2723.41,2345.62 2723.41,2351.6 2726.4,2351.6 2726.4,2357.57 2729.39,2357.57 2729.39,2363.54 2732.38,2363.54 2732.38,2372.5 2735.37,2372.5 2735.37,2381.46 2738.35,2381.46 2738.35,2393.41 2741.33,2393.41 2741.33,2405.35 2744.32,2405.35 2744.32,2423.27 2747.31,2423.27 2747.31,2506.89 2744.32,2506.89 2744.32,2542.73 2741.33,2542.73 2741.33,2566.63 2738.35,2566.63 2738.35,2578.57 2735.37,2578.57 2735.37,2596.49 2732.38,2596.49 2732.38,2608.44 2729.39,2608.44 2729.39,2629.34 2726.4,2629.34 2726.4,2650.24 2723.41,2650.24 2723.41,2674.14 2720.43,2674.14 2720.43,2960.84 2717.44,2960.84 2717.44,3214.7 2720.43,3214.7 2720.43,3262.48 2723.41,3262.48 2723.41,3295.33 2726.4,3295.33 2726.4,3319.22 2729.39,3319.22 2729.39,3343.12 2732.38,3343.12 2732.38,3352.08 2735.37,3352.08 2735.37,3372.98 2738.35,3372.98 2738.35,3390.9 2741.33,3390.9 2741.33,3399.86 2744.32,3399.86 2744.32,3414.79 2747.31,3414.79 2747.31,3423.75 2750.3,3423.75 2750.3,3438.69 2753.28,3438.69 2753.28,3450.63 2756.27,3450.63 2756.27,3459.59 2759.25,3459.59 2759.25,3468.55 2762.24,3468.55 2762.24,3474.52 2765.23,3474.52 2765.23,3483.48 2768.21,3483.48 2768.21,3495.43 2771.2,3495.43 2771.2,3504.39 2774.18,3504.39 2774.18,3510.36 2777.17,3510.36 2777.17,3516.33 2780.16,3516.33 2780.16,3525.29 2783.15,3525.29 2783.15,3531.27 2786.13,3531.27 2786.13,3537.24 2789.12,3537.24 2789.12,3546.2 2792.11,3546.2 2792.11,3552.17 2795.09,3552.17 2795.09,3558.14 2798.08,3558.14 2798.08,3564.12 2801.07,3564.12 2801.07,3570.09 2804.05,3570.09 2804.05,3576.07 2807.04,3576.07 2807.04,3582.04 2810.03,3582.04 2810.03,3585.02 2813.01,3585.02 2813.01,3591 2816,3591 2816,3596.97 2818.98,3596.97 2818.98,3602.95 2821.97,3602.95 2821.97,3605.93 2824.96,3605.93 2824.96,3611.9 2827.94,3611.9 2827.94,3614.89 2830.93,3614.89 2830.93,3620.87 2833.92,3620.87 2833.92,3626.83 2836.9,3626.83 2836.9,3629.82 2839.89,3629.82 2839.89,3632.81 2842.87,3632.81 2842.87,3638.78 2845.86,3638.78 2845.86,3641.76 2848.85,3641.76 2848.85,3647.74 2851.83,3647.74 2851.83,3650.73 2854.83,3650.73 2854.83,3653.71 2857.81,3653.71 2857.81,3659.68 2860.8,3659.68 2860.8,3662.67 2863.78,3662.67 2863.78,3665.66 2866.77,3665.66 2866.77,3671.63 2869.76,3671.63 2869.76,3674.62 2872.74,3674.62 2872.74,3677.6 2875.73,3677.6 2875.73,3680.59 2878.71,3680.59 2878.71,3683.58 2881.7,3683.58 2881.7,3686.56 2884.69,3686.56 2884.69,3689.55 2887.68,3689.55 2887.68,3692.54 2890.66,3692.54 2890.66,3695.52 2896.63,3695.52 2896.63,3698.51 2899.62,3698.51 2899.62,3701.5 2905.59,3701.5 2905.59,3704.48 2911.57,3704.48 2911.57,3707.47 2935.46,3707.47 2935.46,3704.48 2938.44,3704.48 2938.44,3692.54 2935.46,3692.54 2935.46,3677.6 2932.47,3677.6 2932.47,3671.63 2929.48,3671.63 2929.48,3665.66 2926.5,3665.66 2926.5,3659.68 2923.51,3659.68 2923.51,3656.7 2920.52,3656.7 2920.52,3650.73 2917.54,3650.73 2917.54,3644.75 2914.55,3644.75 2914.55,3641.76 2911.57,3641.76 2911.57,3635.8 2908.58,3635.8 2908.58,3629.82 2905.59,3629.82 2905.59,3626.83 2902.61,3626.83 2902.61,3620.87 2899.62,3620.87 2899.62,3614.89 2896.63,3614.89 2896.63,3611.9 2893.65,3611.9 2893.65,3605.93 2890.66,3605.93 2890.66,3599.95 2887.68,3599.95 2887.68,3593.98 2884.69,3593.98 2884.69,3588.01 2881.7,3588.01 2881.7,3582.04 2878.71,3582.04 2878.71,3576.07 2875.73,3576.07 2875.73,3570.09 2872.74,3570.09 2872.74,3564.12 2869.76,3564.12 2869.76,3558.14 2866.77,3558.14 2866.77,3546.2 2863.78,3546.2 2863.78,3540.23 2860.8,3540.23 2860.8,3534.25 2857.81,3534.25 2857.81,3522.31 2854.83,3522.31 2854.83,3516.33 2851.83,3516.33 2851.83,3507.37 2848.85,3507.37 2848.85,3498.41 2845.86,3498.41 2845.86,3486.47 2842.87,3486.47 2842.87,3471.54 2839.89,3471.54 2839.89,3462.57 2836.9,3462.57 2836.9,3450.63 2833.92,3450.63 2833.92,3444.66 2830.93,3444.66 2830.93,3432.71 2827.94,3432.71 2827.94,3420.77 2824.96,3420.77 2824.96,3405.84 2821.97,3405.84 2821.97,3390.9 2818.98,3390.9 2818.98,3372.98 2816,3372.98 2816,3358.05 2813.01,3358.05 2813.01,3343.12 2810.03,3343.12 2810.03,3325.2 2807.04,3325.2 2807.04,3301.3 2804.05,3301.3 2804.05,3289.36 2801.07,3289.36 2801.07,3259.49 2798.08,3259.49 2798.08,3217.68 2795.09,3217.68 2795.09,3065.37 2798.08,3065.37 2798.08,3008.63 2801.07,3008.63 2801.07,2978.76 2804.05,2978.76 2804.05,2954.87 2807.04,2954.87 2807.04,2945.91 2810.03,2945.91 2810.03,2927.99 2813.01,2927.99 2813.01,2922.02 2816,2922.02 2816,2913.06 2818.98,2913.06 2818.98,2907.09 2821.97,2907.09 2821.97,2898.12 2824.96,2898.12 2824.96,2892.15 2827.94,2892.15 2827.94,2886.18 2830.93,2886.18 2830.93,2883.19 2833.92,2883.19 2833.92,2877.22 2836.9,2877.22 2836.9,2871.25 2839.89,2871.25 2839.89,2865.27 2842.87,2865.27 2842.87,2862.29 2845.86,2862.29 2845.86,2856.32 2848.85,2856.32 2848.85,2850.34 2851.83,2850.34 2851.83,2847.36 2854.83,2847.36 2854.83,2841.39 2857.81,2841.39 2857.81,2838.39 2860.8,2838.39 2860.8,2832.42 2863.78,2832.42 2863.78,2826.45 2866.77,2826.45 2866.77,2823.46 2869.76,2823.46 2869.76,2817.49 2872.74,2817.49 2872.74,2811.52 2875.73,2811.52 2875.73,2805.55 2878.71,2805.55 2878.71,2769.71 2875.73,2769.71 2875.73,2760.75 2872.74,2760.75 2872.74,2751.79 2869.76,2751.79 2869.76,2745.81 2866.77,2745.81 2866.77,2739.84 2863.78,2739.84 2863.78,2736.85 2860.8,2736.85 2860.8,2730.88 2857.81,2730.88 2857.81,2724.91 2854.83,2724.91 2854.83,2721.92 2851.83,2721.92 2851.83,2715.95 2848.85,2715.95 2848.85,2709.98 2845.86,2709.98 2845.86,2704 2842.87,2704 2842.87,2698.03 2839.89,2698.03 2839.89,2692.06 2836.9,2692.06 2836.9,2680.11 2833.92,2680.11 2833.92,2674.14 2830.93,2674.14 2830.93,2659.21 2827.94,2659.21 2827.94,2641.29 2824.96,2641.29 2824.96,2530.78 2827.94,2530.78 2827.94,2483.01 2830.93,2483.01 2830.93,2423.27 2833.92,2423.27 2833.92,2378.47 2836.9,2378.47 2836.9,2354.58 2839.89,2354.58 2839.89,2330.69 2842.87,2330.69 2842.87,2303.81 2845.86,2303.81 2845.86,2250.06 2842.87,2250.06 2842.87,2244.08 2839.89,2244.08 2839.89,2238.11 2836.9,2238.11 2836.9,2232.14 2833.92,2232.14 2833.92,2226.16 2830.93,2226.16 2830.93,2223.18 2827.94,2223.18 2827.94,2220.19 2824.96,2220.19 2824.96,2214.22 2821.97,2214.22 2821.97,2211.23 2818.98,2211.23 2818.98,2208.24 2816,2208.24 2816,2205.25 2813.01,2205.25 2813.01,2202.27 2810.03,2202.27 2810.03,2199.28 2807.04,2199.28 2807.04,2196.3 2804.05,2196.3 2804.05,2193.31 2801.07,2193.31 2801.07,2190.32 2795.09,2190.32 2795.09,2187.34 2792.11,2187.34 2792.11,2184.35 2789.12,2184.35 2789.12,2181.36 2786.13,2181.36 2786.13,2178.38 2783.15,2178.38 2783.15,2175.39 2777.17,2175.39 2777.17,2172.4 2774.18,2172.4 2774.18,2169.42 2771.2,2169.42 2771.2,2166.43 2768.21,2166.43 2768.21,2163.44 2762.24,2163.44 2762.24,2160.46 2759.25,2160.46 2759.25,2157.47 2756.27,2157.47 2756.27,2154.49 2753.28,2154.49 2753.28,2151.5 2747.31,2151.5 2747.31,2148.51 2744.32,2148.51 2744.32,2145.53 2741.33,2145.53 2741.33,2142.54 2735.37,2142.54 2735.37,2139.55 2732.38,2139.55 2732.38,2136.57 2726.4,2136.57 2726.4,2133.58 2723.41,2133.58 2723.41,2130.59 2717.44,2130.59 2717.44,2127.6 2711.47,2127.6 2711.47,2124.62 2705.5,2124.62 2705.5,2121.64 2699.52,2121.64 2699.52,2118.65 2696.54,2118.65 2696.54,2115.66 2684.59,2115.66 2684.59,2112.67 2657.72,2112.67 "/>
   <polygon class="fil1" points="3819.47,2067.88 3810.5,2067.88 3810.5,2070.86 3804.53,2070.86 3804.53,2073.84 3798.56,2073.84 3798.56,2076.84 3795.57,2076.84 3795.57,2079.83 3792.59,2079.83 3792.59,2082.81 3789.6,2082.81 3789.6,2085.8 3786.61,2085.8 3786.61,2088.78 3783.63,2088.78 3783.63,2091.77 3780.64,2091.77 3780.64,2094.76 3777.65,2094.76 3777.65,2100.73 3774.67,2100.73 3774.67,2103.71 3771.68,2103.71 3771.68,2106.71 3768.69,2106.71 3768.69,2112.67 3765.71,2112.67 3765.71,2115.66 3762.72,2115.66 3762.72,2121.64 3759.73,2121.64 3759.73,2124.62 3756.75,2124.62 3756.75,2127.6 3753.76,2127.6 3753.76,2130.59 3750.77,2130.59 3750.77,2133.58 3747.79,2133.58 3747.79,2136.57 3744.8,2136.57 3744.8,2139.55 3741.82,2139.55 3741.82,2142.54 3738.83,2142.54 3738.83,2145.53 3729.87,2145.53 3729.87,2148.51 3714.93,2148.51 3714.93,2145.53 3705.97,2145.53 3705.97,2142.54 3700,2142.54 3700,2139.55 3694.03,2139.55 3694.03,2136.57 3688.06,2136.57 3688.06,2133.58 3682.09,2133.58 3682.09,2130.59 3667.15,2130.59 3667.15,2127.6 3649.23,2127.6 3649.23,2130.59 3634.3,2130.59 3634.3,2133.58 3625.34,2133.58 3625.34,2136.57 3619.37,2136.57 3619.37,2139.55 3613.39,2139.55 3613.39,2142.54 3610.4,2142.54 3610.4,2145.53 3607.42,2145.53 3607.42,2148.51 3604.44,2148.51 3604.44,2151.5 3601.45,2151.5 3601.45,2154.49 3598.46,2154.49 3598.46,2160.46 3595.47,2160.46 3595.47,2163.44 3592.49,2163.44 3592.49,2169.42 3589.5,2169.42 3589.5,2178.38 3586.52,2178.38 3586.52,2190.32 3583.53,2190.32 3583.53,2202.27 3580.54,2202.27 3580.54,2276.94 3583.53,2276.94 3583.53,2291.87 3586.52,2291.87 3586.52,2351.6 3589.5,2351.6 3589.5,2420.28 3592.49,2420.28 3592.49,2459.11 3595.47,2459.11 3595.47,2614.41 3592.49,2614.41 3592.49,2641.29 3589.5,2641.29 3589.5,2668.16 3586.52,2668.16 3586.52,2680.11 3583.53,2680.11 3583.53,2689.07 3580.54,2689.07 3580.54,2704 3577.56,2704 3577.56,2709.98 3574.57,2709.98 3574.57,2721.92 3571.58,2721.92 3571.58,2727.9 3568.6,2727.9 3568.6,2736.85 3565.61,2736.85 3565.61,2742.83 3562.63,2742.83 3562.63,2751.79 3559.64,2751.79 3559.64,2757.76 3556.65,2757.76 3556.65,2763.73 3553.67,2763.73 3553.67,2772.69 3550.68,2772.69 3550.68,2781.66 3547.69,2781.66 3547.69,2793.6 3544.71,2793.6 3544.71,2799.57 3541.72,2799.57 3541.72,2826.45 3544.71,2826.45 3544.71,2832.42 3547.69,2832.42 3547.69,2838.39 3550.68,2838.39 3550.68,2844.37 3553.67,2844.37 3553.67,2850.34 3556.65,2850.34 3556.65,2856.32 3559.64,2856.32 3559.64,2862.29 3562.63,2862.29 3562.63,2868.26 3565.61,2868.26 3565.61,2874.24 3568.6,2874.24 3568.6,2880.2 3571.58,2880.2 3571.58,2886.18 3574.57,2886.18 3574.57,2892.15 3577.56,2892.15 3577.56,2901.11 3580.54,2901.11 3580.54,2913.06 3583.53,2913.06 3583.53,2919.03 3586.52,2919.03 3586.52,2930.98 3589.5,2930.98 3589.5,2936.95 3592.49,2936.95 3592.49,2948.9 3595.47,2948.9 3595.47,2960.84 3598.46,2960.84 3598.46,2984.74 3601.45,2984.74 3601.45,2996.68 3604.44,2996.68 3604.44,3014.6 3607.42,3014.6 3607.42,3032.52 3610.4,3032.52 3610.4,3056.41 3613.39,3056.41 3613.39,3068.36 3616.38,3068.36 3616.38,3208.73 3613.39,3208.73 3613.39,3238.59 3610.4,3238.59 3610.4,3259.49 3607.42,3259.49 3607.42,3271.44 3604.44,3271.44 3604.44,3295.33 3601.45,3295.33 3601.45,3307.28 3598.46,3307.28 3598.46,3319.22 3595.47,3319.22 3595.47,3334.16 3592.49,3334.16 3592.49,3349.09 3589.5,3349.09 3589.5,3361.04 3586.52,3361.04 3586.52,3375.97 3583.53,3375.97 3583.53,3384.93 3580.54,3384.93 3580.54,3396.87 3577.56,3396.87 3577.56,3408.82 3574.57,3408.82 3574.57,3414.79 3571.58,3414.79 3571.58,3426.73 3568.6,3426.73 3568.6,3432.71 3565.61,3432.71 3565.61,3444.66 3562.63,3444.66 3562.63,3450.63 3559.64,3450.63 3559.64,3459.59 3556.65,3459.59 3556.65,3471.54 3553.67,3471.54 3553.67,3474.52 3550.68,3474.52 3550.68,3486.47 3547.69,3486.47 3547.69,3492.44 3544.71,3492.44 3544.71,3498.41 3541.72,3498.41 3541.72,3504.39 3538.73,3504.39 3538.73,3510.36 3535.75,3510.36 3535.75,3519.32 3532.76,3519.32 3532.76,3525.29 3529.77,3525.29 3529.77,3531.27 3526.79,3531.27 3526.79,3537.24 3523.8,3537.24 3523.8,3543.21 3520.81,3543.21 3520.81,3549.19 3517.83,3549.19 3517.83,3555.16 3514.84,3555.16 3514.84,3561.13 3511.86,3561.13 3511.86,3567.11 3508.87,3567.11 3508.87,3573.08 3505.88,3573.08 3505.88,3579.05 3502.89,3579.05 3502.89,3588.01 3499.91,3588.01 3499.91,3591 3496.93,3591 3496.93,3596.97 3493.93,3596.97 3493.93,3602.95 3490.95,3602.95 3490.95,3605.93 3487.96,3605.93 3487.96,3611.9 3484.98,3611.9 3484.98,3617.88 3482,3617.88 3482,3620.87 3479,3620.87 3479,3626.83 3476.01,3626.83 3476.01,3629.82 3473.03,3629.82 3473.03,3635.8 3470.04,3635.8 3470.04,3638.78 3467.06,3638.78 3467.06,3641.76 3464.07,3641.76 3464.07,3647.74 3461.08,3647.74 3461.08,3650.73 3458.1,3650.73 3458.1,3656.7 3455.11,3656.7 3455.11,3659.68 3452.13,3659.68 3452.13,3662.67 3449.13,3662.67 3449.13,3668.65 3446.15,3668.65 3446.15,3671.63 3443.17,3671.63 3443.17,3674.62 3440.18,3674.62 3440.18,3680.59 3437.19,3680.59 3437.19,3683.58 3434.2,3683.58 3434.2,3689.55 3431.22,3689.55 3431.22,3695.52 3428.24,3695.52 3428.24,3701.5 3425.25,3701.5 3425.25,3728.38 3428.24,3728.38 3428.24,3725.39 3437.19,3725.39 3437.19,3728.38 3446.15,3728.38 3446.15,3725.39 3452.13,3725.39 3452.13,3722.4 3455.11,3722.4 3455.11,3719.41 3461.08,3719.41 3461.08,3716.43 3464.07,3716.43 3464.07,3713.44 3467.06,3713.44 3467.06,3710.46 3470.04,3710.46 3470.04,3707.47 3476.01,3707.47 3476.01,3704.48 3479,3704.48 3479,3701.5 3482,3701.5 3482,3698.51 3484.98,3698.51 3484.98,3695.52 3487.96,3695.52 3487.96,3689.55 3490.95,3689.55 3490.95,3686.56 3493.93,3686.56 3493.93,3683.58 3496.93,3683.58 3496.93,3680.59 3499.91,3680.59 3499.91,3677.6 3502.89,3677.6 3502.89,3674.62 3505.88,3674.62 3505.88,3671.63 3508.87,3671.63 3508.87,3665.66 3511.86,3665.66 3511.86,3662.67 3514.84,3662.67 3514.84,3659.68 3517.83,3659.68 3517.83,3653.71 3520.81,3653.71 3520.81,3650.73 3523.8,3650.73 3523.8,3647.74 3526.79,3647.74 3526.79,3641.76 3529.77,3641.76 3529.77,3638.78 3532.76,3638.78 3532.76,3632.81 3535.75,3632.81 3535.75,3629.82 3538.73,3629.82 3538.73,3623.85 3541.72,3623.85 3541.72,3620.87 3544.71,3620.87 3544.71,3614.89 3547.69,3614.89 3547.69,3608.92 3550.68,3608.92 3550.68,3605.93 3553.67,3605.93 3553.67,3599.95 3556.65,3599.95 3556.65,3596.97 3559.64,3596.97 3559.64,3591 3562.63,3591 3562.63,3585.02 3565.61,3585.02 3565.61,3579.05 3568.6,3579.05 3568.6,3576.07 3571.58,3576.07 3571.58,3570.09 3574.57,3570.09 3574.57,3564.12 3577.56,3564.12 3577.56,3558.14 3580.54,3558.14 3580.54,3552.17 3583.53,3552.17 3583.53,3546.2 3586.52,3546.2 3586.52,3543.21 3589.5,3543.21 3589.5,3537.24 3592.49,3537.24 3592.49,3531.27 3595.47,3531.27 3595.47,3525.29 3598.46,3525.29 3598.46,3519.32 3601.45,3519.32 3601.45,3513.35 3604.44,3513.35 3604.44,3507.37 3607.42,3507.37 3607.42,3501.4 3610.4,3501.4 3610.4,3495.43 3613.39,3495.43 3613.39,3489.45 3616.38,3489.45 3616.38,3480.49 3619.37,3480.49 3619.37,3474.52 3622.36,3474.52 3622.36,3468.55 3625.34,3468.55 3625.34,3462.57 3628.33,3462.57 3628.33,3456.6 3631.31,3456.6 3631.31,3450.63 3634.3,3450.63 3634.3,3441.67 3637.29,3441.67 3637.29,3435.7 3640.27,3435.7 3640.27,3429.72 3643.26,3429.72 3643.26,3423.75 3646.24,3423.75 3646.24,3414.79 3649.23,3414.79 3649.23,3408.82 3652.22,3408.82 3652.22,3399.86 3655.21,3399.86 3655.21,3390.9 3658.2,3390.9 3658.2,3384.93 3661.18,3384.93 3661.18,3375.97 3664.16,3375.97 3664.16,3370 3667.15,3370 3667.15,3358.05 3670.14,3358.05 3670.14,3352.08 3673.13,3352.08 3673.13,3343.12 3676.11,3343.12 3676.11,3334.16 3679.09,3334.16 3679.09,3319.22 3682.09,3319.22 3682.09,3313.25 3685.07,3313.25 3685.07,3301.3 3688.06,3301.3 3688.06,3286.37 3691.04,3286.37 3691.04,3271.44 3694.03,3271.44 3694.03,3253.52 3697.02,3253.52 3697.02,3241.58 3700,3241.58 3700,3223.66 3702.99,3223.66 3702.99,3211.71 3705.97,3211.71 3705.97,3193.79 3708.96,3193.79 3708.96,3157.95 3711.96,3157.95 3711.96,3128.08 3714.93,3128.08 3714.93,3098.22 3717.92,3098.22 3717.92,2898.12 3714.93,2898.12 3714.93,2853.33 3711.96,2853.33 3711.96,2566.63 3708.96,2566.63 3708.96,2542.73 3705.97,2542.73 3705.97,2474.04 3702.99,2474.04 3702.99,2387.43 3705.97,2387.43 3705.97,2363.54 3708.96,2363.54 3708.96,2351.6 3711.96,2351.6 3711.96,2339.65 3714.93,2339.65 3714.93,2333.67 3717.92,2333.67 3717.92,2327.7 3720.91,2327.7 3720.91,2321.74 3723.89,2321.74 3723.89,2318.74 3726.89,2318.74 3726.89,2312.77 3729.87,2312.77 3729.87,2306.8 3732.85,2306.8 3732.85,2303.81 3735.84,2303.81 3735.84,2300.82 3738.83,2300.82 3738.83,2294.85 3741.82,2294.85 3741.82,2291.87 3744.8,2291.87 3744.8,2288.88 3747.79,2288.88 3747.79,2285.89 3750.77,2285.89 3750.77,2282.91 3753.76,2282.91 3753.76,2279.92 3756.75,2279.92 3756.75,2276.94 3759.73,2276.94 3759.73,2273.94 3762.72,2273.94 3762.72,2270.96 3765.71,2270.96 3765.71,2267.98 3768.69,2267.98 3768.69,2264.99 3771.68,2264.99 3771.68,2262 3774.67,2262 3774.67,2259.01 3780.64,2259.01 3780.64,2256.03 3783.63,2256.03 3783.63,2253.04 3786.61,2253.04 3786.61,2250.06 3789.6,2250.06 3789.6,2247.07 3795.57,2247.07 3795.57,2244.08 3798.56,2244.08 3798.56,2241.09 3801.55,2241.09 3801.55,2238.11 3807.52,2238.11 3807.52,2235.12 3810.5,2235.12 3810.5,2232.14 3816.48,2232.14 3816.48,2229.15 3819.47,2229.15 3819.47,2226.16 3825.43,2226.16 3825.43,2223.18 3828.42,2223.18 3828.42,2220.19 3834.4,2220.19 3834.4,2217.2 3837.38,2217.2 3837.38,2214.22 3843.35,2214.22 3843.35,2211.23 3846.34,2211.23 3846.34,2208.24 3852.32,2208.24 3852.32,2205.25 3855.3,2205.25 3855.3,2202.27 3861.27,2202.27 3861.27,2199.28 3864.26,2199.28 3864.26,2196.3 3870.23,2196.3 3870.23,2193.31 3873.22,2193.31 3873.22,2190.32 3879.19,2190.32 3879.19,2187.34 3882.18,2187.34 3882.18,2184.35 3885.17,2184.35 3885.17,2181.36 3888.16,2181.36 3888.16,2178.38 3891.14,2178.38 3891.14,2175.39 3894.12,2175.39 3894.12,2172.4 3897.11,2172.4 3897.11,2169.42 3900.1,2169.42 3900.1,2166.43 3903.09,2166.43 3903.09,2163.44 3906.07,2163.44 3906.07,2160.46 3909.06,2160.46 3909.06,2154.49 3912.04,2154.49 3912.04,2148.51 3915.03,2148.51 3915.03,2115.66 3912.04,2115.66 3912.04,2106.71 3909.06,2106.71 3909.06,2100.73 3906.07,2100.73 3906.07,2097.74 3903.09,2097.74 3903.09,2094.76 3900.1,2094.76 3900.1,2091.77 3897.11,2091.77 3897.11,2088.78 3894.12,2088.78 3894.12,2085.8 3891.14,2085.8 3891.14,2082.81 3888.16,2082.81 3888.16,2079.83 3882.18,2079.83 3882.18,2076.84 3879.19,2076.84 3879.19,2073.84 3873.22,2073.84 3873.22,2070.86 3867.25,2070.86 3867.25,2067.88 3855.3,2067.88 3855.3,2064.89 3819.47,2064.89 "/>
   <polygon class="fil1" points="4043.45,2112.67 4028.52,2112.67 4028.52,2115.66 4022.55,2115.66 4022.55,2118.65 4016.58,2118.65 4016.58,2121.64 4010.6,2121.64 4010.6,2124.62 4004.63,2124.62 4004.63,2127.6 4001.64,2127.6 4001.64,2130.59 3995.67,2130.59 3995.67,2133.58 3992.68,2133.58 3992.68,2136.57 3986.71,2136.57 3986.71,2139.55 3983.72,2139.55 3983.72,2142.54 3980.74,2142.54 3980.74,2145.53 3977.75,2145.53 3977.75,2148.51 3974.76,2148.51 3974.76,2151.5 3971.78,2151.5 3971.78,2154.49 3968.79,2154.49 3968.79,2157.47 3965.8,2157.47 3965.8,2160.46 3962.82,2160.46 3962.82,2166.43 3959.83,2166.43 3959.83,2172.4 3956.85,2172.4 3956.85,2187.34 3953.86,2187.34 3953.86,2211.23 3956.85,2211.23 3956.85,2229.15 3959.83,2229.15 3959.83,2244.08 3962.82,2244.08 3962.82,2256.03 3965.8,2256.03 3965.8,2267.98 3968.79,2267.98 3968.79,2285.89 3971.78,2285.89 3971.78,2459.11 3974.76,2459.11 3974.76,2477.03 3977.75,2477.03 3977.75,2488.97 3980.74,2488.97 3980.74,2494.95 3983.72,2494.95 3983.72,2506.89 3986.71,2506.89 3986.71,2521.83 3989.7,2521.83 3989.7,2554.68 3986.71,2554.68 3986.71,2560.65 3983.72,2560.65 3983.72,2569.61 3980.74,2569.61 3980.74,2575.58 3977.75,2575.58 3977.75,2578.57 3974.76,2578.57 3974.76,2584.54 3971.78,2584.54 3971.78,2587.53 3968.79,2587.53 3968.79,2590.52 3965.8,2590.52 3965.8,2593.5 3962.82,2593.5 3962.82,2599.48 3956.85,2599.48 3956.85,2602.46 3953.86,2602.46 3953.86,2605.45 3950.87,2605.45 3950.87,2608.44 3947.88,2608.44 3947.88,2611.42 3944.9,2611.42 3944.9,2614.41 3941.91,2614.41 3941.91,2617.4 3938.92,2617.4 3938.92,2620.38 3935.94,2620.38 3935.94,2623.37 3932.95,2623.37 3932.95,2626.36 3929.96,2626.36 3929.96,2629.34 3926.98,2629.34 3926.98,2632.33 3923.99,2632.33 3923.99,2635.31 3921,2635.31 3921,2641.29 3918.02,2641.29 3918.02,2662.19 3921,2662.19 3921,2668.16 3923.99,2668.16 3923.99,2671.16 3926.98,2671.16 3926.98,2674.14 3929.96,2674.14 3929.96,2677.13 3932.95,2677.13 3932.95,2680.11 3935.94,2680.11 3935.94,2683.1 3938.92,2683.1 3938.92,2686.08 3944.9,2686.08 3944.9,2689.07 3947.88,2689.07 3947.88,2692.06 3950.87,2692.06 3950.87,2695.04 3953.86,2695.04 3953.86,2698.03 3956.85,2698.03 3956.85,2704 3959.83,2704 3959.83,2709.98 3962.82,2709.98 3962.82,2715.95 3965.8,2715.95 3965.8,2730.88 3968.79,2730.88 3968.79,2745.81 3971.78,2745.81 3971.78,2763.73 3974.76,2763.73 3974.76,2802.56 3977.75,2802.56 3977.75,2817.49 3980.74,2817.49 3980.74,2901.11 3983.72,2901.11 3983.72,2936.95 3986.71,2936.95 3986.71,2999.67 3983.72,2999.67 3983.72,3032.52 3980.74,3032.52 3980.74,3056.41 3977.75,3056.41 3977.75,3074.33 3974.76,3074.33 3974.76,3086.28 3971.78,3086.28 3971.78,3098.22 3968.79,3098.22 3968.79,3110.17 3965.8,3110.17 3965.8,3122.11 3962.82,3122.11 3962.82,3128.08 3959.83,3128.08 3959.83,3143.02 3956.85,3143.02 3956.85,3151.98 3953.86,3151.98 3953.86,3163.93 3950.87,3163.93 3950.87,3169.9 3947.88,3169.9 3947.88,3181.84 3944.9,3181.84 3944.9,3208.73 3965.8,3208.73 3965.8,3205.74 3971.78,3205.74 3971.78,3202.75 3974.76,3202.75 3974.76,3199.76 3980.74,3199.76 3980.74,3196.77 3983.72,3196.77 3983.72,3193.79 3986.71,3193.79 3986.71,3190.81 3989.7,3190.81 3989.7,3187.82 3992.68,3187.82 3992.68,3181.84 3995.67,3181.84 3995.67,3178.86 3998.65,3178.86 3998.65,3172.89 4001.64,3172.89 4001.64,3169.9 4004.63,3169.9 4004.63,3163.93 4007.61,3163.93 4007.61,3157.95 4010.6,3157.95 4010.6,3151.98 4013.58,3151.98 4013.58,3148.99 4016.58,3148.99 4016.58,3143.02 4019.56,3143.02 4019.56,3134.06 4022.55,3134.06 4022.55,3128.08 4025.53,3128.08 4025.53,3122.11 4028.52,3122.11 4028.52,3113.15 4031.51,3113.15 4031.51,3104.2 4034.5,3104.2 4034.5,3101.21 4037.48,3101.21 4037.48,3089.27 4040.46,3089.27 4040.46,3080.3 4043.45,3080.3 4043.45,3074.33 4046.44,3074.33 4046.44,3062.38 4049.43,3062.38 4049.43,3050.44 4052.41,3050.44 4052.41,3041.48 4055.39,3041.48 4055.39,3032.52 4058.38,3032.52 4058.38,3020.57 4061.37,3020.57 4061.37,3008.63 4064.36,3008.63 4064.36,2996.68 4067.34,2996.68 4067.34,2984.74 4070.33,2984.74 4070.33,2966.81 4073.31,2966.81 4073.31,2948.9 4076.3,2948.9 4076.3,2925 4079.29,2925 4079.29,2751.79 4082.28,2751.79 4082.28,2727.9 4085.26,2727.9 4085.26,2715.95 4088.25,2715.95 4088.25,2706.99 4091.24,2706.99 4091.24,2701.01 4094.22,2701.01 4094.22,2695.04 4097.21,2695.04 4097.21,2692.06 4100.19,2692.06 4100.19,2689.07 4103.18,2689.07 4103.18,2686.08 4106.17,2686.08 4106.17,2683.1 4109.15,2683.1 4109.15,2680.11 4112.14,2680.11 4112.14,2677.13 4115.13,2677.13 4115.13,2674.14 4121.1,2674.14 4121.1,2671.16 4124.09,2671.16 4124.09,2668.16 4130.06,2668.16 4130.06,2665.17 4133.05,2665.17 4133.05,2662.19 4136.03,2662.19 4136.03,2659.21 4142.01,2659.21 4142.01,2653.23 4144.99,2653.23 4144.99,2635.31 4142.01,2635.31 4142.01,2629.34 4139.02,2629.34 4139.02,2623.37 4136.03,2623.37 4136.03,2617.4 4133.05,2617.4 4133.05,2614.41 4130.06,2614.41 4130.06,2608.44 4127.07,2608.44 4127.07,2602.46 4124.09,2602.46 4124.09,2599.48 4121.1,2599.48 4121.1,2596.49 4118.12,2596.49 4118.12,2593.5 4115.13,2593.5 4115.13,2587.53 4112.14,2587.53 4112.14,2581.56 4109.15,2581.56 4109.15,2578.57 4106.17,2578.57 4106.17,2572.6 4103.18,2572.6 4103.18,2566.63 4100.19,2566.63 4100.19,2557.66 4097.21,2557.66 4097.21,2548.71 4094.22,2548.71 4094.22,2536.77 4091.24,2536.77 4091.24,2518.84 4088.25,2518.84 4088.25,2471.05 4085.26,2471.05 4085.26,2435.21 4082.28,2435.21 4082.28,2399.38 4079.29,2399.38 4079.29,2297.84 4082.28,2297.84 4082.28,2285.89 4085.26,2285.89 4085.26,2279.92 4088.25,2279.92 4088.25,2267.98 4091.24,2267.98 4091.24,2262 4094.22,2262 4094.22,2256.03 4097.21,2256.03 4097.21,2250.06 4100.19,2250.06 4100.19,2244.08 4103.18,2244.08 4103.18,2238.11 4106.17,2238.11 4106.17,2235.12 4109.15,2235.12 4109.15,2229.15 4112.14,2229.15 4112.14,2223.18 4115.13,2223.18 4115.13,2220.19 4118.12,2220.19 4118.12,2217.2 4121.1,2217.2 4121.1,2211.23 4124.09,2211.23 4124.09,2208.24 4127.07,2208.24 4127.07,2205.25 4130.06,2205.25 4130.06,2199.28 4133.05,2199.28 4133.05,2196.3 4136.03,2196.3 4136.03,2190.32 4139.02,2190.32 4139.02,2184.35 4142.01,2184.35 4142.01,2178.38 4144.99,2178.38 4144.99,2157.47 4142.01,2157.47 4142.01,2154.49 4139.02,2154.49 4139.02,2148.51 4136.03,2148.51 4136.03,2145.53 4130.06,2145.53 4130.06,2142.54 4127.07,2142.54 4127.07,2139.55 4121.1,2139.55 4121.1,2136.57 4118.12,2136.57 4118.12,2133.58 4112.14,2133.58 4112.14,2130.59 4106.17,2130.59 4106.17,2127.6 4100.19,2127.6 4100.19,2124.62 4094.22,2124.62 4094.22,2121.64 4091.24,2121.64 4091.24,2118.65 4085.26,2118.65 4085.26,2115.66 4076.3,2115.66 4076.3,2112.67 4073.31,2112.67 4073.31,2109.69 4043.45,2109.69 "/>
   <polygon class="fil1" points="4034.5,1790.13 4028.52,1790.13 4028.52,1793.12 4025.53,1793.12 4025.53,1796.1 4022.55,1796.1 4022.55,1799.09 4019.56,1799.09 4019.56,1802.08 4016.58,1802.08 4016.58,1805.07 4013.58,1805.07 4013.58,1808.05 4010.6,1808.05 4010.6,1811.04 4007.61,1811.04 4007.61,1814.02 4004.63,1814.02 4004.63,1817.01 4001.64,1817.01 4001.64,1820 3998.65,1820 3998.65,1825.97 3995.67,1825.97 3995.67,1828.95 3992.68,1828.95 3992.68,1831.94 3989.7,1831.94 3989.7,1837.92 3986.71,1837.92 3986.71,1840.9 3983.72,1840.9 3983.72,1846.88 3980.74,1846.88 3980.74,1849.86 3977.75,1849.86 3977.75,1855.84 3974.76,1855.84 3974.76,1861.81 3971.78,1861.81 3971.78,1864.8 3968.79,1864.8 3968.79,1873.75 3965.8,1873.75 3965.8,1879.73 3962.82,1879.73 3962.82,1885.7 3959.83,1885.7 3959.83,1912.58 3962.82,1912.58 3962.82,1915.57 3965.8,1915.57 3965.8,1918.55 3968.79,1918.55 3968.79,1924.53 3971.78,1924.53 3971.78,1927.51 3974.76,1927.51 3974.76,1930.5 3977.75,1930.5 3977.75,1933.48 3980.74,1933.48 3980.74,1936.47 3983.72,1936.47 3983.72,1939.46 3986.71,1939.46 3986.71,1942.44 3989.7,1942.44 3989.7,1945.43 3995.67,1945.43 3995.67,1948.42 3998.65,1948.42 3998.65,1951.4 4001.64,1951.4 4001.64,1954.39 4004.63,1954.39 4004.63,1957.38 4010.6,1957.38 4010.6,1960.36 4013.58,1960.36 4013.58,1963.35 4019.56,1963.35 4019.56,1966.33 4025.53,1966.33 4025.53,1969.32 4031.51,1969.32 4031.51,1972.31 4043.45,1972.31 4043.45,1975.29 4061.37,1975.29 4061.37,1972.31 4067.34,1972.31 4067.34,1969.32 4073.31,1969.32 4073.31,1966.33 4076.3,1966.33 4076.3,1963.35 4079.29,1963.35 4079.29,1957.38 4082.28,1957.38 4082.28,1954.39 4085.26,1954.39 4085.26,1951.4 4088.25,1951.4 4088.25,1948.42 4091.24,1948.42 4091.24,1942.44 4094.22,1942.44 4094.22,1939.46 4097.21,1939.46 4097.21,1936.47 4100.19,1936.47 4100.19,1933.48 4103.18,1933.48 4103.18,1927.51 4106.17,1927.51 4106.17,1924.53 4109.15,1924.53 4109.15,1918.55 4112.14,1918.55 4112.14,1915.57 4115.13,1915.57 4115.13,1912.58 4118.12,1912.58 4118.12,1906.6 4121.1,1906.6 4121.1,1903.62 4124.09,1903.62 4124.09,1897.64 4127.07,1897.64 4127.07,1894.66 4130.06,1894.66 4130.06,1888.69 4133.05,1888.69 4133.05,1885.7 4136.03,1885.7 4136.03,1879.73 4139.02,1879.73 4139.02,1876.74 4142.01,1876.74 4142.01,1870.77 4144.99,1870.77 4144.99,1864.8 4147.98,1864.8 4147.98,1861.81 4150.97,1861.81 4150.97,1834.93 4147.98,1834.93 4147.98,1828.95 4144.99,1828.95 4144.99,1825.97 4142.01,1825.97 4142.01,1822.98 4139.02,1822.98 4139.02,1820 4133.05,1820 4133.05,1817.01 4127.07,1817.01 4127.07,1814.02 4121.1,1814.02 4121.1,1811.04 4112.14,1811.04 4112.14,1808.05 4106.17,1808.05 4106.17,1805.07 4100.19,1805.07 4100.19,1802.08 4091.24,1802.08 4091.24,1799.09 4085.26,1799.09 4085.26,1796.1 4082.28,1796.1 4082.28,1793.12 4073.31,1793.12 4073.31,1790.13 4064.36,1790.13 4064.36,1787.15 4034.5,1787.15 "/>
   <polygon class="fil2" points="3440.18,3728.38 3437.19,3728.38 3437.19,3725.39 3428.24,3725.39 3428.24,3728.38 3425.25,3728.38 3425.25,3707.47 3422.26,3707.47 3422.26,3710.46 3416.28,3710.46 3416.28,3728.38 3419.27,3728.38 3419.27,3731.36 3422.26,3731.36 3422.26,3734.34 3434.2,3734.34 3434.2,3731.36 3440.18,3731.36 "/>
   <polygon class="fil3" points="3078.81,1079.34 3084.78,1079.34 3084.78,1073.37 3081.79,1073.37 3081.79,1076.36 3078.81,1076.36 "/>
  </g>
 </g>
</svg>
