<?xml version="1.0" encoding="UTF-8"?>
<!DOCTYPE svg PUBLIC "-//W3C//DTD SVG 1.1//EN" "http://www.w3.org/Graphics/SVG/1.1/DTD/svg11.dtd">
<!-- Creator: CorelDRAW -->
<svg xmlns="http://www.w3.org/2000/svg" xml:space="preserve" width="2.89622in" height="4.92098in" version="1.1" style="shape-rendering:geometricPrecision; text-rendering:geometricPrecision; image-rendering:optimizeQuality; fill-rule:evenodd; clip-rule:evenodd"
viewBox="0 0 2456.98 4174.66"
 xmlns:xlink="http://www.w3.org/1999/xlink"
 xmlns:xodm="http://www.corel.com/coreldraw/odm/2003">
 <defs>
  <style type="text/css">
   <![CDATA[
    .fil2 {fill:#898988}
    .fil1 {fill:#E9E9E7}
    .fil0 {fill:#FEFEFE}
   ]]>
  </style>
 </defs>
 <g id="Layer_x0020_1">
  <metadata id="CorelCorpID_0Corel-Layer"/>
  <g id="_2785865809664">
   <polygon class="fil0" points="1470.34,489.2 1470.34,486.45 1473.09,486.45 1473.09,483.7 1478.59,483.7 1478.59,480.96 1484.08,480.96 1484.08,478.2 1486.83,478.2 1486.83,475.45 1492.33,475.45 1492.33,472.71 1495.08,472.71 1495.08,469.96 1497.82,469.96 1497.82,467.21 1500.57,467.21 1500.57,464.46 1503.32,464.46 1503.32,461.71 1506.07,461.71 1506.07,458.97 1508.82,458.97 1508.82,453.47 1511.57,453.47 1511.57,447.97 1514.31,447.97 1514.31,434.23 1511.57,434.23 1511.57,428.73 1508.82,428.73 1508.82,425.99 1506.07,425.99 1506.07,423.24 1503.32,423.24 1503.32,420.49 1500.57,420.49 1500.57,417.74 1495.08,417.74 1495.08,414.99 1492.33,414.99 1492.33,412.25 1489.58,412.25 1489.58,409.5 1486.83,409.5 1486.83,406.75 1484.08,406.75 1484.08,404 1481.33,404 1481.33,398.51 1478.59,398.51 1478.59,395.76 1475.84,395.76 1475.84,390.26 1473.09,390.26 1473.09,382.02 1470.34,382.02 1470.34,373.77 1467.59,373.77 1467.59,368.27 1464.84,368.27 1464.84,351.78 1462.1,351.78 1462.1,338.04 1459.35,338.04 1459.35,324.3 1456.6,324.3 1456.6,302.32 1453.85,302.32 1453.85,274.84 1451.1,274.84 1451.1,175.9 1453.85,175.9 1453.85,162.15 1456.6,162.15 1456.6,145.66 1459.35,145.66 1459.35,137.41 1462.1,137.41 1462.1,123.67 1464.84,123.67 1464.84,115.43 1467.59,115.43 1467.59,104.44 1470.34,104.44 1470.34,93.44 1473.09,93.44 1473.09,85.2 1475.84,85.2 1475.84,74.21 1478.59,74.21 1478.59,65.96 1481.33,65.96 1481.33,54.97 1484.08,54.97 1484.08,43.98 1486.83,43.98 1486.83,5.5 1484.08,5.5 1484.08,2.75 1481.33,2.75 1481.33,0 1459.35,0 1459.35,2.75 1451.1,2.75 1451.1,5.5 1448.35,5.5 1448.35,8.25 1445.61,8.25 1445.61,11 1440.11,11 1440.11,13.74 1437.36,13.74 1437.36,19.24 1434.61,19.24 1434.61,21.99 1431.86,21.99 1431.86,24.74 1429.12,24.74 1429.12,30.23 1426.37,30.23 1426.37,32.98 1423.62,32.98 1423.62,38.48 1420.87,38.48 1420.87,43.98 1418.12,43.98 1418.12,46.72 1415.37,46.72 1415.37,52.22 1412.63,52.22 1412.63,57.72 1409.88,57.72 1409.88,60.47 1407.13,60.47 1407.13,65.96 1404.38,65.96 1404.38,71.46 1401.63,71.46 1401.63,76.96 1398.88,76.96 1398.88,79.7 1396.14,79.7 1396.14,85.2 1393.39,85.2 1393.39,90.7 1390.64,90.7 1390.64,96.19 1387.89,96.19 1387.89,101.69 1385.14,101.69 1385.14,104.44 1382.39,104.44 1382.39,109.93 1379.65,109.93 1379.65,115.43 1376.9,115.43 1376.9,120.93 1374.15,120.93 1374.15,123.67 1371.4,123.67 1371.4,129.17 1368.65,129.17 1368.65,134.67 1365.91,134.67 1365.91,140.17 1363.16,140.17 1363.16,145.66 1360.41,145.66 1360.41,151.16 1357.66,151.16 1357.66,156.66 1354.91,156.66 1354.91,162.15 1352.16,162.15 1352.16,167.64 1349.42,167.64 1349.42,173.14 1346.67,173.14 1346.67,175.9 1343.92,175.9 1343.92,184.14 1341.17,184.14 1341.17,189.64 1338.42,189.64 1338.42,195.12 1335.68,195.12 1335.68,200.63 1332.92,200.63 1332.92,206.12 1330.18,206.12 1330.18,211.62 1327.43,211.62 1327.43,217.12 1324.68,217.12 1324.68,222.61 1321.93,222.61 1321.93,230.86 1319.18,230.86 1319.18,236.35 1316.44,236.35 1316.44,241.85 1313.69,241.85 1313.69,247.35 1310.94,247.35 1310.94,255.59 1308.19,255.59 1308.19,263.84 1305.44,263.84 1305.44,269.33 1302.69,269.33 1302.69,274.84 1299.94,274.84 1299.94,280.32 1297.2,280.32 1297.2,291.32 1294.45,291.32 1294.45,299.57 1291.7,299.57 1291.7,313.31 1288.95,313.31 1288.95,321.55 1286.2,321.55 1286.2,346.29 1288.95,346.29 1288.95,351.78 1291.7,351.78 1291.7,354.53 1294.45,354.53 1294.45,357.28 1297.2,357.28 1297.2,360.03 1299.94,360.03 1299.94,362.78 1302.69,362.78 1302.69,365.52 1305.44,365.52 1305.44,368.27 1310.94,368.27 1310.94,371.02 1316.44,371.02 1316.44,373.77 1321.93,373.77 1321.93,376.52 1327.43,376.52 1327.43,379.26 1332.92,379.26 1332.92,382.02 1338.42,382.02 1338.42,384.76 1343.92,384.76 1343.92,387.51 1346.67,387.51 1346.67,390.26 1352.16,390.26 1352.16,393 1354.91,393 1354.91,395.76 1357.66,395.76 1357.66,398.51 1360.41,398.51 1360.41,417.74 1357.66,417.74 1357.66,420.49 1354.91,420.49 1354.91,425.99 1352.16,425.99 1352.16,428.73 1349.42,428.73 1349.42,431.48 1346.67,431.48 1346.67,434.23 1343.92,434.23 1343.92,436.99 1341.17,436.99 1341.17,439.73 1338.42,439.73 1338.42,442.47 1335.68,442.47 1335.68,445.23 1332.92,445.23 1332.92,447.97 1330.18,447.97 1330.18,450.72 1324.68,450.72 1324.68,453.47 1321.93,453.47 1321.93,456.22 1319.18,456.22 1319.18,458.97 1316.44,458.97 1316.44,461.71 1310.94,461.71 1310.94,464.46 1308.19,464.46 1308.19,467.21 1302.69,467.21 1302.69,469.96 1299.94,469.96 1299.94,472.71 1297.2,472.71 1297.2,475.45 1291.7,475.45 1291.7,478.2 1288.95,478.2 1288.95,480.96 1283.46,480.96 1283.46,483.7 1280.71,483.7 1280.71,486.45 1275.21,486.45 1275.21,489.2 1272.46,489.2 1272.46,491.94 1269.71,491.94 1269.71,494.7 1266.97,494.7 1266.97,497.44 1264.22,497.44 1264.22,500.19 1261.47,500.19 1261.47,502.94 1258.72,502.94 1258.72,505.69 1255.97,505.69 1255.97,530.42 1258.72,530.42 1258.72,535.92 1261.47,535.92 1261.47,541.41 1264.22,541.41 1264.22,546.91 1266.97,546.91 1266.97,549.66 1269.71,549.66 1269.71,557.9 1272.46,557.9 1272.46,560.65 1275.21,560.65 1275.21,566.15 1277.96,566.15 1277.96,574.39 1280.71,574.39 1280.71,579.89 1283.46,579.89 1283.46,585.39 1286.2,585.39 1286.2,590.88 1288.95,590.88 1288.95,601.88 1291.7,601.88 1291.7,610.12 1294.45,610.12 1294.45,618.37 1297.2,618.37 1297.2,626.61 1299.94,626.61 1299.94,634.86 1302.69,634.86 1302.69,648.6 1305.44,648.6 1305.44,659.59 1308.19,659.59 1308.19,673.33 1310.94,673.33 1310.94,684.33 1313.69,684.33 1313.69,703.56 1316.44,703.56 1316.44,725.55 1319.18,725.55 1319.18,747.54 1321.93,747.54 1321.93,780.52 1324.68,780.52 1324.68,805.25 1327.43,805.25 1327.43,981.14 1324.68,981.14 1324.68,1033.36 1321.93,1033.36 1321.93,1071.84 1319.18,1071.84 1319.18,1085.58 1316.44,1085.58 1316.44,1099.32 1313.69,1099.32 1313.69,1115.81 1310.94,1115.81 1310.94,1129.55 1308.19,1129.55 1308.19,1148.79 1305.44,1148.79 1305.44,1203.75 1308.19,1203.75 1308.19,1209.25 1310.94,1209.25 1310.94,1220.24 1313.69,1220.24 1313.69,1225.74 1316.44,1225.74 1316.44,1231.24 1319.18,1231.24 1319.18,1239.48 1321.93,1239.48 1321.93,1250.47 1324.68,1250.47 1324.68,1275.21 1327.43,1275.21 1327.43,1297.2 1330.18,1297.2 1330.18,1319.18 1332.92,1319.18 1332.92,1332.92 1335.68,1332.92 1335.68,1341.17 1338.42,1341.17 1338.42,1352.16 1341.17,1352.16 1341.17,1363.15 1343.92,1363.15 1343.92,1371.4 1346.67,1371.4 1346.67,1385.15 1349.42,1385.15 1349.42,1418.12 1346.67,1418.12 1346.67,1659.97 1343.92,1659.97 1343.92,1692.95 1341.17,1692.95 1341.17,1714.94 1338.42,1714.94 1338.42,1725.93 1335.68,1725.93 1335.68,1736.92 1332.92,1736.92 1332.92,1747.92 1330.18,1747.92 1330.18,1758.91 1327.43,1758.91 1327.43,1764.41 1324.68,1764.41 1324.68,1769.9 1321.93,1769.9 1321.93,1772.65 1319.18,1772.65 1319.18,1778.15 1316.44,1778.15 1316.44,1780.9 1313.69,1780.9 1313.69,1786.39 1310.94,1786.39 1310.94,1789.14 1308.19,1789.14 1308.19,1791.89 1305.44,1791.89 1305.44,1794.64 1302.69,1794.64 1302.69,1797.39 1299.94,1797.39 1299.94,1802.88 1294.45,1802.88 1294.45,1808.38 1291.7,1808.38 1291.7,1811.13 1288.95,1811.13 1288.95,1813.88 1286.2,1813.88 1286.2,1816.62 1283.46,1816.62 1283.46,1819.37 1280.71,1819.37 1280.71,1822.12 1277.96,1822.12 1277.96,1824.87 1275.21,1824.87 1275.21,1830.37 1272.46,1830.37 1272.46,1835.86 1269.71,1835.86 1269.71,1838.61 1266.97,1838.61 1266.97,1877.09 1269.71,1877.09 1269.71,1882.58 1272.46,1882.58 1272.46,1890.83 1275.21,1890.83 1275.21,1896.32 1277.96,1896.32 1277.96,1901.82 1280.71,1901.82 1280.71,1907.32 1283.46,1907.32 1283.46,1912.82 1286.2,1912.82 1286.2,1918.31 1288.95,1918.31 1288.95,1923.81 1291.7,1923.81 1291.7,1926.56 1294.45,1926.56 1294.45,1932.05 1297.2,1932.05 1297.2,1937.55 1299.94,1937.55 1299.94,1943.05 1302.69,1943.05 1302.69,1948.54 1305.44,1948.54 1305.44,1954.04 1308.19,1954.04 1308.19,1956.79 1310.94,1956.79 1310.94,1962.28 1313.69,1962.28 1313.69,1967.78 1316.44,1967.78 1316.44,1973.28 1319.18,1973.28 1319.18,1978.78 1321.93,1978.78 1321.93,1981.52 1324.68,1981.52 1324.68,1987.02 1327.43,1987.02 1327.43,1992.52 1330.18,1992.52 1330.18,1995.26 1332.92,1995.26 1332.92,2000.76 1335.68,2000.76 1335.68,2006.26 1338.42,2006.26 1338.42,2009 1341.17,2009 1341.17,2014.5 1343.92,2014.5 1343.92,2020 1346.67,2020 1346.67,2022.74 1349.42,2022.74 1349.42,2025.5 1352.16,2025.5 1352.16,2030.99 1354.91,2030.99 1354.91,2036.49 1357.66,2036.49 1357.66,2039.24 1360.41,2039.24 1360.41,2044.73 1363.16,2044.73 1363.16,2050.23 1365.91,2050.23 1365.91,2052.98 1368.65,2052.98 1368.65,2058.47 1371.4,2058.47 1371.4,2063.97 1374.15,2063.97 1374.15,2069.47 1376.9,2069.47 1376.9,2074.96 1379.65,2074.96 1379.65,2080.46 1382.39,2080.46 1382.39,2088.7 1385.14,2088.7 1385.14,2094.2 1387.89,2094.2 1387.89,2099.7 1390.64,2099.7 1390.64,2110.69 1393.39,2110.69 1393.39,2116.19 1396.14,2116.19 1396.14,2132.68 1398.88,2132.68 1398.88,2140.93 1401.63,2140.93 1401.63,2154.67 1404.38,2154.67 1404.38,2171.15 1407.13,2171.15 1407.13,2184.9 1409.88,2184.9 1409.88,2198.64 1412.63,2198.64 1412.63,2231.62 1415.37,2231.62 1415.37,2242.61 1418.12,2242.61 1418.12,2275.59 1420.87,2275.59 1420.87,2319.56 1423.62,2319.56 1423.62,2495.45 1420.87,2495.45 1420.87,2561.41 1418.12,2561.41 1418.12,2580.65 1415.37,2580.65 1415.37,2660.35 1412.63,2660.35 1412.63,2696.08 1409.88,2696.08 1409.88,2748.29 1407.13,2748.29 1407.13,2828 1404.38,2828 1404.38,2858.23 1401.63,2858.23 1401.63,2874.72 1398.88,2874.72 1398.88,2910.45 1396.14,2910.45 1396.14,2946.17 1393.39,2946.17 1393.39,3012.13 1390.64,3012.13 1390.64,3023.13 1387.89,3023.13 1387.89,3047.86 1385.14,3047.86 1385.14,3061.6 1382.39,3061.6 1382.39,3078.09 1379.65,3078.09 1379.65,3100.08 1376.9,3100.08 1376.9,3144.05 1374.15,3144.05 1374.15,3363.92 1371.4,3363.92 1371.4,3715.7 1374.15,3715.7 1374.15,3781.65 1376.9,3781.65 1376.9,3877.84 1379.65,3877.84 1379.65,3913.57 1382.39,3913.57 1382.39,3930.06 1385.14,3930.06 1385.14,3957.54 1387.89,3957.54 1387.89,3974.03 1390.64,3974.03 1390.64,3996.02 1393.39,3996.02 1393.39,4009.76 1396.14,4009.76 1396.14,4034.5 1398.88,4034.5 1398.88,4050.99 1401.63,4050.99 1401.63,4059.23 1404.38,4059.23 1404.38,4072.97 1407.13,4072.97 1407.13,4081.22 1409.88,4081.22 1409.88,4094.96 1412.63,4094.96 1412.63,4114.2 1415.37,4114.2 1415.37,4119.7 1418.12,4119.7 1418.12,4125.19 1420.87,4125.19 1420.87,4133.44 1423.62,4133.44 1423.62,4138.93 1426.37,4138.93 1426.37,4144.43 1429.12,4144.43 1429.12,4149.93 1431.86,4149.93 1431.86,4155.42 1434.61,4155.42 1434.61,4158.17 1437.36,4158.17 1437.36,4160.92 1440.11,4160.92 1440.11,4163.67 1442.86,4163.67 1442.86,4166.42 1445.61,4166.42 1445.61,4169.17 1448.35,4169.17 1448.35,4171.91 1453.85,4171.91 1453.85,4174.66 1464.84,4174.66 1464.84,4171.91 1470.34,4171.91 1470.34,4166.42 1473.09,4166.42 1473.09,4141.68 1470.34,4141.68 1470.34,4133.44 1467.59,4133.44 1467.59,4116.95 1464.84,4116.95 1464.84,4105.95 1462.1,4105.95 1462.1,4100.46 1459.35,4100.46 1459.35,4089.46 1456.6,4089.46 1456.6,4078.47 1453.85,4078.47 1453.85,4059.23 1451.1,4059.23 1451.1,4015.26 1448.35,4015.26 1448.35,4001.52 1445.61,4001.52 1445.61,3957.54 1442.86,3957.54 1442.86,3883.34 1440.11,3883.34 1440.11,3465.6 1442.86,3465.6 1442.86,3440.86 1445.61,3440.86 1445.61,3407.89 1448.35,3407.89 1448.35,3171.53 1451.1,3171.53 1451.1,3111.07 1453.85,3111.07 1453.85,3047.86 1456.6,3047.86 1456.6,3003.89 1459.35,3003.89 1459.35,2979.15 1462.1,2979.15 1462.1,2957.17 1464.84,2957.17 1464.84,2946.17 1467.59,2946.17 1467.59,2910.45 1470.34,2910.45 1470.34,2891.21 1473.09,2891.21 1473.09,2858.23 1475.84,2858.23 1475.84,2814.26 1478.59,2814.26 1478.59,2786.77 1481.33,2786.77 1481.33,2759.29 1484.08,2759.29 1484.08,2748.29 1486.83,2748.29 1486.83,2726.31 1489.58,2726.31 1489.58,2704.33 1492.33,2704.33 1492.33,2674.09 1495.08,2674.09 1495.08,2638.37 1497.82,2638.37 1497.82,2594.39 1500.57,2594.39 1500.57,2558.66 1503.32,2558.66 1503.32,2484.46 1506.07,2484.46 1506.07,2308.57 1503.32,2308.57 1503.32,2275.59 1500.57,2275.59 1500.57,2231.62 1497.82,2231.62 1497.82,2206.88 1495.08,2206.88 1495.08,2132.68 1497.82,2132.68 1497.82,2118.94 1500.57,2118.94 1500.57,2113.44 1503.32,2113.44 1503.32,2110.69 1506.07,2110.69 1506.07,2107.94 1508.82,2107.94 1508.82,2105.2 1511.57,2105.2 1511.57,2102.45 1541.8,2102.45 1541.8,2105.2 1547.29,2105.2 1547.29,2107.94 1555.54,2107.94 1555.54,2110.69 1563.78,2110.69 1563.78,2113.44 1566.53,2113.44 1566.53,2116.19 1572.02,2116.19 1572.02,2118.94 1574.78,2118.94 1574.78,2121.68 1577.53,2121.68 1577.53,2124.43 1583.02,2124.43 1583.02,2127.19 1585.77,2127.19 1585.77,2129.93 1588.52,2129.93 1588.52,2132.68 1591.27,2132.68 1591.27,2138.17 1594.02,2138.17 1594.02,2140.93 1596.76,2140.93 1596.76,2143.67 1599.51,2143.67 1599.51,2146.41 1602.26,2146.41 1602.26,2151.92 1605.01,2151.92 1605.01,2154.67 1607.76,2154.67 1607.76,2160.16 1610.5,2160.16 1610.5,2165.66 1613.25,2165.66 1613.25,2171.15 1616,2171.15 1616,2173.9 1618.75,2173.9 1618.75,2179.4 1621.5,2179.4 1621.5,2187.64 1624.24,2187.64 1624.24,2193.14 1626.99,2193.14 1626.99,2198.64 1629.74,2198.64 1629.74,2206.88 1632.49,2206.88 1632.49,2215.13 1635.24,2215.13 1635.24,2220.62 1637.98,2220.62 1637.98,2231.62 1640.73,2231.62 1640.73,2237.11 1643.49,2237.11 1643.49,2248.11 1646.23,2248.11 1646.23,2259.1 1648.98,2259.1 1648.98,2264.6 1651.73,2264.6 1651.73,2270.09 1654.47,2270.09 1654.47,2272.84 1657.23,2272.84 1657.23,2275.59 1659.97,2275.59 1659.97,2278.34 1668.22,2278.34 1668.22,2281.09 1679.21,2281.09 1679.21,2275.59 1681.96,2275.59 1681.96,2267.35 1684.7,2267.35 1684.7,2264.6 1687.46,2264.6 1687.46,2253.61 1690.2,2253.61 1690.2,2237.11 1692.96,2237.11 1692.96,2228.87 1695.7,2228.87 1695.7,2209.63 1698.44,2209.63 1698.44,2198.64 1701.2,2198.64 1701.2,2184.9 1703.94,2184.9 1703.94,2176.65 1706.7,2176.65 1706.7,2165.66 1709.44,2165.66 1709.44,2160.16 1712.18,2160.16 1712.18,2149.17 1714.94,2149.17 1714.94,2143.67 1717.69,2143.67 1717.69,2138.17 1720.43,2138.17 1720.43,2132.68 1723.18,2132.68 1723.18,2127.19 1725.93,2127.19 1725.93,2121.68 1728.68,2121.68 1728.68,2116.19 1731.43,2116.19 1731.43,2110.69 1734.17,2110.69 1734.17,2105.2 1736.92,2105.2 1736.92,2102.45 1739.67,2102.45 1739.67,2096.95 1742.43,2096.95 1742.43,2091.46 1745.17,2091.46 1745.17,2088.7 1747.92,2088.7 1747.92,2083.21 1750.67,2083.21 1750.67,2080.46 1753.41,2080.46 1753.41,2074.96 1756.17,2074.96 1756.17,2072.21 1758.91,2072.21 1758.91,2066.72 1761.66,2066.72 1761.66,2063.97 1764.41,2063.97 1764.41,2061.22 1767.16,2061.22 1767.16,2055.73 1769.91,2055.73 1769.91,2052.98 1772.65,2052.98 1772.65,2050.23 1775.4,2050.23 1775.4,2047.48 1778.15,2047.48 1778.15,2041.99 1780.9,2041.99 1780.9,2039.24 1783.65,2039.24 1783.65,2036.49 1786.39,2036.49 1786.39,2033.74 1789.14,2033.74 1789.14,2028.25 1791.9,2028.25 1791.9,2025.5 1794.64,2025.5 1794.64,2022.74 1797.39,2022.74 1797.39,2020 1800.14,2020 1800.14,2014.5 1802.88,2014.5 1802.88,2011.76 1805.64,2011.76 1805.64,2006.26 1808.38,2006.26 1808.38,2003.51 1811.13,2003.51 1811.13,2000.76 1813.88,2000.76 1813.88,1995.26 1816.63,1995.26 1816.63,1992.52 1819.38,1992.52 1819.38,1987.02 1822.12,1987.02 1822.12,1984.27 1824.87,1984.27 1824.87,1978.78 1827.62,1978.78 1827.62,1973.28 1830.37,1973.28 1830.37,1970.53 1833.11,1970.53 1833.11,1965.03 1835.86,1965.03 1835.86,1959.54 1838.61,1959.54 1838.61,1954.04 1841.37,1954.04 1841.37,1948.54 1844.11,1948.54 1844.11,1943.05 1846.85,1943.05 1846.85,1934.8 1849.61,1934.8 1849.61,1929.31 1852.35,1929.31 1852.35,1923.81 1855.11,1923.81 1855.11,1915.56 1857.85,1915.56 1857.85,1910.06 1860.59,1910.06 1860.59,1901.82 1863.35,1901.82 1863.35,1896.32 1866.09,1896.32 1866.09,1885.33 1868.85,1885.33 1868.85,1874.34 1871.59,1874.34 1871.59,1868.84 1874.34,1868.84 1874.34,1852.35 1877.09,1852.35 1877.09,1844.11 1879.84,1844.11 1879.84,1830.37 1882.58,1830.37 1882.58,1813.88 1885.33,1813.88 1885.33,1750.66 1882.58,1750.66 1882.58,1745.17 1863.35,1745.17 1863.35,1747.92 1860.59,1747.92 1860.59,1750.66 1855.11,1750.66 1855.11,1753.41 1849.61,1753.41 1849.61,1756.16 1846.85,1756.16 1846.85,1758.91 1844.11,1758.91 1844.11,1761.66 1841.37,1761.66 1841.37,1767.15 1838.61,1767.15 1838.61,1769.9 1835.86,1769.9 1835.86,1772.65 1833.11,1772.65 1833.11,1775.4 1830.37,1775.4 1830.37,1780.9 1827.62,1780.9 1827.62,1783.64 1824.87,1783.64 1824.87,1789.14 1822.12,1789.14 1822.12,1791.89 1819.38,1791.89 1819.38,1794.64 1816.63,1794.64 1816.63,1800.13 1813.88,1800.13 1813.88,1802.88 1811.13,1802.88 1811.13,1808.38 1808.38,1808.38 1808.38,1811.13 1805.64,1811.13 1805.64,1816.62 1802.88,1816.62 1802.88,1819.37 1800.14,1819.37 1800.14,1824.87 1797.39,1824.87 1797.39,1827.62 1794.64,1827.62 1794.64,1830.37 1791.9,1830.37 1791.9,1833.11 1789.14,1833.11 1789.14,1838.61 1786.39,1838.61 1786.39,1841.36 1783.65,1841.36 1783.65,1844.11 1780.9,1844.11 1780.9,1846.86 1778.15,1846.86 1778.15,1849.6 1775.4,1849.6 1775.4,1852.35 1772.65,1852.35 1772.65,1857.85 1769.91,1857.85 1769.91,1860.6 1767.16,1860.6 1767.16,1863.35 1764.41,1863.35 1764.41,1866.09 1761.66,1866.09 1761.66,1868.84 1758.91,1868.84 1758.91,1871.59 1756.17,1871.59 1756.17,1874.34 1753.41,1874.34 1753.41,1877.09 1750.67,1877.09 1750.67,1879.84 1747.92,1879.84 1747.92,1882.58 1745.17,1882.58 1745.17,1885.33 1742.43,1885.33 1742.43,1888.08 1739.67,1888.08 1739.67,1890.83 1736.92,1890.83 1736.92,1893.58 1734.17,1893.58 1734.17,1896.32 1731.43,1896.32 1731.43,1899.07 1728.68,1899.07 1728.68,1901.82 1725.93,1901.82 1725.93,1904.57 1723.18,1904.57 1723.18,1907.32 1720.43,1907.32 1720.43,1910.06 1717.69,1910.06 1717.69,1912.82 1712.18,1912.82 1712.18,1915.56 1709.44,1915.56 1709.44,1918.31 1706.7,1918.31 1706.7,1921.06 1703.94,1921.06 1703.94,1923.81 1701.2,1923.81 1701.2,1926.56 1695.7,1926.56 1695.7,1929.31 1692.96,1929.31 1692.96,1932.05 1690.2,1932.05 1690.2,1934.8 1687.46,1934.8 1687.46,1937.55 1681.96,1937.55 1681.96,1940.3 1679.21,1940.3 1679.21,1943.05 1673.72,1943.05 1673.72,1945.8 1670.97,1945.8 1670.97,1948.54 1665.47,1948.54 1665.47,1951.29 1662.72,1951.29 1662.72,1954.04 1657.23,1954.04 1657.23,1956.79 1651.73,1956.79 1651.73,1959.54 1646.23,1959.54 1646.23,1962.28 1643.49,1962.28 1643.49,1965.03 1637.98,1965.03 1637.98,1967.78 1632.49,1967.78 1632.49,1970.53 1626.99,1970.53 1626.99,1973.28 1618.75,1973.28 1618.75,1976.03 1610.5,1976.03 1610.5,1978.78 1602.26,1978.78 1602.26,1981.52 1594.02,1981.52 1594.02,1984.27 1580.27,1984.27 1580.27,1987.02 1541.8,1987.02 1541.8,1984.27 1530.8,1984.27 1530.8,1981.52 1519.81,1981.52 1519.81,1978.78 1514.31,1978.78 1514.31,1976.03 1508.82,1976.03 1508.82,1973.28 1503.32,1973.28 1503.32,1970.53 1497.82,1970.53 1497.82,1967.78 1492.33,1967.78 1492.33,1965.03 1489.58,1965.03 1489.58,1962.28 1484.08,1962.28 1484.08,1959.54 1481.33,1959.54 1481.33,1956.79 1478.59,1956.79 1478.59,1954.04 1473.09,1954.04 1473.09,1951.29 1470.34,1951.29 1470.34,1948.54 1467.59,1948.54 1467.59,1943.05 1462.1,1943.05 1462.1,1937.55 1459.35,1937.55 1459.35,1934.8 1456.6,1934.8 1456.6,1932.05 1453.85,1932.05 1453.85,1926.56 1451.1,1926.56 1451.1,1923.81 1448.35,1923.81 1448.35,1918.31 1445.61,1918.31 1445.61,1912.82 1442.86,1912.82 1442.86,1910.06 1440.11,1910.06 1440.11,1904.57 1437.36,1904.57 1437.36,1899.07 1434.61,1899.07 1434.61,1890.83 1431.86,1890.83 1431.86,1882.58 1429.12,1882.58 1429.12,1871.59 1426.37,1871.59 1426.37,1863.35 1423.62,1863.35 1423.62,1846.86 1420.87,1846.86 1420.87,1830.37 1418.12,1830.37 1418.12,1775.4 1420.87,1775.4 1420.87,1764.41 1423.62,1764.41 1423.62,1750.66 1426.37,1750.66 1426.37,1736.92 1429.12,1736.92 1429.12,1731.43 1431.86,1731.43 1431.86,1720.43 1434.61,1720.43 1434.61,1709.44 1437.36,1709.44 1437.36,1706.69 1440.11,1706.69 1440.11,1698.45 1442.86,1698.45 1442.86,1692.95 1445.61,1692.95 1445.61,1687.45 1448.35,1687.45 1448.35,1681.96 1451.1,1681.96 1451.1,1679.21 1453.85,1679.21 1453.85,1673.71 1456.6,1673.71 1456.6,1668.21 1459.35,1668.21 1459.35,1665.47 1462.1,1665.47 1462.1,1662.72 1464.84,1662.72 1464.84,1657.22 1467.59,1657.22 1467.59,1654.47 1470.34,1654.47 1470.34,1651.72 1473.09,1651.72 1473.09,1646.23 1475.84,1646.23 1475.84,1643.48 1478.59,1643.48 1478.59,1640.73 1481.33,1640.73 1481.33,1637.98 1484.08,1637.98 1484.08,1635.24 1486.83,1635.24 1486.83,1632.49 1489.58,1632.49 1489.58,1629.74 1492.33,1629.74 1492.33,1626.99 1495.08,1626.99 1495.08,1624.24 1500.57,1624.24 1500.57,1621.5 1503.32,1621.5 1503.32,1618.75 1506.07,1618.75 1506.07,1616 1511.57,1616 1511.57,1613.25 1514.31,1613.25 1514.31,1610.5 1519.81,1610.5 1519.81,1607.76 1522.56,1607.76 1522.56,1605.01 1528.05,1605.01 1528.05,1602.25 1533.55,1602.25 1533.55,1599.51 1539.05,1599.51 1539.05,1596.76 1544.55,1596.76 1544.55,1594.01 1550.04,1594.01 1550.04,1591.27 1555.54,1591.27 1555.54,1588.51 1561.04,1588.51 1561.04,1585.77 1566.53,1585.77 1566.53,1583.02 1574.78,1583.02 1574.78,1580.27 1585.77,1580.27 1585.77,1577.52 1594.02,1577.52 1594.02,1574.77 1610.5,1574.77 1610.5,1572.02 1646.23,1572.02 1646.23,1574.77 1654.47,1574.77 1654.47,1577.52 1668.22,1577.52 1668.22,1580.27 1673.72,1580.27 1673.72,1583.02 1681.96,1583.02 1681.96,1585.77 1687.46,1585.77 1687.46,1588.51 1692.96,1588.51 1692.96,1591.27 1695.7,1591.27 1695.7,1594.01 1701.2,1594.01 1701.2,1596.76 1703.94,1596.76 1703.94,1599.51 1709.44,1599.51 1709.44,1602.25 1712.18,1602.25 1712.18,1605.01 1714.94,1605.01 1714.94,1607.76 1720.43,1607.76 1720.43,1610.5 1723.18,1610.5 1723.18,1613.25 1725.93,1613.25 1725.93,1616 1728.68,1616 1728.68,1618.75 1731.43,1618.75 1731.43,1621.5 1734.17,1621.5 1734.17,1624.24 1739.67,1624.24 1739.67,1626.99 1742.43,1626.99 1742.43,1629.74 1745.17,1629.74 1745.17,1632.49 1747.92,1632.49 1747.92,1635.24 1750.67,1635.24 1750.67,1637.98 1753.41,1637.98 1753.41,1640.73 1756.17,1640.73 1756.17,1643.48 1761.66,1643.48 1761.66,1646.23 1764.41,1646.23 1764.41,1648.98 1769.91,1648.98 1769.91,1651.72 1772.65,1651.72 1772.65,1654.47 1778.15,1654.47 1778.15,1657.22 1786.39,1657.22 1786.39,1659.97 1822.12,1659.97 1822.12,1657.22 1830.37,1657.22 1830.37,1654.47 1844.11,1654.47 1844.11,1651.72 1849.61,1651.72 1849.61,1648.98 1855.11,1648.98 1855.11,1646.23 1860.59,1646.23 1860.59,1643.48 1863.35,1643.48 1863.35,1640.73 1866.09,1640.73 1866.09,1637.98 1868.85,1637.98 1868.85,1635.24 1871.59,1635.24 1871.59,1632.49 1874.34,1632.49 1874.34,1629.74 1877.09,1629.74 1877.09,1626.99 1879.84,1626.99 1879.84,1621.5 1882.58,1621.5 1882.58,1588.51 1879.84,1588.51 1879.84,1583.02 1877.09,1583.02 1877.09,1574.77 1874.34,1574.77 1874.34,1569.28 1871.59,1569.28 1871.59,1563.78 1868.85,1563.78 1868.85,1558.28 1866.09,1558.28 1866.09,1555.54 1863.35,1555.54 1863.35,1550.04 1860.59,1550.04 1860.59,1547.3 1857.85,1547.3 1857.85,1541.8 1855.11,1541.8 1855.11,1539.04 1852.35,1539.04 1852.35,1536.3 1849.61,1536.3 1849.61,1530.8 1846.85,1530.8 1846.85,1528.05 1844.11,1528.05 1844.11,1525.3 1841.37,1525.3 1841.37,1522.56 1838.61,1522.56 1838.61,1519.81 1835.86,1519.81 1835.86,1514.31 1833.11,1514.31 1833.11,1511.56 1830.37,1511.56 1830.37,1508.82 1827.62,1508.82 1827.62,1506.07 1824.87,1506.07 1824.87,1503.31 1822.12,1503.31 1822.12,1500.57 1819.38,1500.57 1819.38,1497.82 1816.63,1497.82 1816.63,1495.07 1813.88,1495.07 1813.88,1492.33 1811.13,1492.33 1811.13,1489.57 1808.38,1489.57 1808.38,1486.83 1805.64,1486.83 1805.64,1484.08 1802.88,1484.08 1802.88,1481.33 1800.14,1481.33 1800.14,1478.58 1797.39,1478.58 1797.39,1475.83 1791.9,1475.83 1791.9,1473.09 1789.14,1473.09 1789.14,1470.34 1786.39,1470.34 1786.39,1467.59 1783.65,1467.59 1783.65,1464.84 1778.15,1464.84 1778.15,1462.09 1775.4,1462.09 1775.4,1459.35 1772.65,1459.35 1772.65,1456.6 1767.16,1456.6 1767.16,1453.84 1764.41,1453.84 1764.41,1451.1 1758.91,1451.1 1758.91,1448.35 1756.17,1448.35 1756.17,1445.6 1750.67,1445.6 1750.67,1442.86 1745.17,1442.86 1745.17,1440.1 1742.43,1440.1 1742.43,1437.36 1734.17,1437.36 1734.17,1434.62 1731.43,1434.62 1731.43,1431.86 1723.18,1431.86 1723.18,1429.11 1717.69,1429.11 1717.69,1426.36 1712.18,1426.36 1712.18,1423.62 1703.94,1423.62 1703.94,1420.87 1695.7,1420.87 1695.7,1418.12 1690.2,1418.12 1690.2,1415.37 1679.21,1415.37 1679.21,1412.62 1668.22,1412.62 1668.22,1409.88 1607.76,1409.88 1607.76,1412.62 1596.76,1412.62 1596.76,1415.37 1588.52,1415.37 1588.52,1418.12 1574.78,1418.12 1574.78,1420.87 1569.28,1420.87 1569.28,1423.62 1563.78,1423.62 1563.78,1426.36 1555.54,1426.36 1555.54,1429.11 1550.04,1429.11 1550.04,1431.86 1544.55,1431.86 1544.55,1434.62 1539.05,1434.62 1539.05,1437.36 1533.55,1437.36 1533.55,1440.1 1528.05,1440.1 1528.05,1442.86 1522.56,1442.86 1522.56,1445.6 1519.81,1445.6 1519.81,1448.35 1514.31,1448.35 1514.31,1451.1 1508.82,1451.1 1508.82,1453.84 1503.32,1453.84 1503.32,1456.6 1497.82,1456.6 1497.82,1459.35 1492.33,1459.35 1492.33,1462.09 1481.33,1462.09 1481.33,1464.84 1459.35,1464.84 1459.35,1459.35 1456.6,1459.35 1456.6,1453.84 1453.85,1453.84 1453.85,1440.1 1451.1,1440.1 1451.1,1376.89 1453.85,1376.89 1453.85,1357.66 1456.6,1357.66 1456.6,1341.17 1459.35,1341.17 1459.35,1327.43 1462.1,1327.43 1462.1,1313.69 1464.84,1313.69 1464.84,1305.44 1467.59,1305.44 1467.59,1291.69 1470.34,1291.69 1470.34,1275.21 1473.09,1275.21 1473.09,1264.21 1475.84,1264.21 1475.84,1258.72 1478.59,1258.72 1478.59,1247.72 1481.33,1247.72 1481.33,1239.48 1484.08,1239.48 1484.08,1231.24 1486.83,1231.24 1486.83,1217.5 1489.58,1217.5 1489.58,1209.25 1492.33,1209.25 1492.33,1201.01 1495.08,1201.01 1495.08,1192.76 1497.82,1192.76 1497.82,1187.27 1500.57,1187.27 1500.57,1181.77 1503.32,1181.77 1503.32,1173.52 1506.07,1173.52 1506.07,1165.28 1508.82,1165.28 1508.82,1159.78 1511.57,1159.78 1511.57,1148.79 1514.31,1148.79 1514.31,1143.29 1517.06,1143.29 1517.06,1129.55 1519.81,1129.55 1519.81,1085.58 1517.06,1085.58 1517.06,1071.84 1514.31,1071.84 1514.31,1066.34 1511.57,1066.34 1511.57,1055.35 1508.82,1055.35 1508.82,1047.1 1506.07,1047.1 1506.07,1041.6 1503.32,1041.6 1503.32,1033.36 1500.57,1033.36 1500.57,1027.86 1497.82,1027.86 1497.82,1019.62 1495.08,1019.62 1495.08,1014.12 1492.33,1014.12 1492.33,1008.63 1489.58,1008.63 1489.58,1000.38 1486.83,1000.38 1486.83,994.89 1484.08,994.89 1484.08,983.89 1481.33,983.89 1481.33,978.39 1478.59,978.39 1478.59,972.9 1475.84,972.9 1475.84,961.9 1473.09,961.9 1473.09,950.91 1470.34,950.91 1470.34,945.42 1467.59,945.42 1467.59,928.93 1464.84,928.93 1464.84,915.19 1462.1,915.19 1462.1,901.44 1459.35,901.44 1459.35,890.45 1456.6,890.45 1456.6,868.46 1453.85,868.46 1453.85,843.73 1451.1,843.73 1451.1,769.52 1448.35,769.52 1448.35,673.33 1445.61,673.33 1445.61,648.6 1442.86,648.6 1442.86,601.88 1440.11,601.88 1440.11,549.66 1442.86,549.66 1442.86,533.17 1445.61,533.17 1445.61,522.18 1448.35,522.18 1448.35,516.68 1451.1,516.68 1451.1,511.19 1453.85,511.19 1453.85,505.69 1456.6,505.69 1456.6,502.94 1459.35,502.94 1459.35,497.44 1462.1,497.44 1462.1,494.7 1467.59,494.7 1467.59,489.2 "/>
   <polygon class="fil0" points="689.82,753.03 678.83,753.03 678.83,755.78 667.84,755.78 667.84,758.53 656.84,758.53 656.84,761.28 651.35,761.28 651.35,764.03 645.85,764.03 645.85,766.78 640.35,766.78 640.35,769.52 634.86,769.52 634.86,772.27 629.36,772.27 629.36,775.02 626.61,775.02 626.61,777.77 623.87,777.77 623.87,780.52 618.37,780.52 618.37,783.27 615.61,783.27 615.61,786.01 612.87,786.01 612.87,788.76 610.13,788.76 610.13,791.51 607.37,791.51 607.37,794.26 604.63,794.26 604.63,797.01 601.87,797.01 601.87,799.75 599.13,799.75 599.13,802.5 596.39,802.5 596.39,808 593.63,808 593.63,810.75 590.89,810.75 590.89,813.49 588.13,813.49 588.13,818.99 585.39,818.99 585.39,824.49 582.64,824.49 582.64,827.24 579.89,827.24 579.89,832.74 577.15,832.74 577.15,838.23 574.4,838.23 574.4,843.73 571.65,843.73 571.65,849.23 568.9,849.23 568.9,854.72 566.15,854.72 566.15,860.22 563.4,860.22 563.4,868.46 560.66,868.46 560.66,871.21 557.9,871.21 557.9,879.46 555.16,879.46 555.16,887.7 552.41,887.7 552.41,893.2 549.66,893.2 549.66,901.44 546.92,901.44 546.92,909.69 544.16,909.69 544.16,926.17 541.41,926.17 541.41,934.42 538.67,934.42 538.67,945.42 535.92,945.42 535.92,959.16 533.17,959.16 533.17,967.4 530.42,967.4 530.42,981.14 527.67,981.14 527.67,1011.37 524.93,1011.37 524.93,1025.11 522.18,1025.11 522.18,1066.34 519.43,1066.34 519.43,1201.01 522.18,1201.01 522.18,1275.21 524.93,1275.21 524.93,1332.92 527.67,1332.92 527.67,1363.15 530.42,1363.15 530.42,1418.12 533.17,1418.12 533.17,1462.09 535.92,1462.09 535.92,1500.57 538.67,1500.57 538.67,1517.06 541.41,1517.06 541.41,1555.54 544.16,1555.54 544.16,1569.28 546.92,1569.28 546.92,1605.01 549.66,1605.01 549.66,1635.24 552.41,1635.24 552.41,1657.22 555.16,1657.22 555.16,1687.45 557.9,1687.45 557.9,1736.92 560.66,1736.92 560.66,1879.84 557.9,1879.84 557.9,1904.57 555.16,1904.57 555.16,1912.82 552.41,1912.82 552.41,1934.8 549.66,1934.8 549.66,1940.3 546.92,1940.3 546.92,1956.79 544.16,1956.79 544.16,1962.28 541.41,1962.28 541.41,1973.28 538.67,1973.28 538.67,1981.52 535.92,1981.52 535.92,1987.02 533.17,1987.02 533.17,1995.26 530.42,1995.26 530.42,2000.76 527.67,2000.76 527.67,2006.26 524.93,2006.26 524.93,2011.76 522.18,2011.76 522.18,2014.5 519.43,2014.5 519.43,2020 516.68,2020 516.68,2025.5 513.93,2025.5 513.93,2028.25 511.19,2028.25 511.19,2030.99 508.44,2030.99 508.44,2036.49 505.69,2036.49 505.69,2039.24 502.94,2039.24 502.94,2041.99 500.19,2041.99 500.19,2044.73 497.45,2044.73 497.45,2047.48 494.7,2047.48 494.7,2050.23 491.95,2050.23 491.95,2052.98 489.2,2052.98 489.2,2055.73 486.45,2055.73 486.45,2058.47 480.96,2058.47 480.96,2061.22 478.21,2061.22 478.21,2063.97 472.71,2063.97 472.71,2066.72 467.22,2066.72 467.22,2069.47 461.72,2069.47 461.72,2072.21 456.22,2072.21 456.22,2074.96 442.48,2074.96 442.48,2077.72 428.74,2077.72 428.74,2080.46 371.02,2080.46 371.02,2077.72 346.29,2077.72 346.29,2074.96 332.55,2074.96 332.55,2072.21 321.55,2072.21 321.55,2069.47 316.06,2069.47 316.06,2066.72 307.81,2066.72 307.81,2063.97 302.32,2063.97 302.32,2061.22 296.82,2061.22 296.82,2058.47 291.32,2058.47 291.32,2055.73 285.83,2055.73 285.83,2052.98 280.33,2052.98 280.33,2050.23 277.58,2050.23 277.58,2047.48 272.08,2047.48 272.08,2044.73 269.34,2044.73 269.34,2041.99 263.84,2041.99 263.84,2039.24 261.09,2039.24 261.09,2036.49 258.34,2036.49 258.34,2033.74 255.59,2033.74 255.59,2030.99 252.85,2030.99 252.85,2028.25 250.1,2028.25 250.1,2025.5 247.35,2025.5 247.35,2022.74 244.6,2022.74 244.6,2017.25 241.85,2017.25 241.85,2014.5 239.11,2014.5 239.11,2011.76 236.36,2011.76 236.36,2006.26 233.61,2006.26 233.61,2000.76 230.86,2000.76 230.86,1998.01 228.11,1998.01 228.11,1992.52 225.36,1992.52 225.36,1984.27 222.61,1984.27 222.61,1978.78 219.87,1978.78 219.87,1973.28 217.12,1973.28 217.12,1962.28 214.37,1962.28 214.37,1956.79 211.62,1956.79 211.62,1948.54 208.87,1948.54 208.87,1940.3 206.12,1940.3 206.12,1929.31 203.38,1929.31 203.38,1912.82 200.63,1912.82 200.63,1901.82 197.88,1901.82 197.88,1885.33 195.13,1885.33 195.13,1863.35 192.38,1863.35 192.38,1855.1 189.63,1855.1 189.63,1824.87 186.89,1824.87 186.89,1791.89 184.14,1791.89 184.14,1758.91 181.39,1758.91 181.39,1577.52 184.14,1577.52 184.14,1550.04 186.89,1550.04 186.89,1517.06 189.63,1517.06 189.63,1484.08 192.38,1484.08 192.38,1451.1 195.13,1451.1 195.13,1354.91 197.88,1354.91 197.88,1327.43 200.63,1327.43 200.63,1275.21 203.38,1275.21 203.38,1195.51 206.12,1195.51 206.12,1055.35 203.38,1055.35 203.38,1016.87 200.63,1016.87 200.63,978.39 197.88,978.39 197.88,901.44 200.63,901.44 200.63,887.7 203.38,887.7 203.38,873.96 206.12,873.96 206.12,862.97 208.87,862.97 208.87,854.72 211.62,854.72 211.62,846.48 214.37,846.48 214.37,840.98 217.12,840.98 217.12,835.48 219.87,835.48 219.87,829.99 222.61,829.99 222.61,824.49 225.36,824.49 225.36,818.99 228.11,818.99 228.11,813.49 230.86,813.49 230.86,802.5 233.61,802.5 233.61,791.51 230.86,791.51 230.86,786.01 228.11,786.01 228.11,783.27 219.87,783.27 219.87,780.52 184.14,780.52 184.14,783.27 159.4,783.27 159.4,786.01 118.18,786.01 118.18,788.76 107.18,788.76 107.18,791.51 90.7,791.51 90.7,794.26 76.96,794.26 76.96,797.01 65.96,797.01 65.96,799.75 60.47,799.75 60.47,802.5 46.73,802.5 46.73,805.25 41.23,805.25 41.23,808 35.73,808 35.73,810.75 27.49,810.75 27.49,813.49 24.74,813.49 24.74,816.25 19.24,816.25 19.24,818.99 16.49,818.99 16.49,821.74 11,821.74 11,824.49 8.24,824.49 8.24,827.24 5.5,827.24 5.5,832.74 2.75,832.74 2.75,835.48 0,835.48 0,857.47 2.75,857.47 2.75,860.22 5.5,860.22 5.5,865.71 8.24,865.71 8.24,868.46 11,868.46 11,871.21 13.75,871.21 13.75,876.71 16.49,876.71 16.49,879.46 19.24,879.46 19.24,882.21 24.74,882.21 24.74,884.95 27.49,884.95 27.49,887.7 30.23,887.7 30.23,890.45 32.98,890.45 32.98,893.2 38.48,893.2 38.48,895.95 41.23,895.95 41.23,898.69 43.97,898.69 43.97,901.44 49.47,901.44 49.47,904.19 52.22,904.19 52.22,906.94 54.97,906.94 54.97,909.69 60.47,909.69 60.47,912.43 63.21,912.43 63.21,915.19 65.96,915.19 65.96,917.93 68.71,917.93 68.71,920.68 71.46,920.68 71.46,923.43 74.21,923.43 74.21,926.17 76.96,926.17 76.96,931.68 79.7,931.68 79.7,934.42 82.45,934.42 82.45,937.17 85.2,937.17 85.2,942.67 87.95,942.67 87.95,945.42 90.7,945.42 90.7,950.91 93.44,950.91 93.44,956.41 96.19,956.41 96.19,961.9 98.94,961.9 98.94,967.4 101.69,967.4 101.69,978.39 104.44,978.39 104.44,983.89 107.18,983.89 107.18,994.89 109.93,994.89 109.93,1003.13 112.69,1003.13 112.69,1016.87 115.43,1016.87 115.43,1027.86 118.18,1027.86 118.18,1038.86 120.93,1038.86 120.93,1047.1 123.67,1047.1 123.67,1066.34 126.43,1066.34 126.43,1077.33 129.17,1077.33 129.17,1093.82 131.92,1093.82 131.92,1115.81 134.67,1115.81 134.67,1132.3 137.42,1132.3 137.42,1165.28 140.17,1165.28 140.17,1176.27 142.91,1176.27 142.91,1209.25 145.66,1209.25 145.66,1374.15 142.91,1374.15 142.91,1407.13 140.17,1407.13 140.17,1429.11 137.42,1429.11 137.42,1451.1 134.67,1451.1 134.67,1462.09 131.92,1462.09 131.92,1473.09 129.17,1473.09 129.17,1484.08 126.43,1484.08 126.43,1495.07 123.67,1495.07 123.67,1503.31 120.93,1503.31 120.93,1517.06 118.18,1517.06 118.18,1528.05 115.43,1528.05 115.43,1539.04 112.69,1539.04 112.69,1555.54 109.93,1555.54 109.93,1566.53 107.18,1566.53 107.18,1583.02 104.44,1583.02 104.44,1591.27 101.69,1591.27 101.69,1610.5 98.94,1610.5 98.94,1626.99 96.19,1626.99 96.19,1646.23 93.44,1646.23 93.44,1657.22 90.7,1657.22 90.7,1681.96 87.95,1681.96 87.95,1709.44 85.2,1709.44 85.2,1728.68 82.45,1728.68 82.45,1753.41 79.7,1753.41 79.7,1780.9 76.96,1780.9 76.96,1838.61 74.21,1838.61 74.21,1926.56 76.96,1926.56 76.96,1967.78 79.7,1967.78 79.7,1989.77 82.45,1989.77 82.45,2011.76 85.2,2011.76 85.2,2036.49 87.95,2036.49 87.95,2044.73 90.7,2044.73 90.7,2055.73 93.44,2055.73 93.44,2066.72 96.19,2066.72 96.19,2077.72 98.94,2077.72 98.94,2088.7 101.69,2088.7 101.69,2094.2 104.44,2094.2 104.44,2105.2 107.18,2105.2 107.18,2110.69 109.93,2110.69 109.93,2116.19 112.69,2116.19 112.69,2121.68 115.43,2121.68 115.43,2127.19 118.18,2127.19 118.18,2132.68 120.93,2132.68 120.93,2138.17 123.67,2138.17 123.67,2143.67 126.43,2143.67 126.43,2146.41 129.17,2146.41 129.17,2151.92 131.92,2151.92 131.92,2154.67 134.67,2154.67 134.67,2160.16 137.42,2160.16 137.42,2162.91 140.17,2162.91 140.17,2165.66 142.91,2165.66 142.91,2171.15 145.66,2171.15 145.66,2173.9 148.41,2173.9 148.41,2176.65 151.16,2176.65 151.16,2179.4 153.91,2179.4 153.91,2182.15 156.65,2182.15 156.65,2187.64 162.15,2187.64 162.15,2193.14 164.9,2193.14 164.9,2195.89 167.65,2195.89 167.65,2198.64 173.14,2198.64 173.14,2204.14 178.64,2204.14 178.64,2206.88 181.39,2206.88 181.39,2209.63 184.14,2209.63 184.14,2212.38 186.89,2212.38 186.89,2215.13 189.63,2215.13 189.63,2217.88 192.38,2217.88 192.38,2220.62 195.13,2220.62 195.13,2223.37 197.88,2223.37 197.88,2226.12 203.38,2226.12 203.38,2228.87 206.12,2228.87 206.12,2231.62 208.87,2231.62 208.87,2234.36 211.62,2234.36 211.62,2237.11 214.37,2237.11 214.37,2239.87 217.12,2239.87 217.12,2242.61 222.61,2242.61 222.61,2245.36 225.36,2245.36 225.36,2248.11 228.11,2248.11 228.11,2250.86 230.86,2250.86 230.86,2253.61 233.61,2253.61 233.61,2256.35 239.11,2256.35 239.11,2259.1 241.85,2259.1 241.85,2261.85 244.6,2261.85 244.6,2264.6 247.35,2264.6 247.35,2267.35 250.1,2267.35 250.1,2270.09 252.85,2270.09 252.85,2272.84 255.59,2272.84 255.59,2275.59 258.34,2275.59 258.34,2278.34 263.84,2278.34 263.84,2281.09 266.59,2281.09 266.59,2283.84 269.34,2283.84 269.34,2286.58 272.08,2286.58 272.08,2289.33 274.83,2289.33 274.83,2292.08 277.58,2292.08 277.58,2294.83 280.33,2294.83 280.33,2297.58 283.08,2297.58 283.08,2300.32 285.83,2300.32 285.83,2303.07 288.57,2303.07 288.57,2305.82 291.32,2305.82 291.32,2308.57 294.07,2308.57 294.07,2314.07 296.82,2314.07 296.82,2316.81 299.57,2316.81 299.57,2319.56 302.32,2319.56 302.32,2322.31 305.06,2322.31 305.06,2327.81 307.81,2327.81 307.81,2330.55 310.56,2330.55 310.56,2333.3 313.31,2333.3 313.31,2338.8 316.06,2338.8 316.06,2341.55 318.81,2341.55 318.81,2344.29 321.55,2344.29 321.55,2349.8 324.3,2349.8 324.3,2352.54 327.05,2352.54 327.05,2358.04 329.8,2358.04 329.8,2363.54 332.55,2363.54 332.55,2369.03 335.3,2369.03 335.3,2374.52 338.04,2374.52 338.04,2380.03 340.79,2380.03 340.79,2385.52 343.54,2385.52 343.54,2391.02 346.29,2391.02 346.29,2402.01 349.04,2402.01 349.04,2413 351.79,2413 351.79,2418.5 354.53,2418.5 354.53,2426.74 357.28,2426.74 357.28,2432.25 360.03,2432.25 360.03,2437.74 362.78,2437.74 362.78,2443.23 365.53,2443.23 365.53,2445.99 382.02,2445.99 382.02,2443.23 387.51,2443.23 387.51,2440.49 390.26,2440.49 390.26,2437.74 393.01,2437.74 393.01,2432.25 395.76,2432.25 395.76,2426.74 398.51,2426.74 398.51,2421.25 401.25,2421.25 401.25,2415.75 404,2415.75 404,2410.26 406.75,2410.26 406.75,2404.76 409.5,2404.76 409.5,2399.26 412.25,2399.26 412.25,2396.51 415,2396.51 415,2391.02 417.74,2391.02 417.74,2388.27 420.49,2388.27 420.49,2385.52 423.24,2385.52 423.24,2380.03 425.99,2380.03 425.99,2377.28 428.74,2377.28 428.74,2374.52 431.48,2374.52 431.48,2369.03 434.24,2369.03 434.24,2366.28 436.98,2366.28 436.98,2360.78 439.73,2360.78 439.73,2355.29 442.48,2355.29 442.48,2349.8 445.23,2349.8 445.23,2347.04 447.98,2347.04 447.98,2341.55 450.73,2341.55 450.73,2336.05 453.47,2336.05 453.47,2330.55 456.22,2330.55 456.22,2325.06 458.97,2325.06 458.97,2319.56 461.72,2319.56 461.72,2314.07 464.47,2314.07 464.47,2308.57 467.22,2308.57 467.22,2305.82 469.96,2305.82 469.96,2300.32 472.71,2300.32 472.71,2294.83 475.45,2294.83 475.45,2292.08 478.21,2292.08 478.21,2286.58 480.96,2286.58 480.96,2283.84 483.71,2283.84 483.71,2278.34 486.45,2278.34 486.45,2275.59 489.2,2275.59 489.2,2270.09 491.95,2270.09 491.95,2267.35 494.7,2267.35 494.7,2264.6 497.45,2264.6 497.45,2261.85 500.19,2261.85 500.19,2256.35 502.94,2256.35 502.94,2253.61 505.69,2253.61 505.69,2250.86 508.44,2250.86 508.44,2248.11 511.19,2248.11 511.19,2245.36 513.93,2245.36 513.93,2239.87 516.68,2239.87 516.68,2237.11 519.43,2237.11 519.43,2234.36 522.18,2234.36 522.18,2231.62 524.93,2231.62 524.93,2228.87 527.67,2228.87 527.67,2226.12 530.42,2226.12 530.42,2223.37 533.17,2223.37 533.17,2220.62 535.92,2220.62 535.92,2217.88 538.67,2217.88 538.67,2215.13 541.41,2215.13 541.41,2212.38 544.16,2212.38 544.16,2209.63 546.92,2209.63 546.92,2206.88 549.66,2206.88 549.66,2204.14 555.16,2204.14 555.16,2201.39 557.9,2201.39 557.9,2198.64 560.66,2198.64 560.66,2195.89 563.4,2195.89 563.4,2193.14 566.15,2193.14 566.15,2190.39 568.9,2190.39 568.9,2187.64 571.65,2187.64 571.65,2184.9 574.4,2184.9 574.4,2182.15 577.15,2182.15 577.15,2179.4 579.89,2179.4 579.89,2176.65 582.64,2176.65 582.64,2173.9 585.39,2173.9 585.39,2171.15 588.13,2171.15 588.13,2168.41 590.89,2168.41 590.89,2162.91 593.63,2162.91 593.63,2160.16 596.39,2160.16 596.39,2157.41 599.13,2157.41 599.13,2151.92 601.87,2151.92 601.87,2149.17 604.63,2149.17 604.63,2143.67 607.37,2143.67 607.37,2138.17 610.13,2138.17 610.13,2132.68 612.87,2132.68 612.87,2129.93 615.61,2129.93 615.61,2121.68 618.37,2121.68 618.37,2116.19 621.12,2116.19 621.12,2110.69 623.87,2110.69 623.87,2102.45 626.61,2102.45 626.61,2096.95 629.36,2096.95 629.36,2088.7 632.11,2088.7 632.11,2077.72 634.86,2077.72 634.86,2066.72 637.6,2066.72 637.6,2052.98 640.35,2052.98 640.35,2044.73 643.1,2044.73 643.1,2030.99 645.85,2030.99 645.85,2014.5 648.6,2014.5 648.6,1995.26 651.35,1995.26 651.35,1956.79 654.1,1956.79 654.1,1912.82 656.84,1912.82 656.84,1802.88 654.1,1802.88 654.1,1720.43 651.35,1720.43 651.35,1681.96 648.6,1681.96 648.6,1648.98 645.85,1648.98 645.85,1616 643.1,1616 643.1,1594.01 640.35,1594.01 640.35,1566.53 637.6,1566.53 637.6,1561.03 634.86,1561.03 634.86,1528.05 632.11,1528.05 632.11,1517.06 629.36,1517.06 629.36,1500.57 626.61,1500.57 626.61,1481.33 623.87,1481.33 623.87,1456.6 621.12,1456.6 621.12,1445.6 618.37,1445.6 618.37,1418.12 615.61,1418.12 615.61,1398.88 612.87,1398.88 612.87,1379.65 610.13,1379.65 610.13,1363.15 607.37,1363.15 607.37,1346.66 604.63,1346.66 604.63,1324.68 601.87,1324.68 601.87,1297.2 599.13,1297.2 599.13,1275.21 596.39,1275.21 596.39,1231.24 593.63,1231.24 593.63,1195.51 590.89,1195.51 590.89,1077.33 593.63,1077.33 593.63,1038.86 596.39,1038.86 596.39,1025.11 599.13,1025.11 599.13,1003.13 601.87,1003.13 601.87,989.39 604.63,989.39 604.63,981.14 607.37,981.14 607.37,972.9 610.13,972.9 610.13,961.9 612.87,961.9 612.87,953.66 615.61,953.66 615.61,945.42 618.37,945.42 618.37,937.17 621.12,937.17 621.12,928.93 623.87,928.93 623.87,923.43 626.61,923.43 626.61,920.68 629.36,920.68 629.36,912.43 632.11,912.43 632.11,909.69 634.86,909.69 634.86,904.19 637.6,904.19 637.6,898.69 640.35,898.69 640.35,895.95 643.1,895.95 643.1,890.45 645.85,890.45 645.85,887.7 648.6,887.7 648.6,884.95 651.35,884.95 651.35,879.46 654.1,879.46 654.1,876.71 656.84,876.71 656.84,873.96 659.59,873.96 659.59,871.21 662.34,871.21 662.34,868.46 665.09,868.46 665.09,865.71 667.84,865.71 667.84,862.97 670.59,862.97 670.59,860.22 673.34,860.22 673.34,857.47 676.08,857.47 676.08,854.72 678.83,854.72 678.83,851.97 681.58,851.97 681.58,849.23 687.07,849.23 687.07,846.48 689.82,846.48 689.82,843.73 695.33,843.73 695.33,840.98 700.81,840.98 700.81,838.23 706.31,838.23 706.31,835.48 714.55,835.48 714.55,832.74 733.8,832.74 733.8,829.99 772.28,829.99 772.28,827.24 788.76,827.24 788.76,824.49 810.75,824.49 810.75,821.74 819,821.74 819,818.99 821.74,818.99 821.74,816.25 827.24,816.25 827.24,813.49 829.99,813.49 829.99,810.75 832.74,810.75 832.74,808 835.48,808 835.48,805.25 838.23,805.25 838.23,791.51 835.48,791.51 835.48,786.01 832.74,786.01 832.74,783.27 827.24,783.27 827.24,780.52 824.49,780.52 824.49,777.77 819,777.77 819,775.02 813.49,775.02 813.49,772.27 810.75,772.27 810.75,769.52 802.51,769.52 802.51,766.78 797.01,766.78 797.01,764.03 788.76,764.03 788.76,761.28 777.77,761.28 777.77,758.53 772.28,758.53 772.28,755.78 755.78,755.78 755.78,753.03 744.8,753.03 744.8,750.29 689.82,750.29 "/>
   <polygon class="fil0" points="1082.83,1442.86 1074.59,1442.86 1074.59,1445.6 1071.84,1445.6 1071.84,1448.35 1069.09,1448.35 1069.09,1451.1 1063.59,1451.1 1063.59,1453.84 1060.84,1453.84 1060.84,1456.6 1055.35,1456.6 1055.35,1459.35 1052.6,1459.35 1052.6,1462.09 1049.85,1462.09 1049.85,1464.84 1047.1,1464.84 1047.1,1467.59 1044.35,1467.59 1044.35,1470.34 1038.86,1470.34 1038.86,1473.09 1036.11,1473.09 1036.11,1475.83 1030.61,1475.83 1030.61,1478.58 1027.86,1478.58 1027.86,1481.33 1025.12,1481.33 1025.12,1484.08 1022.37,1484.08 1022.37,1486.83 1016.87,1486.83 1016.87,1489.57 1014.12,1489.57 1014.12,1492.33 1008.63,1492.33 1008.63,1495.07 1003.13,1495.07 1003.13,1497.82 994.88,1497.82 994.88,1500.57 981.14,1500.57 981.14,1497.82 970.15,1497.82 970.15,1495.07 964.65,1495.07 964.65,1492.33 961.9,1492.33 961.9,1489.57 959.16,1489.57 959.16,1486.83 953.66,1486.83 953.66,1484.08 950.91,1484.08 950.91,1481.33 948.16,1481.33 948.16,1478.58 945.42,1478.58 945.42,1475.83 942.67,1475.83 942.67,1473.09 937.17,1473.09 937.17,1470.34 934.42,1470.34 934.42,1467.59 931.67,1467.59 931.67,1464.84 926.18,1464.84 926.18,1462.09 923.43,1462.09 923.43,1459.35 920.68,1459.35 920.68,1456.6 915.19,1456.6 915.19,1453.84 906.94,1453.84 906.94,1451.1 898.7,1451.1 898.7,1448.35 876.71,1448.35 876.71,1451.1 871.22,1451.1 871.22,1453.84 860.22,1453.84 860.22,1456.6 854.72,1456.6 854.72,1459.35 851.97,1459.35 851.97,1462.09 849.22,1462.09 849.22,1464.84 846.48,1464.84 846.48,1467.59 843.73,1467.59 843.73,1470.34 840.98,1470.34 840.98,1473.09 838.23,1473.09 838.23,1475.83 835.48,1475.83 835.48,1478.58 832.74,1478.58 832.74,1481.33 829.99,1481.33 829.99,1484.08 824.49,1484.08 824.49,1486.83 816.25,1486.83 816.25,1484.08 810.75,1484.08 810.75,1481.33 805.25,1481.33 805.25,1478.58 802.51,1478.58 802.51,1475.83 799.75,1475.83 799.75,1473.09 797.01,1473.09 797.01,1470.34 794.26,1470.34 794.26,1467.59 791.51,1467.59 791.51,1464.84 788.76,1464.84 788.76,1462.09 786.01,1462.09 786.01,1459.35 780.52,1459.35 780.52,1456.6 777.77,1456.6 777.77,1453.84 772.28,1453.84 772.28,1451.1 766.78,1451.1 766.78,1448.35 736.55,1448.35 736.55,1451.1 731.05,1451.1 731.05,1453.84 722.81,1453.84 722.81,1456.6 714.55,1456.6 714.55,1459.35 706.31,1459.35 706.31,1462.09 700.81,1462.09 700.81,1464.84 698.07,1464.84 698.07,1467.59 692.57,1467.59 692.57,1470.34 689.82,1470.34 689.82,1473.09 684.33,1473.09 684.33,1475.83 681.58,1475.83 681.58,1478.58 678.83,1478.58 678.83,1481.33 676.08,1481.33 676.08,1486.83 673.34,1486.83 673.34,1489.57 670.59,1489.57 670.59,1497.82 667.84,1497.82 667.84,1503.31 665.09,1503.31 665.09,1544.54 667.84,1544.54 667.84,1555.54 670.59,1555.54 670.59,1566.53 673.34,1566.53 673.34,1577.52 676.08,1577.52 676.08,1583.02 678.83,1583.02 678.83,1594.01 681.58,1594.01 681.58,1605.01 684.33,1605.01 684.33,1610.5 687.07,1610.5 687.07,1618.75 689.82,1618.75 689.82,1632.49 692.57,1632.49 692.57,1648.98 695.33,1648.98 695.33,1657.22 698.07,1657.22 698.07,1676.46 700.81,1676.46 700.81,1687.45 703.57,1687.45 703.57,1706.69 706.31,1706.69 706.31,1742.42 709.07,1742.42 709.07,1758.91 711.81,1758.91 711.81,1791.89 714.55,1791.89 714.55,1824.87 717.31,1824.87 717.31,1882.58 720.06,1882.58 720.06,1926.56 722.81,1926.56 722.81,2096.95 720.06,2096.95 720.06,2132.68 717.31,2132.68 717.31,2162.91 714.55,2162.91 714.55,2176.65 711.81,2176.65 711.81,2193.14 709.07,2193.14 709.07,2212.38 706.31,2212.38 706.31,2226.12 703.57,2226.12 703.57,2242.61 700.81,2242.61 700.81,2253.61 698.07,2253.61 698.07,2259.1 695.33,2259.1 695.33,2272.84 692.57,2272.84 692.57,2281.09 689.82,2281.09 689.82,2289.33 687.07,2289.33 687.07,2292.08 684.33,2292.08 684.33,2303.07 681.58,2303.07 681.58,2308.57 678.83,2308.57 678.83,2314.07 676.08,2314.07 676.08,2319.56 673.34,2319.56 673.34,2327.81 670.59,2327.81 670.59,2333.3 667.84,2333.3 667.84,2338.8 665.09,2338.8 665.09,2341.55 662.34,2341.55 662.34,2347.04 659.59,2347.04 659.59,2352.54 656.84,2352.54 656.84,2358.04 654.1,2358.04 654.1,2363.54 651.35,2363.54 651.35,2369.03 648.6,2369.03 648.6,2385.52 651.35,2385.52 651.35,2388.27 654.1,2388.27 654.1,2391.02 656.84,2391.02 656.84,2393.77 665.09,2393.77 665.09,2391.02 670.59,2391.02 670.59,2388.27 676.08,2388.27 676.08,2385.52 678.83,2385.52 678.83,2382.77 681.58,2382.77 681.58,2380.03 684.33,2380.03 684.33,2377.28 687.07,2377.28 687.07,2374.52 689.82,2374.52 689.82,2371.78 692.57,2371.78 692.57,2369.03 695.33,2369.03 695.33,2366.28 698.07,2366.28 698.07,2363.54 700.81,2363.54 700.81,2358.04 703.57,2358.04 703.57,2355.29 706.31,2355.29 706.31,2352.54 709.07,2352.54 709.07,2349.8 711.81,2349.8 711.81,2347.04 714.55,2347.04 714.55,2344.29 717.31,2344.29 717.31,2341.55 720.06,2341.55 720.06,2338.8 722.81,2338.8 722.81,2333.3 725.55,2333.3 725.55,2330.55 728.3,2330.55 728.3,2327.81 731.05,2327.81 731.05,2325.06 733.8,2325.06 733.8,2322.31 736.55,2322.31 736.55,2316.81 739.29,2316.81 739.29,2314.07 742.04,2314.07 742.04,2308.57 744.8,2308.57 744.8,2305.82 747.54,2305.82 747.54,2300.32 750.28,2300.32 750.28,2294.83 753.04,2294.83 753.04,2289.33 755.78,2289.33 755.78,2281.09 758.54,2281.09 758.54,2275.59 761.28,2275.59 761.28,2264.6 764.02,2264.6 764.02,2256.35 766.78,2256.35 766.78,2248.11 769.52,2248.11 769.52,2242.61 772.28,2242.61 772.28,2226.12 775.02,2226.12 775.02,2215.13 777.77,2215.13 777.77,2204.14 780.52,2204.14 780.52,2182.15 783.27,2182.15 783.27,2168.41 786.01,2168.41 786.01,2149.17 788.76,2149.17 788.76,2121.68 791.51,2121.68 791.51,2066.72 794.26,2066.72 794.26,1921.06 791.51,1921.06 791.51,1758.91 794.26,1758.91 794.26,1736.92 797.01,1736.92 797.01,1720.43 799.75,1720.43 799.75,1706.69 802.51,1706.69 802.51,1692.95 805.25,1692.95 805.25,1679.21 808,1679.21 808,1670.96 810.75,1670.96 810.75,1662.72 813.49,1662.72 813.49,1654.47 816.25,1654.47 816.25,1646.23 819,1646.23 819,1640.73 821.74,1640.73 821.74,1637.98 824.49,1637.98 824.49,1632.49 827.24,1632.49 827.24,1629.74 829.99,1629.74 829.99,1626.99 832.74,1626.99 832.74,1624.24 838.23,1624.24 838.23,1621.5 849.22,1621.5 849.22,1618.75 871.22,1618.75 871.22,1621.5 876.71,1621.5 876.71,1624.24 879.46,1624.24 879.46,1626.99 884.96,1626.99 884.96,1629.74 887.7,1629.74 887.7,1635.24 890.45,1635.24 890.45,1637.98 893.2,1637.98 893.2,1643.48 895.94,1643.48 895.94,1646.23 898.7,1646.23 898.7,1654.47 901.45,1654.47 901.45,1662.72 904.19,1662.72 904.19,1670.96 906.94,1670.96 906.94,1687.45 909.69,1687.45 909.69,1706.69 912.43,1706.69 912.43,1736.92 915.19,1736.92 915.19,1780.9 917.93,1780.9 917.93,1846.86 920.68,1846.86 920.68,2154.67 923.43,2154.67 923.43,2248.11 926.18,2248.11 926.18,2319.56 928.93,2319.56 928.93,2363.54 931.67,2363.54 931.67,2388.27 934.42,2388.27 934.42,2404.76 937.17,2404.76 937.17,2434.99 939.92,2434.99 939.92,2454.23 942.67,2454.23 942.67,2462.47 945.42,2462.47 945.42,2473.47 948.16,2473.47 948.16,2484.46 950.91,2484.46 950.91,2495.45 953.66,2495.45 953.66,2500.95 956.41,2500.95 956.41,2511.94 959.16,2511.94 959.16,2517.44 961.9,2517.44 961.9,2522.93 964.65,2522.93 964.65,2528.43 967.4,2528.43 967.4,2533.93 970.15,2533.93 970.15,2542.17 972.9,2542.17 972.9,2547.67 975.65,2547.67 975.65,2553.17 978.39,2553.17 978.39,2558.66 981.14,2558.66 981.14,2564.16 983.89,2564.16 983.89,2566.91 986.64,2566.91 986.64,2572.4 989.39,2572.4 989.39,2575.15 992.14,2575.15 992.14,2580.65 994.88,2580.65 994.88,2586.15 997.63,2586.15 997.63,2588.9 1000.38,2588.9 1000.38,2594.39 1003.13,2594.39 1003.13,2597.14 1005.88,2597.14 1005.88,2599.89 1008.63,2599.89 1008.63,2602.64 1011.37,2602.64 1011.37,2608.13 1014.12,2608.13 1014.12,2610.88 1016.87,2610.88 1016.87,2613.63 1019.62,2613.63 1019.62,2616.38 1022.37,2616.38 1022.37,2619.13 1025.12,2619.13 1025.12,2621.87 1030.61,2621.87 1030.61,2624.62 1033.36,2624.62 1033.36,2627.37 1038.86,2627.37 1038.86,2630.13 1041.61,2630.13 1041.61,2632.87 1049.85,2632.87 1049.85,2635.61 1069.09,2635.61 1069.09,2605.39 1066.34,2605.39 1066.34,2599.89 1063.59,2599.89 1063.59,2594.39 1060.84,2594.39 1060.84,2588.9 1058.1,2588.9 1058.1,2583.4 1055.35,2583.4 1055.35,2577.9 1052.6,2577.9 1052.6,2572.4 1049.85,2572.4 1049.85,2566.91 1047.1,2566.91 1047.1,2561.41 1044.35,2561.41 1044.35,2555.92 1041.61,2555.92 1041.61,2550.41 1038.86,2550.41 1038.86,2544.92 1036.11,2544.92 1036.11,2536.67 1033.36,2536.67 1033.36,2531.18 1030.61,2531.18 1030.61,2522.93 1027.86,2522.93 1027.86,2514.69 1025.12,2514.69 1025.12,2509.19 1022.37,2509.19 1022.37,2495.45 1019.62,2495.45 1019.62,2489.96 1016.87,2489.96 1016.87,2476.22 1014.12,2476.22 1014.12,2465.22 1011.37,2465.22 1011.37,2454.23 1008.63,2454.23 1008.63,2445.99 1005.88,2445.99 1005.88,2432.25 1003.13,2432.25 1003.13,2418.5 1000.38,2418.5 1000.38,2402.01 997.63,2402.01 997.63,2380.03 994.88,2380.03 994.88,2253.61 997.63,2253.61 997.63,2231.62 1000.38,2231.62 1000.38,2204.14 1003.13,2204.14 1003.13,2187.64 1005.88,2187.64 1005.88,2176.65 1008.63,2176.65 1008.63,2160.16 1011.37,2160.16 1011.37,2132.68 1014.12,2132.68 1014.12,2116.19 1016.87,2116.19 1016.87,2096.95 1019.62,2096.95 1019.62,2066.72 1022.37,2066.72 1022.37,2044.73 1025.12,2044.73 1025.12,1965.03 1022.37,1965.03 1022.37,1943.05 1019.62,1943.05 1019.62,1929.31 1016.87,1929.31 1016.87,1912.82 1014.12,1912.82 1014.12,1893.58 1011.37,1893.58 1011.37,1874.34 1008.63,1874.34 1008.63,1860.6 1005.88,1860.6 1005.88,1709.44 1008.63,1709.44 1008.63,1698.45 1011.37,1698.45 1011.37,1687.45 1014.12,1687.45 1014.12,1676.46 1016.87,1676.46 1016.87,1668.21 1019.62,1668.21 1019.62,1659.97 1022.37,1659.97 1022.37,1654.47 1025.12,1654.47 1025.12,1648.98 1027.86,1648.98 1027.86,1643.48 1030.61,1643.48 1030.61,1640.73 1033.36,1640.73 1033.36,1637.98 1036.11,1637.98 1036.11,1632.49 1038.86,1632.49 1038.86,1629.74 1041.61,1629.74 1041.61,1626.99 1044.35,1626.99 1044.35,1624.24 1049.85,1624.24 1049.85,1621.5 1052.6,1621.5 1052.6,1618.75 1058.1,1618.75 1058.1,1616 1066.34,1616 1066.34,1613.25 1096.57,1613.25 1096.57,1616 1102.07,1616 1102.07,1618.75 1107.57,1618.75 1107.57,1621.5 1113.06,1621.5 1113.06,1624.24 1115.81,1624.24 1115.81,1626.99 1118.56,1626.99 1118.56,1629.74 1124.06,1629.74 1124.06,1632.49 1126.8,1632.49 1126.8,1635.24 1129.55,1635.24 1129.55,1640.73 1132.3,1640.73 1132.3,1643.48 1135.05,1643.48 1135.05,1646.23 1137.8,1646.23 1137.8,1651.72 1140.54,1651.72 1140.54,1654.47 1143.29,1654.47 1143.29,1659.97 1146.04,1659.97 1146.04,1665.47 1148.79,1665.47 1148.79,1670.96 1151.54,1670.96 1151.54,1679.21 1154.29,1679.21 1154.29,1687.45 1157.04,1687.45 1157.04,1698.45 1159.78,1698.45 1159.78,1709.44 1162.53,1709.44 1162.53,1725.93 1165.28,1725.93 1165.28,1802.88 1162.53,1802.88 1162.53,1835.86 1159.78,1835.86 1159.78,1857.85 1157.04,1857.85 1157.04,1868.84 1154.29,1868.84 1154.29,1885.33 1151.54,1885.33 1151.54,1896.32 1148.79,1896.32 1148.79,1915.56 1146.04,1915.56 1146.04,1934.8 1143.29,1934.8 1143.29,1956.79 1140.54,1956.79 1140.54,2220.62 1137.8,2220.62 1137.8,2454.23 1140.54,2454.23 1140.54,2498.2 1143.29,2498.2 1143.29,2528.43 1146.04,2528.43 1146.04,2550.41 1148.79,2550.41 1148.79,2572.4 1151.54,2572.4 1151.54,2580.65 1154.29,2580.65 1154.29,2599.89 1157.04,2599.89 1157.04,2616.38 1159.78,2616.38 1159.78,2624.62 1162.53,2624.62 1162.53,2638.37 1165.28,2638.37 1165.28,2646.61 1168.03,2646.61 1168.03,2660.35 1170.78,2660.35 1170.78,2671.34 1173.53,2671.34 1173.53,2679.59 1176.27,2679.59 1176.27,2687.84 1179.02,2687.84 1179.02,2693.33 1181.77,2693.33 1181.77,2701.58 1184.52,2701.58 1184.52,2712.57 1187.27,2712.57 1187.27,2720.81 1190.01,2720.81 1190.01,2726.31 1192.76,2726.31 1192.76,2731.81 1195.51,2731.81 1195.51,2740.05 1198.26,2740.05 1198.26,2745.55 1201.01,2745.55 1201.01,2751.04 1203.76,2751.04 1203.76,2759.29 1206.5,2759.29 1206.5,2764.78 1209.25,2764.78 1209.25,2770.28 1212,2770.28 1212,2775.78 1214.75,2775.78 1214.75,2781.27 1217.5,2781.27 1217.5,2786.77 1220.24,2786.77 1220.24,2792.27 1223,2792.27 1223,2795.02 1225.74,2795.02 1225.74,2800.51 1228.49,2800.51 1228.49,2806.01 1231.24,2806.01 1231.24,2811.51 1233.98,2811.51 1233.98,2814.26 1236.74,2814.26 1236.74,2819.75 1239.48,2819.75 1239.48,2822.5 1242.23,2822.5 1242.23,2828 1244.98,2828 1244.98,2833.49 1247.73,2833.49 1247.73,2836.24 1250.48,2836.24 1250.48,2838.99 1253.22,2838.99 1253.22,2844.49 1255.97,2844.49 1255.97,2847.23 1258.72,2847.23 1258.72,2852.73 1261.47,2852.73 1261.47,2855.48 1264.22,2855.48 1264.22,2858.23 1266.97,2858.23 1266.97,2863.72 1269.71,2863.72 1269.71,2866.47 1272.46,2866.47 1272.46,2869.22 1275.21,2869.22 1275.21,2874.72 1277.96,2874.72 1277.96,2877.47 1280.71,2877.47 1280.71,2880.21 1283.46,2880.21 1283.46,2882.96 1286.2,2882.96 1286.2,2885.71 1288.95,2885.71 1288.95,2888.46 1291.7,2888.46 1291.7,2891.21 1294.45,2891.21 1294.45,2893.96 1297.2,2893.96 1297.2,2896.7 1302.69,2896.7 1302.69,2899.45 1305.44,2899.45 1305.44,2902.2 1310.94,2902.2 1310.94,2904.95 1316.44,2904.95 1316.44,2907.7 1338.42,2907.7 1338.42,2904.95 1341.17,2904.95 1341.17,2893.96 1338.42,2893.96 1338.42,2880.21 1335.68,2880.21 1335.68,2874.72 1332.92,2874.72 1332.92,2869.22 1330.18,2869.22 1330.18,2863.72 1327.43,2863.72 1327.43,2860.98 1324.68,2860.98 1324.68,2855.48 1321.93,2855.48 1321.93,2849.98 1319.18,2849.98 1319.18,2847.23 1316.44,2847.23 1316.44,2841.74 1313.69,2841.74 1313.69,2836.24 1310.94,2836.24 1310.94,2833.49 1308.19,2833.49 1308.19,2828 1305.44,2828 1305.44,2822.5 1302.69,2822.5 1302.69,2819.75 1299.94,2819.75 1299.94,2814.26 1297.2,2814.26 1297.2,2808.76 1294.45,2808.76 1294.45,2803.26 1291.7,2803.26 1291.7,2797.76 1288.95,2797.76 1288.95,2792.27 1286.2,2792.27 1286.2,2786.77 1283.46,2786.77 1283.46,2781.27 1280.71,2781.27 1280.71,2775.78 1277.96,2775.78 1277.96,2770.28 1275.21,2770.28 1275.21,2759.29 1272.46,2759.29 1272.46,2753.79 1269.71,2753.79 1269.71,2748.29 1266.97,2748.29 1266.97,2737.3 1264.22,2737.3 1264.22,2731.81 1261.47,2731.81 1261.47,2723.56 1258.72,2723.56 1258.72,2715.32 1255.97,2715.32 1255.97,2704.33 1253.22,2704.33 1253.22,2690.58 1250.48,2690.58 1250.48,2682.34 1247.73,2682.34 1247.73,2671.34 1244.98,2671.34 1244.98,2665.85 1242.23,2665.85 1242.23,2654.85 1239.48,2654.85 1239.48,2643.86 1236.74,2643.86 1236.74,2630.13 1233.98,2630.13 1233.98,2616.38 1231.24,2616.38 1231.24,2599.89 1228.49,2599.89 1228.49,2586.15 1225.74,2586.15 1225.74,2572.4 1223,2572.4 1223,2555.92 1220.24,2555.92 1220.24,2533.93 1217.5,2533.93 1217.5,2522.93 1214.75,2522.93 1214.75,2495.45 1212,2495.45 1212,2456.98 1209.25,2456.98 1209.25,2316.81 1212,2316.81 1212,2264.6 1214.75,2264.6 1214.75,2237.11 1217.5,2237.11 1217.5,2215.13 1220.24,2215.13 1220.24,2206.88 1223,2206.88 1223,2190.39 1225.74,2190.39 1225.74,2184.9 1228.49,2184.9 1228.49,2176.65 1231.24,2176.65 1231.24,2171.15 1233.98,2171.15 1233.98,2162.91 1236.74,2162.91 1236.74,2157.41 1239.48,2157.41 1239.48,2151.92 1242.23,2151.92 1242.23,2149.17 1244.98,2149.17 1244.98,2143.67 1247.73,2143.67 1247.73,2138.17 1250.48,2138.17 1250.48,2132.68 1253.22,2132.68 1253.22,2129.93 1255.97,2129.93 1255.97,2124.43 1258.72,2124.43 1258.72,2118.94 1261.47,2118.94 1261.47,2116.19 1264.22,2116.19 1264.22,2110.69 1266.97,2110.69 1266.97,2107.94 1269.71,2107.94 1269.71,2102.45 1272.46,2102.45 1272.46,2096.95 1275.21,2096.95 1275.21,2094.2 1277.96,2094.2 1277.96,2088.7 1280.71,2088.7 1280.71,2083.21 1283.46,2083.21 1283.46,2077.72 1286.2,2077.72 1286.2,2044.73 1283.46,2044.73 1283.46,2036.49 1280.71,2036.49 1280.71,2028.25 1277.96,2028.25 1277.96,2022.74 1275.21,2022.74 1275.21,2017.25 1272.46,2017.25 1272.46,2014.5 1269.71,2014.5 1269.71,2009 1266.97,2009 1266.97,2003.51 1264.22,2003.51 1264.22,2000.76 1261.47,2000.76 1261.47,1995.26 1258.72,1995.26 1258.72,1989.77 1255.97,1989.77 1255.97,1984.27 1253.22,1984.27 1253.22,1978.78 1250.48,1978.78 1250.48,1973.28 1247.73,1973.28 1247.73,1962.28 1244.98,1962.28 1244.98,1956.79 1242.23,1956.79 1242.23,1943.05 1239.48,1943.05 1239.48,1926.56 1236.74,1926.56 1236.74,1824.87 1239.48,1824.87 1239.48,1780.9 1242.23,1780.9 1242.23,1725.93 1244.98,1725.93 1244.98,1684.7 1247.73,1684.7 1247.73,1662.72 1250.48,1662.72 1250.48,1640.73 1253.22,1640.73 1253.22,1616 1255.97,1616 1255.97,1566.53 1253.22,1566.53 1253.22,1561.03 1250.48,1561.03 1250.48,1555.54 1247.73,1555.54 1247.73,1550.04 1244.98,1550.04 1244.98,1544.54 1242.23,1544.54 1242.23,1541.8 1239.48,1541.8 1239.48,1539.04 1236.74,1539.04 1236.74,1533.56 1233.98,1533.56 1233.98,1530.8 1231.24,1530.8 1231.24,1528.05 1228.49,1528.05 1228.49,1525.3 1225.74,1525.3 1225.74,1522.56 1223,1522.56 1223,1519.81 1220.24,1519.81 1220.24,1517.06 1217.5,1517.06 1217.5,1514.31 1214.75,1514.31 1214.75,1511.56 1209.25,1511.56 1209.25,1508.82 1206.5,1508.82 1206.5,1506.07 1203.76,1506.07 1203.76,1503.31 1201.01,1503.31 1201.01,1500.57 1198.26,1500.57 1198.26,1497.82 1192.76,1497.82 1192.76,1495.07 1190.01,1495.07 1190.01,1492.33 1187.27,1492.33 1187.27,1489.57 1184.52,1489.57 1184.52,1486.83 1179.02,1486.83 1179.02,1484.08 1176.27,1484.08 1176.27,1481.33 1173.53,1481.33 1173.53,1478.58 1170.78,1478.58 1170.78,1475.83 1165.28,1475.83 1165.28,1473.09 1162.53,1473.09 1162.53,1470.34 1159.78,1470.34 1159.78,1467.59 1154.29,1467.59 1154.29,1464.84 1151.54,1464.84 1151.54,1462.09 1146.04,1462.09 1146.04,1459.35 1143.29,1459.35 1143.29,1456.6 1137.8,1456.6 1137.8,1453.84 1132.3,1453.84 1132.3,1451.1 1126.8,1451.1 1126.8,1448.35 1121.31,1448.35 1121.31,1445.6 1118.56,1445.6 1118.56,1442.86 1107.57,1442.86 1107.57,1440.1 1082.83,1440.1 "/>
   <polygon class="fil0" points="2151.92,1398.88 2143.67,1398.88 2143.67,1401.63 2138.17,1401.63 2138.17,1404.37 2132.68,1404.37 2132.68,1407.13 2129.93,1407.13 2129.93,1409.88 2127.18,1409.88 2127.18,1412.62 2124.43,1412.62 2124.43,1415.37 2121.68,1415.37 2121.68,1418.12 2118.94,1418.12 2118.94,1420.87 2116.19,1420.87 2116.19,1423.62 2113.44,1423.62 2113.44,1429.11 2110.69,1429.11 2110.69,1431.86 2107.94,1431.86 2107.94,1434.62 2105.19,1434.62 2105.19,1440.1 2102.45,1440.1 2102.45,1442.86 2099.7,1442.86 2099.7,1448.35 2096.95,1448.35 2096.95,1451.1 2094.2,1451.1 2094.2,1453.84 2091.45,1453.84 2091.45,1456.6 2088.7,1456.6 2088.7,1459.35 2085.96,1459.35 2085.96,1462.09 2083.21,1462.09 2083.21,1464.84 2080.46,1464.84 2080.46,1467.59 2077.71,1467.59 2077.71,1470.34 2069.47,1470.34 2069.47,1473.09 2055.73,1473.09 2055.73,1470.34 2047.48,1470.34 2047.48,1467.59 2041.99,1467.59 2041.99,1464.84 2036.49,1464.84 2036.49,1462.09 2030.99,1462.09 2030.99,1459.35 2025.5,1459.35 2025.5,1456.6 2011.76,1456.6 2011.76,1453.84 1995.26,1453.84 1995.26,1456.6 1981.53,1456.6 1981.53,1459.35 1973.27,1459.35 1973.27,1462.09 1967.79,1462.09 1967.79,1464.84 1962.28,1464.84 1962.28,1467.59 1959.53,1467.59 1959.53,1470.34 1956.79,1470.34 1956.79,1473.09 1954.05,1473.09 1954.05,1475.83 1951.29,1475.83 1951.29,1478.58 1948.54,1478.58 1948.54,1484.08 1945.79,1484.08 1945.79,1486.83 1943.05,1486.83 1943.05,1492.33 1940.3,1492.33 1940.3,1500.57 1937.55,1500.57 1937.55,1511.56 1934.8,1511.56 1934.8,1522.56 1932.05,1522.56 1932.05,1591.27 1934.8,1591.27 1934.8,1605.01 1937.55,1605.01 1937.55,1659.97 1940.3,1659.97 1940.3,1723.18 1943.05,1723.18 1943.05,1758.91 1945.79,1758.91 1945.79,1901.82 1943.05,1901.82 1943.05,1926.56 1940.3,1926.56 1940.3,1951.29 1937.55,1951.29 1937.55,1962.28 1934.8,1962.28 1934.8,1970.53 1932.05,1970.53 1932.05,1984.27 1929.31,1984.27 1929.31,1989.77 1926.56,1989.77 1926.56,2000.76 1923.81,2000.76 1923.81,2006.26 1921.06,2006.26 1921.06,2014.5 1918.31,2014.5 1918.31,2020 1915.57,2020 1915.57,2028.25 1912.82,2028.25 1912.82,2033.74 1910.06,2033.74 1910.06,2039.24 1907.32,2039.24 1907.32,2047.48 1904.57,2047.48 1904.57,2055.73 1901.82,2055.73 1901.82,2066.72 1899.08,2066.72 1899.08,2072.21 1896.32,2072.21 1896.32,2096.95 1899.08,2096.95 1899.08,2102.45 1901.82,2102.45 1901.82,2107.94 1904.57,2107.94 1904.57,2113.44 1907.32,2113.44 1907.32,2118.94 1910.06,2118.94 1910.06,2124.43 1912.82,2124.43 1912.82,2129.93 1915.57,2129.93 1915.57,2135.43 1918.31,2135.43 1918.31,2140.93 1921.06,2140.93 1921.06,2146.41 1923.81,2146.41 1923.81,2151.92 1926.56,2151.92 1926.56,2157.41 1929.31,2157.41 1929.31,2165.66 1932.05,2165.66 1932.05,2176.65 1934.8,2176.65 1934.8,2182.15 1937.55,2182.15 1937.55,2193.14 1940.3,2193.14 1940.3,2198.64 1943.05,2198.64 1943.05,2209.63 1945.79,2209.63 1945.79,2220.62 1948.54,2220.62 1948.54,2242.61 1951.29,2242.61 1951.29,2253.61 1954.05,2253.61 1954.05,2270.09 1956.79,2270.09 1956.79,2286.58 1959.53,2286.58 1959.53,2308.57 1962.28,2308.57 1962.28,2319.56 1965.03,2319.56 1965.03,2448.73 1962.28,2448.73 1962.28,2476.22 1959.53,2476.22 1959.53,2495.45 1956.79,2495.45 1956.79,2506.45 1954.05,2506.45 1954.05,2528.43 1951.29,2528.43 1951.29,2539.43 1948.54,2539.43 1948.54,2550.41 1945.79,2550.41 1945.79,2564.16 1943.05,2564.16 1943.05,2577.9 1940.3,2577.9 1940.3,2588.9 1937.55,2588.9 1937.55,2602.64 1934.8,2602.64 1934.8,2610.88 1932.05,2610.88 1932.05,2621.87 1929.31,2621.87 1929.31,2632.87 1926.56,2632.87 1926.56,2638.37 1923.81,2638.37 1923.81,2649.35 1921.06,2649.35 1921.06,2654.85 1918.31,2654.85 1918.31,2665.85 1915.57,2665.85 1915.57,2671.34 1912.82,2671.34 1912.82,2679.59 1910.06,2679.59 1910.06,2690.58 1907.32,2690.58 1907.32,2693.33 1904.57,2693.33 1904.57,2704.33 1901.82,2704.33 1901.82,2709.82 1899.08,2709.82 1899.08,2715.32 1896.32,2715.32 1896.32,2720.81 1893.58,2720.81 1893.58,2726.31 1890.83,2726.31 1890.83,2734.55 1888.08,2734.55 1888.08,2740.05 1885.33,2740.05 1885.33,2745.55 1882.58,2745.55 1882.58,2751.04 1879.84,2751.04 1879.84,2756.54 1877.09,2756.54 1877.09,2762.04 1874.34,2762.04 1874.34,2767.53 1871.59,2767.53 1871.59,2773.03 1868.85,2773.03 1868.85,2778.53 1866.09,2778.53 1866.09,2784.02 1863.35,2784.02 1863.35,2789.52 1860.59,2789.52 1860.59,2797.76 1857.85,2797.76 1857.85,2800.51 1855.11,2800.51 1855.11,2806.01 1852.35,2806.01 1852.35,2811.51 1849.61,2811.51 1849.61,2814.26 1846.85,2814.26 1846.85,2819.75 1844.11,2819.75 1844.11,2825.25 1841.37,2825.25 1841.37,2828 1838.61,2828 1838.61,2833.49 1835.86,2833.49 1835.86,2836.24 1833.11,2836.24 1833.11,2841.74 1830.37,2841.74 1830.37,2844.49 1827.62,2844.49 1827.62,2847.23 1824.87,2847.23 1824.87,2852.73 1822.12,2852.73 1822.12,2855.48 1819.38,2855.48 1819.38,2860.98 1816.63,2860.98 1816.63,2863.72 1813.88,2863.72 1813.88,2866.47 1811.13,2866.47 1811.13,2871.97 1808.38,2871.97 1808.38,2874.72 1805.64,2874.72 1805.64,2877.47 1802.88,2877.47 1802.88,2882.96 1800.14,2882.96 1800.14,2885.71 1797.39,2885.71 1797.39,2891.21 1794.64,2891.21 1794.64,2896.7 1791.9,2896.7 1791.9,2902.2 1789.14,2902.2 1789.14,2926.94 1791.9,2926.94 1791.9,2924.19 1800.14,2924.19 1800.14,2926.94 1808.38,2926.94 1808.38,2924.19 1813.88,2924.19 1813.88,2921.44 1816.63,2921.44 1816.63,2918.69 1822.12,2918.69 1822.12,2915.94 1824.87,2915.94 1824.87,2913.19 1827.62,2913.19 1827.62,2910.45 1830.37,2910.45 1830.37,2907.7 1835.86,2907.7 1835.86,2904.95 1838.61,2904.95 1838.61,2902.2 1841.37,2902.2 1841.37,2899.45 1844.11,2899.45 1844.11,2896.7 1846.85,2896.7 1846.85,2891.21 1849.61,2891.21 1849.61,2888.46 1852.35,2888.46 1852.35,2885.71 1855.11,2885.71 1855.11,2882.96 1857.85,2882.96 1857.85,2880.21 1860.59,2880.21 1860.59,2877.47 1863.35,2877.47 1863.35,2874.72 1866.09,2874.72 1866.09,2869.22 1868.85,2869.22 1868.85,2866.47 1871.59,2866.47 1871.59,2863.72 1874.34,2863.72 1874.34,2858.23 1877.09,2858.23 1877.09,2855.48 1879.84,2855.48 1879.84,2852.73 1882.58,2852.73 1882.58,2847.23 1885.33,2847.23 1885.33,2844.49 1888.08,2844.49 1888.08,2838.99 1890.83,2838.99 1890.83,2836.24 1893.58,2836.24 1893.58,2830.74 1896.32,2830.74 1896.32,2828 1899.08,2828 1899.08,2822.5 1901.82,2822.5 1901.82,2817 1904.57,2817 1904.57,2814.26 1907.32,2814.26 1907.32,2808.76 1910.06,2808.76 1910.06,2806.01 1912.82,2806.01 1912.82,2800.51 1915.57,2800.51 1915.57,2795.02 1918.31,2795.02 1918.31,2789.52 1921.06,2789.52 1921.06,2786.77 1923.81,2786.77 1923.81,2781.27 1926.56,2781.27 1926.56,2775.78 1929.31,2775.78 1929.31,2770.28 1932.05,2770.28 1932.05,2764.78 1934.8,2764.78 1934.8,2759.29 1937.55,2759.29 1937.55,2756.54 1940.3,2756.54 1940.3,2751.04 1943.05,2751.04 1943.05,2745.55 1945.79,2745.55 1945.79,2740.05 1948.54,2740.05 1948.54,2734.55 1951.29,2734.55 1951.29,2729.06 1954.05,2729.06 1954.05,2723.56 1956.79,2723.56 1956.79,2718.07 1959.53,2718.07 1959.53,2712.57 1962.28,2712.57 1962.28,2707.07 1965.03,2707.07 1965.03,2698.82 1967.79,2698.82 1967.79,2693.33 1970.53,2693.33 1970.53,2687.84 1973.27,2687.84 1973.27,2682.34 1976.03,2682.34 1976.03,2676.84 1978.77,2676.84 1978.77,2671.34 1981.53,2671.34 1981.53,2663.1 1984.27,2663.1 1984.27,2657.6 1987.02,2657.6 1987.02,2652.11 1989.77,2652.11 1989.77,2646.61 1992.51,2646.61 1992.51,2638.37 1995.26,2638.37 1995.26,2632.87 1998.01,2632.87 1998.01,2624.62 2000.76,2624.62 2000.76,2616.38 2003.51,2616.38 2003.51,2610.88 2006.25,2610.88 2006.25,2602.64 2009,2602.64 2009,2597.14 2011.76,2597.14 2011.76,2586.15 2014.5,2586.15 2014.5,2580.65 2017.25,2580.65 2017.25,2572.4 2020,2572.4 2020,2564.16 2022.74,2564.16 2022.74,2550.41 2025.5,2550.41 2025.5,2544.92 2028.24,2544.92 2028.24,2533.93 2030.99,2533.93 2030.99,2520.19 2033.74,2520.19 2033.74,2506.45 2036.49,2506.45 2036.49,2489.96 2039.24,2489.96 2039.24,2478.96 2041.99,2478.96 2041.99,2462.47 2044.73,2462.47 2044.73,2451.48 2047.48,2451.48 2047.48,2434.99 2050.23,2434.99 2050.23,2402.01 2052.98,2402.01 2052.98,2374.52 2055.73,2374.52 2055.73,2347.04 2058.47,2347.04 2058.47,2162.91 2055.73,2162.91 2055.73,2121.68 2052.98,2121.68 2052.98,1857.85 2050.23,1857.85 2050.23,1835.86 2047.48,1835.86 2047.48,1772.65 2044.73,1772.65 2044.73,1692.95 2047.48,1692.95 2047.48,1670.96 2050.23,1670.96 2050.23,1659.97 2052.98,1659.97 2052.98,1648.98 2055.73,1648.98 2055.73,1643.48 2058.47,1643.48 2058.47,1637.98 2061.22,1637.98 2061.22,1632.49 2063.97,1632.49 2063.97,1629.74 2066.72,1629.74 2066.72,1624.24 2069.47,1624.24 2069.47,1618.75 2072.21,1618.75 2072.21,1616 2074.96,1616 2074.96,1613.25 2077.71,1613.25 2077.71,1607.76 2080.46,1607.76 2080.46,1605.01 2083.21,1605.01 2083.21,1602.25 2085.96,1602.25 2085.96,1599.51 2088.7,1599.51 2088.7,1596.76 2091.45,1596.76 2091.45,1594.01 2094.2,1594.01 2094.2,1591.27 2096.95,1591.27 2096.95,1588.51 2099.7,1588.51 2099.7,1585.77 2102.45,1585.77 2102.45,1583.02 2105.19,1583.02 2105.19,1580.27 2107.94,1580.27 2107.94,1577.52 2110.69,1577.52 2110.69,1574.77 2116.19,1574.77 2116.19,1572.02 2118.94,1572.02 2118.94,1569.28 2121.68,1569.28 2121.68,1566.53 2124.43,1566.53 2124.43,1563.78 2129.93,1563.78 2129.93,1561.03 2132.68,1561.03 2132.68,1558.28 2135.43,1558.28 2135.43,1555.54 2140.92,1555.54 2140.92,1552.78 2143.67,1552.78 2143.67,1550.04 2149.17,1550.04 2149.17,1547.3 2151.92,1547.3 2151.92,1544.54 2157.41,1544.54 2157.41,1541.8 2160.16,1541.8 2160.16,1539.04 2165.66,1539.04 2165.66,1536.3 2168.41,1536.3 2168.41,1533.56 2173.9,1533.56 2173.9,1530.8 2176.65,1530.8 2176.65,1528.05 2182.15,1528.05 2182.15,1525.3 2184.9,1525.3 2184.9,1522.56 2190.39,1522.56 2190.39,1519.81 2193.14,1519.81 2193.14,1517.06 2198.64,1517.06 2198.64,1514.31 2201.39,1514.31 2201.39,1511.56 2206.88,1511.56 2206.88,1508.82 2209.63,1508.82 2209.63,1506.07 2212.38,1506.07 2212.38,1503.31 2215.13,1503.31 2215.13,1500.57 2217.88,1500.57 2217.88,1497.82 2220.62,1497.82 2220.62,1495.07 2223.37,1495.07 2223.37,1492.33 2226.12,1492.33 2226.12,1489.57 2228.87,1489.57 2228.87,1486.83 2231.62,1486.83 2231.62,1484.08 2234.37,1484.08 2234.37,1478.58 2237.11,1478.58 2237.11,1473.09 2239.86,1473.09 2239.86,1442.86 2237.11,1442.86 2237.11,1434.62 2234.37,1434.62 2234.37,1429.11 2231.62,1429.11 2231.62,1426.36 2228.87,1426.36 2228.87,1423.62 2226.12,1423.62 2226.12,1420.87 2223.37,1420.87 2223.37,1418.12 2220.62,1418.12 2220.62,1415.37 2217.88,1415.37 2217.88,1412.62 2215.13,1412.62 2215.13,1409.88 2209.63,1409.88 2209.63,1407.13 2206.88,1407.13 2206.88,1404.37 2201.39,1404.37 2201.39,1401.63 2195.89,1401.63 2195.89,1398.88 2184.9,1398.88 2184.9,1396.13 2151.92,1396.13 "/>
   <polygon class="fil0" points="2358.04,1440.1 2344.29,1440.1 2344.29,1442.86 2338.8,1442.86 2338.8,1445.6 2333.31,1445.6 2333.31,1448.35 2327.81,1448.35 2327.81,1451.1 2322.31,1451.1 2322.31,1453.84 2319.56,1453.84 2319.56,1456.6 2314.07,1456.6 2314.07,1459.35 2311.32,1459.35 2311.32,1462.09 2305.82,1462.09 2305.82,1464.84 2303.07,1464.84 2303.07,1467.59 2300.33,1467.59 2300.33,1470.34 2297.58,1470.34 2297.58,1473.09 2294.83,1473.09 2294.83,1475.83 2292.08,1475.83 2292.08,1478.58 2289.33,1478.58 2289.33,1481.33 2286.58,1481.33 2286.58,1484.08 2283.84,1484.08 2283.84,1489.57 2281.09,1489.57 2281.09,1495.07 2278.34,1495.07 2278.34,1508.82 2275.59,1508.82 2275.59,1530.8 2278.34,1530.8 2278.34,1547.3 2281.09,1547.3 2281.09,1561.03 2283.84,1561.03 2283.84,1572.02 2286.58,1572.02 2286.58,1583.02 2289.33,1583.02 2289.33,1599.51 2292.08,1599.51 2292.08,1758.91 2294.83,1758.91 2294.83,1775.4 2297.58,1775.4 2297.58,1786.39 2300.33,1786.39 2300.33,1791.89 2303.07,1791.89 2303.07,1802.88 2305.82,1802.88 2305.82,1816.62 2308.57,1816.62 2308.57,1846.86 2305.82,1846.86 2305.82,1852.35 2303.07,1852.35 2303.07,1860.6 2300.33,1860.6 2300.33,1866.09 2297.58,1866.09 2297.58,1868.84 2294.83,1868.84 2294.83,1874.34 2292.08,1874.34 2292.08,1877.09 2289.33,1877.09 2289.33,1879.84 2286.58,1879.84 2286.58,1882.58 2283.84,1882.58 2283.84,1888.08 2278.34,1888.08 2278.34,1890.83 2275.59,1890.83 2275.59,1893.58 2272.84,1893.58 2272.84,1896.32 2270.09,1896.32 2270.09,1899.07 2267.35,1899.07 2267.35,1901.82 2264.6,1901.82 2264.6,1904.57 2261.85,1904.57 2261.85,1907.32 2259.1,1907.32 2259.1,1910.06 2256.35,1910.06 2256.35,1912.82 2253.6,1912.82 2253.6,1915.56 2250.86,1915.56 2250.86,1918.31 2248.11,1918.31 2248.11,1921.06 2245.36,1921.06 2245.36,1926.56 2242.61,1926.56 2242.61,1945.8 2245.36,1945.8 2245.36,1951.29 2248.11,1951.29 2248.11,1954.04 2250.86,1954.04 2250.86,1956.79 2253.6,1956.79 2253.6,1959.54 2256.35,1959.54 2256.35,1962.28 2259.1,1962.28 2259.1,1965.03 2261.85,1965.03 2261.85,1967.78 2267.35,1967.78 2267.35,1970.53 2270.09,1970.53 2270.09,1973.28 2272.84,1973.28 2272.84,1976.03 2275.59,1976.03 2275.59,1978.78 2278.34,1978.78 2278.34,1984.27 2281.09,1984.27 2281.09,1989.77 2283.84,1989.77 2283.84,1995.26 2286.58,1995.26 2286.58,2009 2289.33,2009 2289.33,2022.74 2292.08,2022.74 2292.08,2039.24 2294.83,2039.24 2294.83,2074.96 2297.58,2074.96 2297.58,2088.7 2300.33,2088.7 2300.33,2165.66 2303.07,2165.66 2303.07,2198.64 2305.82,2198.64 2305.82,2256.35 2303.07,2256.35 2303.07,2286.58 2300.33,2286.58 2300.33,2308.57 2297.58,2308.57 2297.58,2325.06 2294.83,2325.06 2294.83,2336.05 2292.08,2336.05 2292.08,2347.04 2289.33,2347.04 2289.33,2358.04 2286.58,2358.04 2286.58,2369.03 2283.84,2369.03 2283.84,2374.52 2281.09,2374.52 2281.09,2388.27 2278.34,2388.27 2278.34,2396.51 2275.59,2396.51 2275.59,2407.51 2272.84,2407.51 2272.84,2413 2270.09,2413 2270.09,2424 2267.35,2424 2267.35,2448.73 2286.58,2448.73 2286.58,2445.99 2292.08,2445.99 2292.08,2443.23 2294.83,2443.23 2294.83,2440.49 2300.33,2440.49 2300.33,2437.74 2303.07,2437.74 2303.07,2434.99 2305.82,2434.99 2305.82,2432.25 2308.57,2432.25 2308.57,2429.49 2311.32,2429.49 2311.32,2424 2314.07,2424 2314.07,2421.25 2316.81,2421.25 2316.81,2415.75 2319.56,2415.75 2319.56,2413 2322.31,2413 2322.31,2407.51 2325.06,2407.51 2325.06,2402.01 2327.81,2402.01 2327.81,2396.51 2330.55,2396.51 2330.55,2393.77 2333.31,2393.77 2333.31,2388.27 2336.05,2388.27 2336.05,2380.03 2338.8,2380.03 2338.8,2374.52 2341.55,2374.52 2341.55,2369.03 2344.29,2369.03 2344.29,2360.78 2347.05,2360.78 2347.05,2352.54 2349.8,2352.54 2349.8,2349.8 2352.54,2349.8 2352.54,2338.8 2355.29,2338.8 2355.29,2330.55 2358.04,2330.55 2358.04,2325.06 2360.79,2325.06 2360.79,2314.07 2363.54,2314.07 2363.54,2303.07 2366.28,2303.07 2366.28,2294.83 2369.03,2294.83 2369.03,2286.58 2371.78,2286.58 2371.78,2275.59 2374.53,2275.59 2374.53,2264.6 2377.28,2264.6 2377.28,2253.61 2380.03,2253.61 2380.03,2242.61 2382.77,2242.61 2382.77,2226.12 2385.52,2226.12 2385.52,2209.63 2388.27,2209.63 2388.27,2187.64 2391.02,2187.64 2391.02,2028.25 2393.77,2028.25 2393.77,2006.26 2396.51,2006.26 2396.51,1995.26 2399.27,1995.26 2399.27,1987.02 2402.01,1987.02 2402.01,1981.52 2404.76,1981.52 2404.76,1976.03 2407.51,1976.03 2407.51,1973.28 2410.26,1973.28 2410.26,1970.53 2413.01,1970.53 2413.01,1967.78 2415.75,1967.78 2415.75,1965.03 2418.5,1965.03 2418.5,1962.28 2421.25,1962.28 2421.25,1959.54 2424,1959.54 2424,1956.79 2429.49,1956.79 2429.49,1954.04 2432.25,1954.04 2432.25,1951.29 2437.74,1951.29 2437.74,1948.54 2440.49,1948.54 2440.49,1945.8 2443.23,1945.8 2443.23,1943.05 2448.74,1943.05 2448.74,1937.55 2451.48,1937.55 2451.48,1921.06 2448.74,1921.06 2448.74,1915.56 2445.99,1915.56 2445.99,1910.06 2443.23,1910.06 2443.23,1904.57 2440.49,1904.57 2440.49,1901.82 2437.74,1901.82 2437.74,1896.32 2434.99,1896.32 2434.99,1890.83 2432.25,1890.83 2432.25,1888.08 2429.49,1888.08 2429.49,1885.33 2426.75,1885.33 2426.75,1882.58 2424,1882.58 2424,1877.09 2421.25,1877.09 2421.25,1871.59 2418.5,1871.59 2418.5,1868.84 2415.75,1868.84 2415.75,1863.35 2413.01,1863.35 2413.01,1857.85 2410.26,1857.85 2410.26,1849.6 2407.51,1849.6 2407.51,1841.36 2404.76,1841.36 2404.76,1830.37 2402.01,1830.37 2402.01,1813.88 2399.27,1813.88 2399.27,1769.9 2396.51,1769.9 2396.51,1736.92 2393.77,1736.92 2393.77,1703.94 2391.02,1703.94 2391.02,1610.5 2393.77,1610.5 2393.77,1599.51 2396.51,1599.51 2396.51,1594.01 2399.27,1594.01 2399.27,1583.02 2402.01,1583.02 2402.01,1577.52 2404.76,1577.52 2404.76,1572.02 2407.51,1572.02 2407.51,1566.53 2410.26,1566.53 2410.26,1561.03 2413.01,1561.03 2413.01,1555.54 2415.75,1555.54 2415.75,1552.78 2418.5,1552.78 2418.5,1547.3 2421.25,1547.3 2421.25,1541.8 2424,1541.8 2424,1539.04 2426.75,1539.04 2426.75,1536.3 2429.49,1536.3 2429.49,1530.8 2432.25,1530.8 2432.25,1528.05 2434.99,1528.05 2434.99,1525.3 2437.74,1525.3 2437.74,1519.81 2440.49,1519.81 2440.49,1517.06 2443.23,1517.06 2443.23,1511.56 2445.99,1511.56 2445.99,1506.07 2448.74,1506.07 2448.74,1500.57 2451.48,1500.57 2451.48,1481.33 2448.74,1481.33 2448.74,1478.58 2445.99,1478.58 2445.99,1473.09 2443.23,1473.09 2443.23,1470.34 2437.74,1470.34 2437.74,1467.59 2434.99,1467.59 2434.99,1464.84 2429.49,1464.84 2429.49,1462.09 2426.75,1462.09 2426.75,1459.35 2421.25,1459.35 2421.25,1456.6 2415.75,1456.6 2415.75,1453.84 2410.26,1453.84 2410.26,1451.1 2404.76,1451.1 2404.76,1448.35 2402.01,1448.35 2402.01,1445.6 2396.51,1445.6 2396.51,1442.86 2388.27,1442.86 2388.27,1440.1 2385.52,1440.1 2385.52,1437.36 2358.04,1437.36 "/>
   <polygon class="fil0" points="2349.8,1143.29 2344.29,1143.29 2344.29,1146.04 2341.55,1146.04 2341.55,1148.79 2338.8,1148.79 2338.8,1151.54 2336.05,1151.54 2336.05,1154.29 2333.31,1154.29 2333.31,1157.04 2330.55,1157.04 2330.55,1159.78 2327.81,1159.78 2327.81,1162.53 2325.06,1162.53 2325.06,1165.28 2322.31,1165.28 2322.31,1168.03 2319.56,1168.03 2319.56,1170.78 2316.81,1170.78 2316.81,1176.27 2314.07,1176.27 2314.07,1179.02 2311.32,1179.02 2311.32,1181.77 2308.57,1181.77 2308.57,1187.27 2305.82,1187.27 2305.82,1190.01 2303.07,1190.01 2303.07,1195.51 2300.33,1195.51 2300.33,1198.26 2297.58,1198.26 2297.58,1203.75 2294.83,1203.75 2294.83,1209.25 2292.08,1209.25 2292.08,1212 2289.33,1212 2289.33,1220.24 2286.58,1220.24 2286.58,1225.74 2283.84,1225.74 2283.84,1231.24 2281.09,1231.24 2281.09,1255.97 2283.84,1255.97 2283.84,1258.72 2286.58,1258.72 2286.58,1261.47 2289.33,1261.47 2289.33,1266.97 2292.08,1266.97 2292.08,1269.71 2294.83,1269.71 2294.83,1272.46 2297.58,1272.46 2297.58,1275.21 2300.33,1275.21 2300.33,1277.95 2303.07,1277.95 2303.07,1280.71 2305.82,1280.71 2305.82,1283.46 2308.57,1283.46 2308.57,1286.2 2314.07,1286.2 2314.07,1288.95 2316.81,1288.95 2316.81,1291.69 2319.56,1291.69 2319.56,1294.45 2322.31,1294.45 2322.31,1297.2 2327.81,1297.2 2327.81,1299.94 2330.55,1299.94 2330.55,1302.69 2336.05,1302.69 2336.05,1305.44 2341.55,1305.44 2341.55,1308.19 2347.05,1308.19 2347.05,1310.94 2358.04,1310.94 2358.04,1313.69 2374.53,1313.69 2374.53,1310.94 2380.03,1310.94 2380.03,1308.19 2385.52,1308.19 2385.52,1305.44 2388.27,1305.44 2388.27,1302.69 2391.02,1302.69 2391.02,1297.2 2393.77,1297.2 2393.77,1294.45 2396.51,1294.45 2396.51,1291.69 2399.27,1291.69 2399.27,1288.95 2402.01,1288.95 2402.01,1283.46 2404.76,1283.46 2404.76,1280.71 2407.51,1280.71 2407.51,1277.95 2410.26,1277.95 2410.26,1275.21 2413.01,1275.21 2413.01,1269.71 2415.75,1269.71 2415.75,1266.97 2418.5,1266.97 2418.5,1261.47 2421.25,1261.47 2421.25,1258.72 2424,1258.72 2424,1255.97 2426.75,1255.97 2426.75,1250.47 2429.49,1250.47 2429.49,1247.72 2432.25,1247.72 2432.25,1242.23 2434.99,1242.23 2434.99,1239.48 2437.74,1239.48 2437.74,1233.98 2440.49,1233.98 2440.49,1231.24 2443.23,1231.24 2443.23,1225.74 2445.99,1225.74 2445.99,1222.99 2448.74,1222.99 2448.74,1217.5 2451.48,1217.5 2451.48,1212 2454.23,1212 2454.23,1209.25 2456.98,1209.25 2456.98,1184.52 2454.23,1184.52 2454.23,1179.02 2451.48,1179.02 2451.48,1176.27 2448.74,1176.27 2448.74,1173.52 2445.99,1173.52 2445.99,1170.78 2440.49,1170.78 2440.49,1168.03 2434.99,1168.03 2434.99,1165.28 2429.49,1165.28 2429.49,1162.53 2421.25,1162.53 2421.25,1159.78 2415.75,1159.78 2415.75,1157.04 2410.26,1157.04 2410.26,1154.29 2402.01,1154.29 2402.01,1151.54 2396.51,1151.54 2396.51,1148.79 2393.77,1148.79 2393.77,1146.04 2385.52,1146.04 2385.52,1143.29 2377.28,1143.29 2377.28,1140.54 2349.8,1140.54 "/>
   <polygon class="fil1" points="1802.88,2926.94 1800.14,2926.94 1800.14,2924.19 1791.9,2924.19 1791.9,2926.94 1789.14,2926.94 1789.14,2907.7 1786.39,2907.7 1786.39,2910.45 1780.9,2910.45 1780.9,2926.94 1783.65,2926.94 1783.65,2929.68 1786.39,2929.68 1786.39,2932.43 1797.39,2932.43 1797.39,2929.68 1802.88,2929.68 "/>
   <polygon class="fil2" points="1470.34,489.2 1475.84,489.2 1475.84,483.7 1473.09,483.7 1473.09,486.45 1470.34,486.45 "/>
  </g>
 </g>
</svg>
